<mxfile host="app.diagrams.net" agent="Mozilla/5.0 (Windows NT 10.0; Win64; x64) AppleWebKit/537.36 (KHTML, like Gecko) Chrome/140.0.0.0 Safari/537.36 Edg/140.0.0.0" version="28.2.3">
  <diagram name="Page-1" id="adov1Ik5Idxi-ZNxcYoJ">
    <mxGraphModel dx="6499" dy="3192" grid="1" gridSize="10" guides="1" tooltips="1" connect="1" arrows="1" fold="1" page="1" pageScale="1" pageWidth="827" pageHeight="1169" math="0" shadow="0">
      <root>
        <mxCell id="0" />
        <mxCell id="1" parent="0" />
        <mxCell id="tTCNDWqaS0pplaEmAUnw-31" value="" style="shape=image;verticalLabelPosition=bottom;labelBackgroundColor=default;verticalAlign=top;aspect=fixed;imageAspect=0;image=data:image/png,iVBORw0KGgoAAAANSUhEUgAABUQAAAUkCAYAAAATiB8NAAAABmJLR0QA/wD/AP+gvaeTAAAACXBIWXMAAAsTAAALEwEAmpwYAAAAB3RJTUUH4woDDScSJaUkvQAAAB1pVFh0Q29tbWVudAAAAAAAQ3JlYXRlZCB3aXRoIEdJTVBkLmUHAAAgAElEQVR42uzde5zcdX3v8e9vd5Nwv8g1i0oVwfsNy7FSrTubEETKzgbcWnRnExBTLw2C9VKtl1WrtbVqvVQr3kIWL4Ui2Z2AUKTghVoFQQQDyYpHeh47k5AgSELI7s78PucPT4+iXHLZZOfyfP6ZfzL7ms3M/N75zkxKAAAAAAAAAAAAAAAAAAAAAAAAAAAAAAAAAAAAAAAAAAAAAAAAAAAAAAAAAAAAAAAAAAAAAAAAAAAAAAAAAAAAAAAAAAAAAAAAAAAAAAAAAAAAAAAAAAAAAAAAAAAAAAAAAAAAAAAAAAAAAAAAAAAAAAAAAAAAAAAAAAAAAAAAAAAAAAAAAAAAAAAAAAAAAAAAAAAAAAAAAAAAAAAAAAAAAAAAAAAAAAAAAAAAAAAAAAAAAAAAAAAAAAAAAAAAAAAAAAAAAAAAAAAAAAAAAAAAAAAAAAAAAAAAAAAAAAAAAADQkjIJgGb3mtMrR0/V0rv37prz7gu+cVhVEQAAAOCRdEgANLupzo6OSPGarfXpdYPF6luWL495qgAAAAAPxyAKtI6I/VLkH7n3ruqaocXr/1QQAAAA4HcZRIEWFE/O6/VyqW/imqXF9c/WAwAAAPgfBlGgZUVKvbWU31wqVj4xtPj+QxQBAAAADKJAa4vojIhz8/rm8cH+6uuHh6NLFAAAAGhfBlGgXRyc8vwzd95c/Ulp8fpeOQAAAKA9GUSBthIRT496/ZpScWJs6Rl3H6sIAAAAtBeDKNCWItJptdr0baW+yoeWv/qeAxQBAACA9mAQBdpXpLmR4h33bZkcH1pcXTI8HB4TAQAAoMW5+AfaXkQcntfzFT+7qXrD0OLKixUBAACA1mUQBfj/4vi8Ht8d7KuMnFW85wl6AAAAQOsxiAL8nhicTtvWlvoq7zp/IPbWAwAAAFqHQRTg4UTaO1J8YNNUZe1QsfoKQQAAAKA1GEQBHkVEekIe+SWDfZXvLemvvEARAAAAaG4GUYDtEn+cR/phqa/yuXPO3HCEHgAAANCcDKIA2ykiOiLFsm0P1NeVipXzhwdirioAAADQXAyiADssDoiIj905WfnpUH/1FD0AAACgeRhEAXZSpPSUPM+vKPVV/v2sYvUZigAAAEDjM4gC7KJIcdJ0xC2lYuVjr3/VfQcrAgAAAI3LIAowI6IrIs7f8sAD46X+yrKLB6JTEwAAAGg8BlGAGRSRDok8Pleeqv54Sf/6BYoAAABAYzGIAuwGEfGsel7/1mCxcsnZZ2x4siIAAADQGAyiALtTxCump2trSv2VD7xh4O79BAEAAIDZZRAF2M0ipXmRx7vun6qtG+qvDEZEpgoAAADMDoMowJ4SMT/PY6RUrP5gaPGGFwkCAAAAe55BFGCPixPyev36wb7KiqGBTUfpAQAAAHuOQRRgVkSWUiyJyam1pf7KO5Yujb00AQAAgN3PIAowiyLFvpHHh2r3Vu8YKlYWKwIAAAC7l0EUoBFEHJ1HfKPUV7luaf/dzxMEAAAAdg+DKEADiRQvrUftR4PFiX8+a6B6mCIAAAAwswyiAA0mIjpSpDdMT8V4qVg5d9mymKMKAAAAzAyDKECjijgwIj6xdUPl1iX9lUWCAAAAwK4ziAI0ukhPredx1WBf5Yqz+zY+VRAAAADYeQZRgKYRp0xn07cOFSc+smzglwfqAQAAADvOIArQRCJiTh7pLQ9Obhsv9U+8Zng4PI4DAADADnAhDdCEIsVhkacv3HlT5abS4upLFQEAAIDtYxAFaGKR0nOjnl9XKk58fWl/9Q8UAQAAgEdnEAVoARHplfU8v32of2K4VFq/ryIAAADw8AyiAC0iUtorz9N706/qa0t96/88IjJVAAAA4KEMogAtJlI6KlL9a6Vi5T+H+qv/SxEAAAD4DYMoQOv6ozyP/yr1T3xx2ekb58sBAAAABlGAFhdZ5OnsrfXpdUN91bcuXx7zNAEAAKCdGUQB2kHEfnnK/+Heu6prlvSt7xMEAACAdmUQBWgr8eR6qo+W+iauWVpc/2w9AAAAaDcGUYA2FCn11lJ+c6lY/eTQ4vsPUQQAAIB2YRAFaFcRnRH58ry+ebxUrL5xeDi6RAEAAKDVGUQBODgi//SdN1d/sqS/skgOAAAAWplBFICUUkoR8fR6HleVipXLlp5x97GKAAAA0IoMogA8RET012rTtw0Vqx9e/up7DlAEAACAVmIQBeD3RZqbR/72ezdPriv1V5cOD4fnCwAAAFqCC1wAHkUcEXn+5Z/dVL1haHHlxXoAAADQ7AyiAGyHOD6vx3dLxcpXzire8wQ9AAAAaFYGUQC2W0S8ajptWzvUX333+QOxtyIAAAA0G4MoADsm0t55nr9/01RlbamvOiAIAAAAzcQgCsBOiUhPiJRfPNhX+d6S/soLFAEAAKAZGEQB2EXxx3mkH5aKlQvOOXPDEXoAAADQyAyiAOyyiOiIiNdue6C+bqiv8ubhgZirCgAAAI3IIArADIoD8hQfvXOy8tMlfdVT9QAAAKDRGEQBmHGR0lPqKV89WKxcdVax+gxFAAAAaBQGUQB2n4hF0xG3lPoqH3/9q+47WBAAAABmm0EUgN0suiLFeVseeGC81Fd53cUD0akJAAAAs8UgCsAeEZEOiRSfLU9Vf7ykf/0CRQAAAJgNBlEA9qiIeFY9r3+rVKz829lnbHiyIgAAAOxJBlEAZkVEnDE9XVszWKx88A0Dd++nCAAAAHuCQRSAWRMpzUsR77x/qrau1F8pRUSmCgAAALuTQRSA2RcxP/JYWSpWfzC0eMOLBAEAAGB3MYgC0EDihLxev75UrFw4NLDpKD0AAACYaQZRABpMZBExFJNTa4eKlXcuXRp7aQIAAMBMMYgC0JAixb55xAdr91bvKC2unK4IAAAAM8EgCkBjizg66nFpqa9y3dL+u58nCAAAALvCIApAU4gUL61H7UelYuWzZw1UD1MEAACAnWEQBaBpRERHRLxueirGh/oqb1q2LOaoAgAAwI4wiALQfCIOzFP809YNlVsHF1deJggAAADbyyAKQPOK9NRUj28O9lWuOLtv41MFAQAA4LEYRAFoAXHKdDZ9a6mv8o/LBn55oB4AAAA8EoMoAC0hIuZEir96cHLb+FCxcs7wcHiOAwAA4Pe4WASgpUSKw/KIz995U+Wm0uLqSxUBAADgtxlEAWhJkdJzo55fN9g38a9L+6t/oAgAAAApGUQBaH1/Vs/z20vFifeVSuv3lQMAAKC9GUQBaHmR0l4R6T3pV/W1Q8XKqyIiUwUAAKA9GUQBaBuR0lF5xFdKxcp/DvVX/5ciAAAA7ccgCkA7+qM8j/8aKk58adnpG+fLAQAA0D4MogC0qcjySGdtrU+vGyxOvH358pinCQAAQOsziALQ3iL2S5E+fO9d1TVDiyeKggAAALQ2gygApJRSiifn9bSq1DdxzdLi+mfrAQAA0JoMogDwWyKl3lrKby4VJz49tPj+QxQBAABoLQZRAPhdEZ0R6Y15ffP4YP/EXw4PR5coAAAArcEgCgCP7OCUp0/97ObqLUv6K4vkAAAAaH4GUQB4LBHPqOdx1WBxYnTpGXcfKwgAAEDzMogCwPaK1FerTd9W6qv+/fJX33OAIAAAAM3HIAoAOyLS3Ej52+7dPLlusFg9a3g4PJcCAAA0ERdxALBT4ogU+Zd+dlP1hqHFlRfrAQAA0BwMogCwS+L4vB7fHeyrfPWs4j1P0AMAAKCxGUQBYEbEmdNp29pSsfqe8wdibz0AAAAak0EUAGZKpL0j8vdtmqqsHSquf6UgAAAAjccgCgAzLCI9IY/610t9le+edXrleEUAAAAah0EUAHaTSPHiWj3dMFisfP6cMzccoQgAAMDsM4gCwG4UER0p4pxtD9TXDRarbxkeiLmqAAAAzB6DKADsEXFAivwjd05Wfjq0eP2f6gEAADA7DKIAsAdFSk/J6/XyYLFy1VnF6jMUAQAA2LMMogAwGyIWTUfcUipWPvH6V913sCAAAAB7hkEUAGZNdEXEuVseeGB8sL/6+osHolMTAACA3csgCgCzLCIdkvL8M+Wp6o9Li9f3KgIAALD7GEQBoEFExLOiXr+m1Fe59OwzNjxZEQAAgJlnEAWABhMpTp+erq0p9VU+9IaBu/dTBAAAYOYYRAGgAUVK8yLFO+6fqq0bLFaHIiJTBQAAYNcZRAGgkUXMT5FfWCpWfzC0eMOLBAEAANg1BlEAaApxQl6vXz/YVxkZGth0lB4AAAA7xyAKAE0jspRiMCan1paKlb9ZujT20gQAAGDHGEQBoMlEin0j4m9r91bvGCpWX6EIAADA9jOIAkCzijg6j/ySUl/lusHFG54rCAAAwGMziAJAk4sUL83y+k2Dxcq/nDVQPUwRAACAR2YQBYAWEBEdKeIvpqdivNRfOW/ZspijCgAAwO8ziAJAK4k4MPL4+NYNlVuH+qunCAIAAPBQBlEAaEWRnprn+RWDfZUrzu7b+FRBAAAAfs0gCgAtLU6ZzqZvHeyvfHTZwC8P1AMAAGh3BlEAaHERMSfl8eYHJ7eNl/ory4aHw/M/AADQtlwQAUCbiBSHRR6fu/Omyk2lxdWXKgIAALQjgygAtJlI6blRz68r9VUuXtpf/QNFAACAdmIQBYA2FSkG6nl+e6m/8oFSaf2+igAAAO3AIAoAbSxS2ivyeFf6VX3tYF/l1RGRqQIAALQygygAkCKlo1KKi0rFyn8uPb16giIAAECrMogCAL/tj2q1+MFgX2XFstM3zpcDAABoNQZRAOB3RJZSLNlan143VKz89fLlMU8TAACgVRhEAYCHF7FfHvF3995VXTPYX+kXBAAAaAUGUQDgMcSTUx6XlfomrllaXP9sPQAAgGZmEAUAtkuk1FtL+c2DxYl/Hlp8/yGKAAAAzcggCgBsv4jOFOkNeX3z+FD/xPLh4egSBQAAaCYGUQBgZxyc5+mTP7u5esuS/soiOQAAgGZhEAUAdl7EM+p5XFUqTowNDtz9FEEAAIBGZxAFAHZZRDotTU3/dLA48Q/LX33PAYoAAACNyiAKAMyMSHNTpLfeu3ly3WCxOiQIAADQiAyiAMAMiyOyiGEdAACARmQQBQAAAADahkEUAAAAAGgbBlEAAAAAoG0YRAEAAACAtmEQBQAAAADahkEUAAAAAGgbBlEAAAAAoG0YRAEAAACAtmEQBQAAAADahkEUAAAAAGgbBlEAAAAAoG0YRAEAAACAtmEQBQAAAADahkEUAAAAAGgbBlEAoGkN9U8sP38g9lYCAGZPoXD5CxcsWF1QAmgWBlEAoGlFZO/aNFm9Y6hYWawGAOxZJ530792FQvmLEfn3I9LTFAGaRZcEAEAzixRPjEjfGCxWvtsRXW9aOXb4zaoAwO6zdOm1e91115Zza7XJ90TEvr/+00wYoGk4IQoAtIaIl0RWu3Gor/KZ0uL1hwsCADOvUFjd94tfbF4TEX//mzEUoLkYRAGAlhERHXmK10c9Hy8VK+cuWxZzVAGAXbdgwTef09NTvjYiH00pPUkRoJkZRAGAFhQHRMQnHtxQua1UrJysBwDsnNNOKx/a01P+VJ5P35RS9CgCtAKDKADQsiLScRFxZamv8s2lZ1R82QMAbKfh4Wu7enrKb9y8OcZTir+MSJ2qAK3CIAoAtLxI8bLadLp1qDjxkaX99x6kCAA8soULVy+87rott6YUn04ped4EWo5BFABoE9GVR3pLLX9wfKhYOefigXDSBQB+y4IFlx9XKJQvr9Xyq1MK76wAWpZBFABoM3FoHvH58mTlpqG+akEPANrdwoVXH1golP++Xs9vi4iXKwK0OoMoANCWIqXn5Cn/j1Jx4uulgfW+LReAtjM8HB29veWzarVt4xHxtpRijipAOzCIAgBtLSK9Mk3Wby8VJ95XKq3fVxEA2kFv7+V/ct11q3+U5/GllOIwRYB2YhAFANpepDQvIr0n7q+vW9I/cWZEZKoA0Ip6ey8/ulAY+2qe17+dUjxPEaAdGUQBAP5HpO56nr461F/9fqm4/oWCANAqFi26at9CYew9eZ7fEZHOVARoZwZRAIDfEREvjMi/P1Sc+NLZfRu7FQGgiZ/Tsp6e8iunp6fWRqT3pRR7qQK0O4MoAMDDX0JmeaSzptP0ulL/xNuWL495mgDQTBYsGDuhUFh9fUrx9Yg4ShGAXzOIAgA8ikixb+Tp7++7q3r7kr71fYoA0OhOPvnK+YXC2Bfq9ewHKcWLFAF4qC4JAAAeW6R4Uj3VR0vFyrVZV+d5Ky894ieqANBITjnlinmTk7Xlk5NT700p7ZdSiALwMJwQBQDYARFRyGv1m4b6qp9admblUEUAaAS9veXTtm2rr8nz9JGU0n6KADwygygAwI6K6MxT/pcPbo3xUrH6xuHh8K4bAGbFwoWXP7tQGLsmz2MsIp6sCMBjM4gCAOykiHRQRP7pO2+q3jpU3LBQEQD2lAULvnVIoVD+RL1evzki9SoCsP0MogAAuyhSPC2P2tWDxcrqocUbj1MEgN1lePjarkJh7A31+oPjEXFuROpUBWDHGEQBAGZKxKmRT982VKx+ePmr7zlAEABmUm/vFb3XXbflJxHpn1OKgxUB2DkGUQCAGRQRc/LI337flsnxwWL1rOHh8HoLgF1y0knlY3t6xsp5XrsmpXi6IgC7xgt0AIDdICIOT5F/6c6bKzcuLVZeoggAO+qUU644oKen/He1WtyWUvpTRQBmhkEUAGA3ikjPr0V8p1SsfGVooPJERQB4LMPD0dHbe/nSbdtq4ynFX0ekuaoAzByDKADAHhARr8qn4o6h/uq7ly2r7KMIAA9n4cLyi7/97dU35Hn9yxHpcEUAZp5BFABgT4m0d57n79+6IdYu6a/+mSAA/I+FC8tPLBTKF9Vq8d2IOF4RgN2nSwIAgD0s0uPrkf9rqTjxphTZm0bGum8UBaA9nXZaeZ8tW7K/qtXyd6SU9lYEYPdzQhQAYJZEpBMjpR+WipULlg7cfaQiAO2lt3f1wObNaW1E/v5kDAXYYwyiAACzKrKIeG19qrau1F/9q+GB8MUZAC2uUFj9gkKhfH2e5xenFI9XBGDPMogCADSAiNg/8vwf75yqrlnSVz1VEYDW8/KXX35koVC+ICJuiIgTFQGYHT5DFACggUTEMfUUq0vFiW91dHWcd+Gl83+qCkBzGxj46dyNG//38q1b6+9NKe2vCMDsckIUAKABRaSF9VrcMthf+afXDPzqcYoANKdCYfWpmzb9fE1K+T8mYyhAQzCIAgA0qojOlMebpqa2jJf6Kq+7eCA6RQFoDoXClc/s6SlfHZGvjohjFAFoHAZRAIAGF5EeFyk+W56s3jJU3LBQEYDGdfLJVz6ut7f8TylN3ZJSeMwGaEAGUQCAJhEpnplH7epSX+XSJf0bnDYCaCADA9HZ21t+3dTU9Hiex5siklP9AA3KIAoA0GQixen1qK0ZLFY+eHbfRp9HBzDLFi5cvXDTpvIteR6fjQif+wzQ4AyiAADNKNLcFPHO6TS9rtRfKUVEJgrAntXbe8UxhcLYpbVafnVEeqYiAM3BIAoA0MQixZGRx8qh/uoPB4sbTlQEYPfr6/ve/oVC+UMRtTUR6XRFAJqLQRQAoAVExB+mqF1fKlZWnnP6PY9XBGC3PNZmhUJ5aPPmX45HxDsi0lxVAJqPQRQAoLUu1kuTtcm1Q8XKO88fiL0VAZgZhcIVf9zbu/qGiLgwIh2hCEDzMogCALSYSLFPHvHBTZPVOwb7K2coArDzFi266gk9PWMjEbXvRcQLFAFofl0SAAC0pkjxxJSnfxssVr7bEV1vWjl2+M2qAGyfgYH/3Hvjxk1vnp6eemdKaR9FAFqHE6IAAK0u4iWR1W4sFSufLS1ef7ggAI9uwYLyKzZtuueOlNLfRoQxFKDFGEQBANpARHRExOsiz9eV+ivnLVsWc1QBeKje3vLxPT3l79brcUlEPFERgNZkEAUAaCcRB0YeH39wQ+W2wcWVlwkCkNKiRVcdXiiMfS4ibkgpXqwIQGvzGaIAAG0oIh2X6vHNUl/lys456fwVl3bfoQrQbgYGfjp306Y73zg9PTUckQ5QBKA9OCEKANDGIsXLatPp1sH+ykeX9t97kCJAuygUyi/fuPHnt0Wkj0WEMRSgjRhEAQDaXnSlPN5cyx8cL/VVXnvxQHRqArSqBQuueEahUL4qIi5PKY5VBKD9GEQBAPh/4tBIcUF5snLTUF+1oAfQSk49dfXBhcLqj9Xr9VsiYpEiAO3LIAoAwENESs/JU/4fpb7KxaWB9U9SBGhmAwPR2dMz9hdbt+bjEfn5KYXv0gBocwZRAAAeVqQYSJP1NYN9lfeXSuv3VQRoNr29V/Ru3Lj65pTSv0SkQxQBICWDKAAAjyJS2iuleHfcX183VKy8KiIyVYBGt3Dh6icXCuV/y/PaNSnFsxUB4LcZRAEAeGyRuvOIrwz1V79fKq5/oSBAIxoYuHa/3t7Vf1uvx5qIOEMRAB6OQRQAgO0WES+MyL9fKk58+ey+jd2KAA3y2JT19o6VNm7csi7P87+JiHmqAPBIDKIAAOygyCLS0qlseu1gceLty5cbHoDZs2BB+UWFwuof5HlamVLMVwSAx2IQBQBg50TslyJ9+L67qrcP9lf6BQH2pN7e8lGFQvnCej1dn1KcoAgA26tLAgAAdkWkeFLK02WlYuXarKvzvJWXHvETVYDdZenSa/e6664H3hwRfxMR+ygCwI5yQhQAgBkREYW8Vr+pVJz49LIzK4cqAsy0QmH16XfdteWOiPyDxlAAdpZBFACAmRPRGZHe+ODWGB/qn1g+PBzekQTsspNOuvx5hcLYtyPySyPiaEUA2BUGUQAAZlxEOijP0yfvvLn6k8HFEycpAuyMU0654rCenvJna7X6jyLSnygCwEwwiAIAsNtExNNTPf37YLGyemjxxuMUAbbHsmU3zuntXX3etm318ZTidRGuXQGYOZ5UAADY/SJOjXz6tlJf9e+Xv/qeAwQBHsmCBZe/bHy8elue5x+PiAMVAWCmGUQBANgjImJOpPxt922ZHB/qW3/28HB4LQr8f4sWlZ/W0zP2zXq9/s2IcKIcgN3Gi1AAAPaoiDg8T/Uv3nlz5calxcpLFIH21t9/7UGFQvmjU1Pp1pTSyxQBYHcziAIAMCsi0vNrEd8Z7Kt8dWig8kRFoL0MDERnb2/5tffdt2U8It6cUnSpAsCeYBAFAGCWxZn5VNwx2Fd977JllX30gNa3cGG5Z9Om8k15HhekFIcqAsCeZBAFAGD2Rdo7pXx464ZYO1Rc/0pBoDUtWnTVkwqF8sW1WlwbkZ6jCACzwVsSAABoHJEen6f610vFiXNTZG8aGeu+URRofosWXbXv1NTUX09NTb0lpdhLEQBmkxOiAAA0nIh0YqT0w1Jf5QtLB+4+UhFo1n/LkfX0lF89PT25LqV4lzEUgEZgEAUAoEFFFileU5+qrRssVt8yPBBzNYHmUShc/sLe3tXfTykuikjdigDQKAyiAAA0tIjYP0X+kTunqmuGFq//U0WgsZ100r93FwrlFRH59yPihYoA0Gh8higAAE0hIo6Jer1cKk58q6Or47wLL53/U1WgcSxdeu1e//3fW86r1SbfFRH7KgJAo3JCFACAphKRFtan48elYuUTrxn41eMUgdnX21te/ItfbL49z+PvjKEANDqDKAAATSi6IuLcqakt44P91ddfPBCdmsCet2DBN5/T01O+Ns/jGymlP1AEgGZgEAUAoGlFpMelPP9MebJ6y1Bxw0JFYM847bTyoYVC+TN5Pn1TStGjCADNxCAKAEDTixTPzKN29WCx8o0l/RuOUQR2j2XLbpxTKJTP3bw5xiPi9RHJ6WwAmo5BFACA1hGxuB61NaW+yofO7tu4vyAwcwqF1SevW1f9SUR8IqV0kCIANCuDKAAArSXS3Ejxjuk0vW5ocXVJRGSiwM4rFL751EKhfHlEfmVK8TRFAGh2BlEAAFpSpDgyr+crhvqrPxwsbjhREdgxCxdefWBPz+qPRNRujYiXKwJAqzCIAgDQ0iLiD1PUrh/sq4ycc/o9j1cEHt3wcHT09pbPqdW2jaeUvyWlmKMKAK3EIAoAQJuIwcna5NpSX+Vd5w/E3nrA7ysUxl563XWrf5Tn8fmU4jBFAGhFBlEAANpGpNgnUnxg41T19qFi9RWKwK/19l5+dKEw9q8R6bqU4nmKANDKuiQAAKDtRBydp7hksFj5Tkd0nbdy7PCbRaEdLVp01b7T09Nvy/P8bSmlvRQBoB04IQoAQPuK+JPIajeW+iqfKy1ef7ggtM+vfmSFQvlV09NTayPy96QUxlAA2oZBFACAthYRHZFiWeT5ulKxcv6yZb5Ahta2YMHYCYXC6usj4isRcZQiALQbgygAAKSUUsSBEfGxBzdUbhvqr54iCK3m5JOvnF8olL9Ur2c/SClepAgA7cpniAIAwG+JSMdF5FeU+ipXds5J56+4tPsOVWhmp5xyxbwHH8zPm5yceldKaT9FAGh3TogCAMDDiBQvq02nW0vFyseW9t97kCI0o0Lh8uK2bfU1KeUfTsZQAEgpGUQBAOBRRFdEnF/LHxwv9VeWXTwQnZrQDBYuvPzZhcLYNRH1VRHxZEUA4DcMogAA8Jji0Mjjc+XJyk1L+6s9etCoFiz41iGFQvnT9Xr95ojUqwgA/D6DKAAAbKdI6Tm1PL92sFi5pDSw/kmK0CiGh6/t6u1dvbxef3A8It4YkZxmBoBHYBAFAIAdFfGKNFlfU+qvfKBUWr+vIMymQmH1ydddt+UneZ5/MqU4WBEAeHQGUQAA2AmR0l6Rx7vi/vq6of7KYERkqrAnnXRS+dhCoTwakV+ZUjxdEQDYPgZRAADYFZG68zxGhvqr3y8V179QEHa3U0654oBCofwPtVrcFhF9igDAjjGIAgDADIiIF0bk39y+0HQAACAASURBVB/sq6w4u29jtyLMtOHh6CgUVp+9bVttPCLeGpHmqgIAO84gCgAAMyaylGLJVDa9ttRfecfy5TFPE2bCggWrX3LddeUbI/IvRqTDFQGAnWcQBQCAmRaxX+Txofvuqt4+VKwsFoSdtXBh+Yk9PeWv1ev5d1JKz1cEAHZdlwQAALB7RIonRaRvlIqVa7OuzvNWXnrET1Rhe5x2WnmfBx5Ib6vV4m0ppb0VAYCZ44QoAADsZhFRyGv1mwaLE/+87MzKoYrwaBYsWP3nmzentXke703GUACYcQZRAADYEyI6U6Q3PLg1xkvFyrnDw+HdWjzESSdd/oeFQvn6ej3/WkrxeEUAYPcwiAIAwB4UkQ6KiE/ceXP1J6Vi5WRFePnLLz+yUCh/cXo6/2FEnKgIAOxe/lcaAABmQUQ8PaV0Zak4Uc465r5l5WWHrVOlvQwM/HTupk0/f9PWrfV3p5T2VwQA9gwnRAEAYBZFpNMin75tqDjxkeWvvucARdpDobC6b9Omn6+JiH9IxlAA2KMMogAAMMsiYk4e6S33bZkcL/VPvGZ4OLxOb1GFwpXP7OkpXx2Rj0bEMYoAwJ7nhRYAADSIiDg88vSFO2+u3Li0WHmJIq3j5JOvfFxPT/lTKU3dklIsVAQAZo9BFAAAGkxEen4t4jul4sTXhwYqT1SkeQ0PX9vV01N+49TU9HhK8ZcRqVMVAJhdBlEAAGhQEemV+VTcMdQ/MbxsWWUfRZrLggWXn/Ttb2/+cUrx6Yh4nCIA0BgMogAA0Mgi7Z3n6b1bN8TaUt/6Pxek8Z188pVPKRTGVtXr9X+PSM9UBAAaS5cEAADQBCI9PlL9a6XixPIU2ZtGxrpvFKWx9PV9b/8tW375N1NTU+dHpLmKAEBjckIUAACaSEQ6MVL6Yal/4otLB+4+UpFGuE8i6+0tn7V58y/H8zy93RgKAI3NIAoAAE0nssjT2fWp2rqhvupbhwfCADdLCoUr/ri3d/UNeR5fikhHKAIAjc8gCgAATSoi9s9T/g93TlXXLOlb36fInrNo0VVPKBTGvhpR+15EvEARAGgePkMUAACaXEQcU0/10VJx4lsdXR3nXXjp/J+qsnsMDPzn3ps2bXrr9PTU2yPSPooAQPNxQhQAAFpERFpYn44fl4rVT75m4FePU2Rm9fSUX7lp0z13RKT3RYQxFACalEEUAABaSnRF5MunpraMl4rVN148EJ2a7Jre3vLxPT3l76YUX4+IJyoCAM3NIAo0vXld2daUZb9SAgB+IyI9LiL/dHmyestQccNCRXbcggXfOqKnp/z5iLghpXixIgDQGgyiQNP7wteO2DBnbnZsR5a+nGVZrggA/EakeGYetatLxcplS/o3HKPIYxsY+Onc3t6xt+T5g+tSinMiXDcBQCvxxA60hC9fMn/jytGjzu7Mul6Qsuw7igDAQ0VEfz1qa4aK1Q+f3bdxf0Ue3oIFl//pxo0/vy3P00ci4gBFAKD1GESBlrJi1eE/vmi0+6UdWfbqlGV3KQIAvyXS3Dzyt0+n6XWl/urSiMhE+bUFC654RqFQvqper5dTimMVAYDWZRAFWtLK0e6vdh08/2lZlt6fpWyrIgDwG5HiyMjzLw/1V384WNxwYju3OPXU1QcXCuVP1Ov1WyJikd8OAGh9BlGgZa1YkW0bGT3qvdm8ucellC5WBAAeKiL+MEXt+lKx8pVzTr/n8e30sw8MRGehMPaGrVvz8Yg4N6Xo8hsBAO3BIAq0vJWXHDpx0dhRr+zo7DoxpewGRQDgoSLiVZO1ybVD/dV3nz8Qe7f6z1solBds3Lj6xxHpnyPSIX4DAKC9GESBtrHysiO+PzI6/4UdWfbaLGXrFQGA34gU++R5/v6NU9XbS33VgVb8GRcuXP3knp7yNyLiWynFs9zrANCeDKJAW8myLFaOdn9h/3ldx2Yp+2iW0qQqAPBbIo6OlF88WKx8e6jv7ue3wo80MHDtfj095b+r12NNSrHYnQwA7c0gCrSlz1xy+JaRse63zJnT9YwspdWKAMDviPiTyGo3loqVC0qL1x/enD9CZD09q5ds3LhlXUrx1xExzx0LABhEgbb2pUuP+PnI2FGndXZ0Lsyy7DZFAOA3IqIjIl4beb5uqK/y5mXLYk6z3PYFC8ovKhRW/yClfEVKMd+9CQD8D4MoQErpwlVHXnPa3PnP60jZeVmWfqkIAPyWiAPzFB99cEPltiV91VMb+ab29paPKhTKF9Xr6fqU4gR3HgDwuwyiAP/Pn12S1VeOdX9iv333fUqWZf+SUlZTBQB+IyIdV0/56lJf5ZtLz6g8rZFu29Kl1+5VKKx+d0RaFxGvTiky9xgA8HAMogC/47NfPejekdHu18/JsudmKbtaEQB4qEjxstp0urXUV/n40v57D5rt29Pbu3rgrru23BGRvz8i9nEPAQCPxiAK8Ai+PDp/zchY96KsMzsjS+lnigDAb4uuSHFeLX9wvNRXed3FA9G5p2/BSSdd/rxCYezbeZ5fHBFHu08AgO1hEAV4DCOXdX/jmHndz+zIsr/JsmyzIgDw2+LQSPHZ8mTlpqX91Z498TeecsoVhxUK5QtqtfqPItKfuA8AgB1hEAXYDsOXZFMrR7s/NG+fzmOzLFuZUhaqAMBvRErPqeX5tcvOrBy6u/+ubdtqn4+I10a4ngEAdpwXEAA74AtfO2LDyGj3ks6OdEJK2fWKAMBDPbitY7dfY0RkrmMAgJ3mhQTATrhwVfePLhrrfnHWkQ1lWfo/igAAAEBzMIgC7IKRVd0jex+RPS3Lsg+mLD2oCAAAADQ2gyjALrrggu6tI6Pd7+qYmz0ty7JLFQEAAIDGZRAFmCErL+n+75HR7ld0dGYvSSm7SREAAABoPAZRgBm28rLu7z3l+PkndGTZ67Isu1sRAAAAaBwGUYDdYHg4y1eOdn/uoP3mHZul7J9SlqZUAQAAgNlnEAXYjT71lUPuHxnrPr+ra86zspRdqQgAAADMLoMowB6w4tLDx0fGuk/JsuxlWZbdrggAAADMDoMowB40Mtp91THPn/+cjpT9VUrpXkUAAABgzzKIAuxhw8NZbeVY98c6Ovc/Nsuyz6csq6sCAAAAe4ZBFGCWrLzsgHtGRruXdaWO52cp/YciAAAAsPsZRAFm2YrRI28dGTtqQZY6/ixL2f9WBAAAAHYfgyhAgxgZm3/JQUfPf3pHR8d7UpZtUQQAAABmnkEUoIF86lPZ5MpV8z+wT+ec47Is+0pKWagCAAAAM8cgCtCALvjGYdWR0e7Bjo7sj1JK/6UIAAAAzAyDKEADW7lq/g9HRrtPzDo6zkpZqigCAAAAu8YgCtDgsiyLkVXzV2QHdB6XZdmHs5S2qQIAAAA7xyAK0CRGRo58YGS0+x2dHR1Pz7JslSIAAACw4wyiAE1mxar5vxgZ7V7c1dFRyFK6RREAAADYfgZRgCa1YtX86445vvv4jqzjjSllmxQBAACAx2YQBWhiw8NZvnJ0/me6OvY+Nss6PpVl2bQqAAAA8MgMogAtYMWqg+8bGZ1/bmdXek6WsqsVAQAAgIdnEAVoISsu7b5jZKx7UZZ1nJplaZ0iAAAA8FAGUYAWNDI6/4q9j+h+VkfqeFvKsl8pAgAAAL9mEAVoURdckE2vHJv/kTlzs2OzjvSlLMtyVQAAAGh3BlGAFvflS+ZvHFl11Gs6s64XpCz7jiIAAAC0M4MoQJtYserwH1802v3SLHWembLsLkUAAABoRwZRgDYzMnbk17sOnv+0jo70vixlWxUBAACgnRhEAdrQihXZtpWrjhrO5s09LsvS1xUBAACgXRhEAdrYyksOnRgZPerMjs6uE1PKblAEAACAVmcQBSCtvOyI74+Mzn9h1pHOyVK2XhEAAABalUEUgJRSSlmWxciqo744J805riNL/5ilNKkKAAAArcYgCsBDfGnssM0rR496a0dH1zOzLJUVAQAAoJUYRAF4WBeuOuLOkdGj+jo7OhdmWXabIgAAALQCgygAj+rCVUdec9rc+c/LsuxNWZZ+qQgAAADNzCAKwGP6s0uy+sho9yf323ffp6QsfSalrKYKAAAAzcggCsB2++xXD7r3otGj3jgny56bpexqRQAAAGg2BlEAdtiXR+evGRnrXtSRZadnKf1MEQAAAJqFQRSAnbZytPuyY+Z1P7Mjy96RZdlmRQAAAGh0BlEAdsnwJdnUytHuD8/bp/PYlLILU8pCFQAAABqVQRSAGfGFrx2x4aKx7qWdHemElLLrFQEAAKARGUQBmFEXrur+0UVj3S9OKRvMsvR/FAEAAKCRGEQB2C0uGuv+yt5HZE/LOrK/TVl6UBEAAAAagUEUgN3mggu6t46s6n53x9zsaSnL/k0RAAAAZptBFIDdbuUl3f990Wj3QEdn9pKUspsUAQAAYLYYRAHYY1Ze1v29pxw//4SsI/uLLMvuVgQAAIA9zSAKwB41PJzlI6u6Lzhov3nHZln28ZSlKVUAAADYUwyiAMyKT33lkPtHRrvf3NU151lZll2hCAAAAHuCQRSAWbXi0sPHR0a7T82y7GVZlt2uCAAAALuTQRSAhjAy2n3VMc+f/5wsy96cUrpXEQAAAHYHgygADWN4OKuNjHZ/vKNz/2NTln0uZVldFQAAAGaSQRSAhrPysgPuuWi0+3VdqeP5WUr/oQgAAAAzxSAKQMNaMXrkrSNjRy3oyDoGspT9b0UAAADYVQZRABreytH5/3bQ0fOfnmXZu1KWbVEEAACAnWUQBaApfOpT2eTIaPcH9+mcc1xK2UUpZaEKAAAAO8ogCkBTueAbh1UvGusudXRkf5RS+i9FAAAA2BEGUQCa0spV8384Mtp9Yso6lqQsVRQBAABgexhEAWhaWZbFRaPzV2YHdB6XpezvspS2qQIAAMCjMYgC0PRGRo58YGSs+52dHR1PT1l2mSIAAAA8EoMoAC1jxar5v7hotPv0ro6OQpbSLYoAAADwuwyiALScFavmX3fM8d3Hp46ON6SUbVIEAACA/2EQBaAlDQ9n+UWr5n+2q2PvY7Ms+2SWZdOqAAAAYBCF/8venb/ZXdb3H7/fn3NmAggoQiBz5uqFl5IQARWkuCAtUBcUMjNJbLDqTNg0dcO1WqlLx13rVkvrEhGSOeNSpiQzQ5GyZM64ULcqKoqyaIuaM2HflyQz5/7+0PZbWxcIZJkzn8fjHyDv1z3XlcmTkwwwp60Z3eeO+ljtdZVqenJEXGIRAACAchNEASiFNRfUflofqz0/ojgpIl1rEQAAgHISRAEolfpY15d3P6B2WIrizSniTosAAACUiyAKQOmsXh1bh8e6PtLRGQtTxDkR0bIKAABAOQiiAJTWeSNdNw+P1V5eieqRKeKrFgEAAJj7BFEASm/N6P7fHx6rHVtE5c9SxA0WAQAAmLsEUQD4L0NjC/6xuk/X4pSKwUhxn0UAAADmHkEUAH7NmjXxwPB417vmVecdnFJ80SIAAABziyAKAL/FOev2/dXweO0lRaV6dErxHYsAAADMDYIoAPweQ+sP+EZ9rOvpRaqcESk2WQQAAKC9CaIA8CAiIg+NLzi3I3UsilT8TaS02SoAAADtSRAFgIfo3PH5d9fHu/6yKKqHpkjjFgEAAGg/gigAbKO1owf8bHisu69SVJ4TET+yCAAAQPsQRAHgYVo7umBDT2fX4alIZ0ak2ywCAAAw+wmiAPAInDwSM8Oj3X/f2bnnwoj0DynFtFUAAABmL0EUALaDz408+rb6WPdrOiKeEikuswgAAMDsJIgCwHZ03ljX1fXx2vOKSloaKV1vEQAAgNlFEAWAHWBofffYE+bVDk2R3hoRd1sEAABgdhBEAWAHGRyJLcNj3R+at0dlYURak1JkqwAAAOxagigA7GDnfPGAG+tj3adVinRUSnGFRQAAAHYdQRQAdpK1o7XvDo/XjikiXhqRfmkRAACAnU8QBYCdbGis9oXdD4jFKcV7UqT7LQIAALDzCKIAsAusXl27b3i89s6iMxanlM63CAAAwM4hiALALjQ0UvvF8Hj3i6oRfxyRrrQIAADAjiWIAsAssGas9rUnHFH7w0ixKiJusggAAMCOIYgCwCwxOBit+njts4/Zc97CSPHRFGmLVQAAALYvQRQAZpmzP7/vXfXx2l9Uqx2HpYiLLAIAALD9CKIAMEutuWD/64bHaksi4vkR8ROLAAAAPHKCKADMcvWx2iVPOKLryUWK16eUbrcIAADAwyeIAkAbGByM6aHx2ieKyl4LI+LTKWLGKgAAANtOEAWANjK0fu9b62O1V1ZTcURENCwCAACwbQRRAGhDa8YWXFUfq/1JVOKFkeLfLQIAAPDQCKIA0Mbq62vrHnNg1xOLiLeliHssAgAA8PsJogDQ5s4+OzYPjdXev0elY1FE1FOKbBUAAIDfThAFgDli9br5U/Wx2sqiiGeklL5pEQAAgN8kiALAHDM02vXt+ljt6ChiZYrUtAgAAMD/EEQBYA6KiFwfrdVj78qiFPH+SOkBqwAAAAiiADCn1esL7h0eq72tUhRPjIgLLAIAAJSdIAoAJbBmtOs/6mO1P60WxfGR0g8sAgAAlJUgCgAlsma0a7JnXu3ISPHKlOIWiwAAAGUjiAJAyZw8EjP18dqnq8XuCyPF30bEVqsAAABlIYgCQEmtGd3njvp47Q2VanpypPgXiwAAAGUgiAJAya25oPbT+njtBZVULIlI11oEAACYywRRACCllNLa8a6Ldj+gdlgUxV+kiDstAgAAzEWCKADw/61eHVvro10f7eiMhRHx2YhoWQUAAJhLBFEA4DecN9J1c32stqoS1SNTxFctAgAAzBWCKADwO60Z3f/7w2O1YytF8aIUcYNFAACAdieIAgAPau1o1/nVfboWF0Xxzkhxn0UAAIB2JYgCAA/JmjXxwNBo13vmVecdHBFfsAgAANCOBFEAYJucs27fX9XHai8tKtWjI+LfLAIAALQTQRQAeFiG1h/wjaHRrqdFUZwWKTZZBAAAaAeCKADwsEVEro92relIHYuKKD4UKW22CgAAMJsJogDAI3bu+Py7h8a63loU1UMjxZhFAACA2apqAgBge1k7esDPUkpLT1vefKo1AACA2cgnRAGA7e68dbXvWQEAAJiNBFEAAAAAoDQEUQAAAACgNARRAAAAAKA0BFEAAAAAoDQEUQAAAACgNARRAAAAAKA0BFEAAAAAoDQEUQAAAACgNARRAAAAAKA0BFEAAAAAoDQEUQAAAACgNARRAAAAAKA0BFEAAAAAoDQEUQCgfeXUMgIA7HqtVsvvyUDbEEQBgPZVKZ6bIm0wBADsMndExFsWLaqdawqgXVRNAAC0q/r6BT9KKT1noHdqRU75gynlx1sFAHa8iNRKKdbsuWf6ywsv7Lml0bAJ0D58QhQAaHv18a6RfQ7sOiRSvCNF3GMRANiRYjKleGqj0XPGhRf23GIPoN34hCgAMCecfXZsTim999QVN50zs2X6Izmnl6SUwzIAsN38R6VSnLVhw5IvmQJoZz4hCgDMKWtG9t9UH6v1V6vx9Ij0DYsAwCMTEfemFIOPe9xeTxRDgbnAJ0QBgDlpzbqu76SUjl65bOqUPNN6X06p2yoAsC0ip5T+sVqd96bLLnte0x7AXOETogDAnDa0vmvt7gtiUUR8MFJ6wCIA8OAi4tsRxTMnJ3teLIYCc41PiAIAc97q1bX7UkpnnbG8+enNM+njKedlVgGA3xSRmikV75iYOOm8iMgWAeYinxAFAErjc+tqNwyP1ZZXUhybIn3fIgDwnyJic0R8eL/99jq40VhyrhgKzGWCKABQOmvHa1896IjakUUUr44UN1sEgDKLiPGOjs4nNho9bxkZOf4eiwBznb8yDwCU0uBgtFJKn1y14rbP379l83tSyq/IOXdYBoCyiEg/LIri9Rs2LGlYAygTnxAFAEpt9chj76yPdb02io7DUsSlFgFg7otbiiLO3G+/nqeKoUAZ+YQoAEBKaWj9/GtTSiesXDr1gtzKH8spL7YKAHNLTEekzzz60Xu+fXT0+DvsAZSVT4gCAPyaodGui3df0PXkIhVviUj+sAjAHBGXd3amJzUaPa8RQ4Gy8wlRAID/Y/Xq2JpS+vCqFzfPu//e9MEU6bScs/+RDEDbiYhrU4o3NhpLLrIGwH/yjT0AwO+w+ou1W+rjtZflovLUFDFpEQDaRUTcmVLx1oULuw4TQwH+N58QBQB4EMPrD/hBSun4gd5Nf5ai9YGc8+OsAsBsFJFaKcXa3Xar/OXFF5948+SkTQD+L58QBQB4iOrjC75U2afriSkVg5HiXosAMJtEpK9Wq5UjG42e0y+++MSbLQLw2/mEKADANlizJh5IKb1r5YpbzklbNn8k53hRSjksA8CuEhE3RBRnTUyc9EVrADw4nxAFAHgYhkb221gf635xtVocHRHftggAO1tE3BdRvPvAA/dcLIYCPHQ+IQoA8AisWbfgmznnZ5zSd+NprWi9N+XcZRUAdrSI+MeI9KaJiSUbrQGwbQRRAIBH/ofSnFI691Urbjr/ri1b3xk5vTanNM8yAOyA33W+U6mk123Y0PMNWwA8PIIoAMB28smR/e9JKb1lYMWmT8WWmU/knHqsAsD2EZuKIr1jw4Yln/uv/xEHwMPk3xAFANjO6iML/r0+1t0blcqzU8RVFgHg4YqIzSkVH5k/f8+FExM954ihAI+cIAoAsIPU1y+Y6O3sOqIo0msj0q0WAWAb/XOlEodMTi5588jI8feYA2D78FfmAQB2oJNHYialdPYrX3LH8N333vvelGNVStn3YAD8HvGjiPT6RqNngy0Atj+fEAUA2Ak+9YXH3D481v3qqKQnp0j+gAvAb4hIt0bE6+bPX3K4GAqw4/h0AgDATlRfX/tJSuk5K5dtWtKamflYSmmhVQDKLqYjYvUee6S3X3TRktvtAbBj+YQoAMAuMLR+wT8fNK92WBFxVkpxl0UAyikiTVQqlac0GkteLYYC7ByCKADQtvp7m2tO77354Hb99Q+OxJahsdoHo1IsjEhrIqLlVQHKIq4riuhtNHqfvWHDiVfbA2DnEUQBgPb9o2SkF2yNrVcN9E59aNWK2x7drnfU1y+4qT7WfVq1ko6KFF/3sgBz+feuuKso4qz58x9/2MREz4UWAdj5BFEAoK3lnDtyar3l/s0PXNffN3Xa4GBu2+9vzltX+159vPZHKUV/pPiF1wWYOyJSKyLWFsXuiyYmej44MnLoFqsA7BqCKAAwJ+SU56fcOvf6K5vfHVg2dWw73zI8Xvv8fvO6FqcU74kU93ldgHYXX4+IoxqNnlM3bHjOjfYA2LUEUQBgbsnp8DzTmuzvbX7hjOXNA9v1jI+PxP3D47V3VmPe4kgx4mEB2k9E/CKl6J+c7PmjiYme71kEYHYQRAGAOSq/eMt0/ulA39Q7BwY2PapdrzhvbN9f1sdrJ1eq6ZiI+K53BZj9IuK+iHjPfvvtu3hysufzFgGYXQRRAGDOyintlnPrXenOmWtW9m16Uc452vWWteu6r3jCEV1PixSrUgp/3RJgloqIkY6OzsWNRs87R0aOvt8iALOPIAoAzHk5pe5WnvnSyqXNK05dPnVUu94xOBit+njts52pY2Eq4mMpkh/IATBLRMR3I6rHNBo9J1966Qm/tAjA7CWIAgClkXN65vR0/lZ/X/Ozq5bf3NWud5w7Pv/u4dHam1Jnx6ER8WUvC7DrRKQbiyJWTUwsOarROPEKiwDMfoIoAFAyOVLOL7tvZuu1/X1Tf3HmmXleu14yPLL/9fWx2kmpkp6XIq72tgA7T0TaEhEf22uvxy6cmOj5bERkqwC0B0EUACinnPdMufXh22+Yunrlsk1L2vmU4fXdlx10RNdToog3pJRu97gAO1ZEXNTZ2Xloo9HzpvHxY+62CEB7EUQBgJLLj2/NzFzY37fx8oFlmw5r1ysGB2O6Plr726Ky18IU8ZkUMeNtAbaviPTjSqXyvEajZ8kllzz/eosAtCdBFAAgpZRyenZutb4/0Nf8xMpld+3brmcMrd/71uGx2iuiKA5PkTZ4WIBHLiJuSylef+yxex2+YcNJl1kEoL0JogAA/y3nSs75ta2Zu6/rXzr1ysHBXG3XU+rrF/xoeKz7OamIP00pfu5xAbZdRJpJKT7d2dmxcHKy5xODg8dPWwWg/QmiAAC/aZ/Uan3y+iunfrCyd+r4dj5keLR2wT4Hdh0SEW9PEfd4WoCHKi5PqfMpk5M9r7zkkuffZg+AuUMQBQD4XXI+pJVaEwN9G8f7V9x0ULuecfbZsbk+VntftbO6MCLqKflJyAC/S0T8LKJ44eRkz3Mbjef/2CIAc48gCgDwIHJOPWnL1h8P9Dbff+ZLb927Xe9YM7L/pvpYbWW1Gk+PSN/wsgD/y90Rxdv22+/xhzQaS9aZA2DuEkQBAB6KnDpzymfdfvfma/v7plYODua2/T5qzbqu79THuo9OUZwSKW30uEC5RY6IoT32qCxqNJa8f2Tk0C02AZjbBFEAgG2SD0i5tfZnV059+5TlG5/VzpcMj3UN7b4gFkWKD0RKD3hboGwi4l87OoqnNRo9p3z5yydtsghAOQiiAAAPQ875yJnp9PX+3mb9tL5b/6Bd71i9unZffbz2V53VWBwp/BVRoCTiV5VKMdBo9DzrsstO+jd7AJSLIAoA8Ijk/q3pgWsG+ppve8OKvHu7XvG5dbUb6uO1F1ZSHJsifd+7AnPU/UVRvG+vvdLBGzYsGTYHQDkJogAAj1ROu+ec33vLluY1K/um/rSdT1k7XvvqQUfUjkxF8apIcbPHBeaO+KdqNRZPTCx5+4UX9txnD4DyEkQBALaTnNMftHJrZKC3+bXTljef2q53DA5Ga3i061O7z9ttYSriExGx1esCbezKSqX448nJnhWXX97zC3MAIIgCAGxnOeVjPMbkLwAAIABJREFUpmfSd/r7mp9+2YtvPKBd71g98tg7h0drr+/IHU+KiEu8LNBOItJNKaVXHHdczx9u2LDkaxYB4L8JogAAO0DOuUg5//kD985cO9DXfMPgitzZrrecOz7/mvpY7flFUZyYIl3jdYHZLCJtiSg+vttu1YWTk72fGRyMllUA+HWCKADADpX3zjl/7PrNzR+tXDr1gna+ZGi06+I9Dqg9KYriLyLSHd4WmH3i4mo1Dms0lrzx4otPvMseAPw2gigAwM6xsNVqfbm/r3nJwLLmE9v1iNWrY2t9tOuju+8RC1PEORE+eQXMBvGTiOL5k5M9J152Wc919gDg9xFEAQB2ppyfl2fSD/uXNj/6ypfcsU+7nrH6i7VbhsdqL89F5amR4iseFtg14vaI9MbjjtvzyY3GEv/WMQAPiSAKALDT5Wpq5Tfec++91w0sba46f0WutOslw+sP+EF9vHZcpSheFBH/4W2BnSEizUQUn6lUdl/YaPR+fHDw+GmrAPBQCaIAALtIzmnf3MqfGd8ydeXAsk1/0s63rB3tOr+yT9cTI4q/jhT3el1gR4lIE5VK5YhGY8krNmx4zq0WAWBbCaIAALtazk/KMzMbBnqb55/+whsf365nrFkTD9THut4d8zoPTim+mFJkjwtsLxHx80olVjQavc++/PKTrrIIAA+XIAoAMEvklFds3Tp99cDS5nteteKmPdv1jqGR/TYOj9deUq0WR0fEt70s8Ajdk1J6+267VQ7ZsKHnn8wBwCMliAIAzCI5pXm5ld9+15bpa/t7my/NOUe73rJm3YJvDo12PSNFcXqKmPK6wLaJnFIanjevc9HkZO/7Lr74xM02AWB7EEQBAGajnLtSysMrl05989Tlm57RrmdERB4e6zpv787qokjF30RKggbwUHyzUslPn5zsHbjkkuf7HyoAbFeCKADALJZzftr0dOtf+3uba1auuKW7Xe/45Mj+99THu/6yo6N6SKQY87LAbxMRGyPilEaj5+gNG3q/YxEAdgRBFABg1suRUj4lb95yzcq+5ltPPTXv1q6XnHvBAT+vj9eWRqXy7BThh6IA/yUeiEjv7+joPLjR6BmK8EPZANhxBFEAgDaRU35UK+cPzNw+9ZP+pc2l7XxLff2Cid7OriNSkc6MSLd6XSiviLSuKIrFjUbv2y699IR7LQLAjiaIAgC0mZzz41Irrx/obU72L7vxKe16x8kjMTM82v33ez7qUQuLVPx9SjHtdaFM4vsR6bhGo/eFExMn3WAPAHYWQRQAoE3llI+N1sz3+vs2/sNpK6bmt+sdn/rCY24fGu86MyrpySniUi8Lc13cXBTxyuOOW3Jko9H7FXsAsLMJogAAbSznXKScXjW9pXXtyqUbz1y1Kne06y319bWfDI/VTigqaWlK6TqvC3NNbC2K+ES1utvCiYmeTw8ORssmAOwKgigAwByQc3pMq5X+7r4bm1edsrT5vHa+ZWh999hB82qHRZH+MqW4y+vCnPAvEdUnTUz0vP7yy597pzkA2JUEUQCAuSSng2da+ZKBvuZFp/fefHC7njE4Elvqo91/E5ViYRHpvAifJIP2FD8tinTi5GTvCxqNF1xjDwBmA0EUAGAOyjmfuDW2XtXft/FvVq247dHtekd9/YKbhsa6T69W0lGR4uteFtrGHRHxpkWLup48MdF7sTkAmE0EUQCAOSrn3JFyevP9mx+4bmDpxjMGB3Pbfu933rra9+rjtT+qFOklkeIXXhdmp4g0ExGf3WuvWNho9Hxs9eo/3GoVAGYbQRQAYI7LKc/PrXTO9Vc2vzuwbOrYdr5l7Wj3F/eb17U4Ir07UtzndWE2icmi6Hhqo9Gz6sILe26xBwCzlSAKAFAWOR2eZ1qTA30bv3jG8uaB7XrGx0fi/vpY919XY97ilNL5HhZ2uf8oiuLkycme4zdseMEPzQHAbCeIAgCUTM7pz7ZM55+uXLpxcGBg06Pa9Y7zxvb95fB494sq1XRMRHzXy8LOFRH3RhTvfNzj9nrixMSSEYsA0C4EUQCAEsop7dZqpb9Od85cM9C76c9yztGut6xd133FE47oeloR8fKU4kavCzta5Ij4fLU6b1GjseQ9a9Yc/4BNAGgngigAQInllLpzmvniyqXNK05dPnVUu94xOBitobHaOfvsNW9RpPhoirTF68L2FxHfiiie2Wj09F922fOaFgGgHQmiAACknNMzp6fztwaWbvzcquU3d7XrHWd/ft+76uO1v0idHYdGSv/sZWH7iEjNlIpTJyaWPLPROOlbFgGgnQmiAAD8lxy5lU6/b2brtSt7p9585pl5XrteMjyy//X18e6eVEnPSxFXe1t4uOKBlOKDHR3zFk1OLlkbEdkmALQ7QRQAgP8t5z1bqfU3t98wdfVA36aedj5leH33ZQcd0fWUIsXrU0q3e1zYFrG+s7PzkMnJnrMuvfSEe+0BwFwhiAIA8Dvkx+c8M97ft/HygWWbDmvXKwYHY3povPaJorLXwiLFp1LEjLeF3y0i/bBajeMnJ3uWX3rpCf9uEQDmGkEUAIDfL6dn51br+wN9U3+3ctld+7brGUPr9751aLz2qiiKw1OkDR4W/q+4JSK9er/9ep56+eU9k/YAYK4SRAEAeHA5V3Jundmaufu6lX1TrxoczNV2PaW+fsGPhse6nxOVeGFK8XOPCzEdEX/3mMfsubDR6P3kyIhPUQMwtwmiAABsi31aufUP11859YP+ZRuf286H1NfX1u1zYNchRcTbUsQ9npYyiohLOzvTkxqNnteNjh5/h0UAKANBFACAbZfzIWkmXTrQ11zfv+Kmg9r1jLPPjs1DY7X371HpWBQRQyn5CdqUQ0RcG1EsaTR6Trj00p6fWgSAMhFEAQB42HLOS9OWrT8e6Gt+4MyX3rp3u96xet38qfpY7ZRqNZ4ekb7hZZmrIuLOokhvXriw67BGY8lFFgGgjARRAAAemZw6c85vvf3uzdcOLJ06dXAwt+33mGvWdX1naLT2rChiZaS00eMyV0SkVkpxzm67VRZOTPR+ZPXqP9xqFQDKShAFAGA7yQfkVuu8n1059e1Tlm98VrteERG5Plqrp0dXDo6I90VKD3hb2llE+mq1WjlycrLn5RdffOLNFgGg7ARRAAC2q5zzkTPT6esDfc3h0/pu/YN2vaNeX3Bvfaz29s5qLI6IC7ws7SYibkgp/qzR6D32sstO+r5FAOA/CaIAAOwQOeeXTufNP125dOodb1iRd2/XOz63rnZDfaz2p1EpjkuRRCVmvYi4NyL99YEH7rl4crLnHy0CAP+bIAoAwA6TU96j1Wq9+5YtzWsGeqdWtPMt9fVdXznoiNqRRcQrIoW/dswsFDkifTEiHdxo9L57zZrj/XMPAPBbCKIAAOxwOac/yKl1/kBv82unLW8+tV3vGByM1tBY7TO7z9ttYaT424jwg2mYJeI7lUp6VqPR+5KJiR4/EAwAfg9BFACAnSanfMz0TPrOQG/zMwPLNu3frnesHnnsnfXx2hs6cseTIsW/eFl2nZgqiji90Vjy9A0ber5hDwB4cIIoAAA7Vc65yCmvyjOt61b2Nt84uCJ3tust547Pv6Y+XntBURQnpkjXeF12lojYXBTpQ/Pn77loYqLnvIjIVgGAh0YQBQBgF8l7t1L+6PWbmz8a6Js6sZ0vGRrtuniPA2pPKlK8KSLd4W3ZkSLSWKUSh0xM9L51ZOT4eywCANtGEAUAYFdbmHProv6+5iUDy5pPbNcjVq+OrUPjtY9VO4tFEfHZiGh5WravuKooqs9uNHqXXn75kp/bAwAeHkEUAIDZIefn5Zn0w4He5sdf+ZI79mnXM84b6bq5PlZblYvKUyPFVzwsj1REujWleM38+UuOmJg4ccIiAPDICKIAAMwiuZpTfv0999573cq+5p+fvyJX2vWS4fUH/KA+XjsuUnFyRPyHt2XbxXRK8fd77FEsnJzs+YeRkZixCQA8coIoAACzTs5p31bOnx7fMnXlwLJNf9LOt9THu0Yq+3Q9sSiKd0aKe70uD0VEXFqpVJ4yOdlz5kUXLbndIgCw/QiiAADMXjk/Kc/MbBjoa/7T6S+88fHtesaaNfHA0GjXe2Je58ER8fmU/ERwfpe4LqLoazR6Ttiw4cSr7QEA258gCgDArJdzfuHWrdNXD/Q13/uqFTft2a53DI3st7E+VuuvVoujI+LbXpb/FhF3RcRb5s9//GGNxpJxiwDAjiOIAgDQFnJK83LOb7try/S1K5c2+3PO0a63rFm34JtDo13PiKI4LUVMed3yikitiDi3o6NzYaPR8+GRkUO3WAUAdixBFACA9pJzV6uV6yuXTn3z1OWbntGuZ0REro92rdm7s7ooIj4YKW32uGUTX4+IoxqNnjMuvfSEm+wBADuHIAoAQFvKOT9terr1rwN9zbUrV9zS3a53fHJk/3vqY7WzOjqqh0TEqJed+yLiF5VK8eLJyZ4/mpjo+Z5FAGDnEkQBAGhjOXLOK/PmLdcMLG2edeqpebd2veTcCw74eX2stiwqlWeniKu87dwTEfcVRbxrv/32Xbxhw5IvWQQAdg1BFACAtpdTflRu5ffP3D71k4FlzeXtfEt9/YKJ3s6uI4ooXh2RbvW6c0V8qaOjc/HERM/gyMjR99sDAHYdQRQAgDkj5/y4PJMvGOhtTvYvu/Ep7XrHySMxMzTW9ck9H/WohRHF2SnFtNdtTxHx3YjqMZOTPS++9NITfmkRANj1BFEAAOacnPKx0Zr53sre5idPWzE1v13v+NQXHnN7fazrtVFJT04Rl3rZ9hGRbowozpiYWHJUo3HiFRYBgNlDEAUAYE7KORetlF85vaV17cre5utWrcod7XpLfX3tJ8NjtRMiKr0ppeu87uwVkbZExIf32uuxCxuNJedGRLYKAMwugigAAHNazukxrZT/9r4bm1cN9DVPaOdb6mMLLjxoXu2wIhVvSSnu8rqzS0SMR1QPaTR63jI+fszdFgGA2UkQBQCgHHI6OOf8LwN9zYtO77354HY9Y3AktgyNd314t0dVFkWRzo2IlsfdtSLSj6vV4rmNRk/fxMSJP7MIAMxugigAAKWScz5xa2y9aqC3+ZFVK257dLvecc4XD7ixPtp9RrWSjooUX/eyO19E3FYUxWuPPXavwy+/fMnlFgGA9iCIAgBQOjnnjpzym+7f/MB1K/uaLxsczG37ffF562rfq4/X/ihS5cURyU8x3wki0kxE/ENnZ8fCiYklZw8OHj9tFQBoH4IoAACllVOe38r5s9df2fzuKb3NP27nW+rjC760X2ft4KJI74oU93ndHSUuT6nzKY1Gz2suueT5t9kDANqPIAoAADkdPpPyV/p7N/7jGcubB7brGR8fifuHRrsHqzFvcUT6kofdfiLiZxGVpZOTPc9tNJ7/Y4sAQPsSRAEA4H+cvGU6/3Sgb+O7BgY2PapdjzhvbN9f1se6X1yppmMi4rue9RG5O6Xirfvt9/hDGo2TxswBAO1PEAUAgF+TU9ot5/TOdOfMNacs3fjinHO06y1r13Vf8YQjup4WRXpZSnGj190WkSPivD32qCyanFzyoZGRQ7fYBADmBkEUAAB+i5xS90wrfWHl0uYVpy6fOqpd7xgcjFZ9tPtz++w1b1GK9OEUSdh7EBHpiog4qtHoOf3LXz5pk0UAYG4RRAEA4PfIOT1zejp/a2XfxnNXLb+5q13vOPvz+941PNb9ltTZcWhEutDL/jbxq4h4aaPRe0yjscQ/NQAAc5QgCgAADypHK6fT7pvZeu3A0o1vOfPMPK9dLxke2f/6+lh3b6WIE1LE1d42pZTS/RHFu/faKx3caPR8wRwAMLcJogAA8FDlvGdupQ/dfsPU1SuXbexr51PWjtYuPeiIrqdExOtSSreX9Ukj0vnVaixuNJb89YUX9tznixwA5j5BFAAAtll+fGsmjfb3bbx8YNmmw9r1isHBmK6P1f6uqOy1MEX6ZIqYKcsLRsT3KpXijxuN3hddfnnPL3xNA0B5CKIAAPBw5fTs3Gp9f2Xv1Nkrl921b7ueMbR+71uHx7pfHUVxeIq0YS4/WUS6qSji5cceu+SoDRuWfM0XMQCUjyAKAACPRM6VVmq9pjVz93X9Sze+ZnAwV9v1lPr6BT8aHut+ThGxPKX4+Vx6poi0JaXiI7vtVl04MdFzzuBgtHzxAkA5CaIAALB97JNa6ezrr5z6Qf+yjc9t50OGxmrr9zmw65Ai4qwUcc8ceJt/rlbjsMnJJW+++OIT7/KlCgDlJogCAMD2lPMhaSZdOtDbHO1fcdNB7XrG2WfH5qGx2gf3qHQsSinWphS5/a6InxRFnDA52dtz2WU91/niBABSEkQBAGCHyCn3pS1bfzzQO/Wh03tv3qtd71i9bv7U8Hjt1Go1nh6RvtEev+q4PSJed9xxez55YqLnUl+NAMCvE0QBAGBHyakzp9ZbtqSt1/X3TZ02OJjb9vvvNeu6vjM0WntWStEfKW2cjb/GiDQTEZ+qVHZf2Gj0/N3g4PHTvggBgP9LEAUAgB0uH5By69yfXTn17VOWb3xWu14REXl4vPb59OjKwVHEeyOlB2bPry1NVCqVIxqNnldt2PCcW33NAQC/iyAKAAA7Sc75yJnp9PWBvubnT+u79Q/a9Y56fcG99dHaOzqrsThF/NOu/LVExM+LIpY3Gr3Pvvzyk67yVQYAPBhBFAAAdrKc80um8+afDvRNvfMNK/Lu7XrH59bVbhgeq62ISnFcivT9nfyfv6co4qzddqscMjHRs95XFQDwUAmiAACwC+SU98i59a5bNk/99JSlUye38y319V1fOeiI2pFRxJ/vXu3cvOP/i3HBvHmdiyYmej548cUnbvbVBABs03cSJgAA2tVAX/PGnPP+lmBufGMeX69W0+vOW1f7njUAAHYcnxAFAIBZIKd8zPRM+k5/X/OzA8s2Cf0AADuIIAoAALNEzrlIOb8sz7SuG1g69abBFbnTKgAA25cgCgAAs07eO7daH7l+c/NHK5dtWmIPAIDtRxAFAIDZa2FrZubC/r7mJQPLmk80BwDAIyeIAgDAbJfz8/JM+mH/0ubfvvIld+xjEACAh08QBQCAtpCrqZVfd8+991430Nt8xfkrcsUmAADbThAFAIA2knPaN6f8qfEtU1cOLNv0JxYBANg2gigAALSjnJ+UZ2Y2DPQ2Lzj9hTc+3iAAAA+NIAoAAG0sp7x869bpq/v7mu971Yqb9rQIAMDvJ4gCAECbyynNSzn/1V1bpq/t75tamXMOqwAA/HaCKAAAzBU5d6XcWrty6dQ3T12+6RkGAQD4TYIoAADMMTnnp01Pt/51oK85tHLFLd0WAQD4H4IoAADMSTlyzgN585ZrBvqabzv11LybTQAABFEAAJjTcsqPyjm/d+b2qZ/0L22+0CIAQNkJogAAUAI558elVv6n/r5mo3/ZjU+xCABQVoIoAACUSc7HRWvme/19zU+venFzP4MAAGUjiAIAQMnknIuU85/ff1++bmBp8/WrVuUOqwAAZSGIAgBASeWcHpNb+eP3b5r64cqlUy+wCABQBoIoAACUXE55cavV+vJAX/Oi03tvPtgiAMBcJogCAAAppZRyziduja1X9S9tfnTVitsebREAYC4SRAEAgP8v59yRWvmN929+4LqB3ubLBwezPzMAAHOKb24AAIDfkFOen1Neff2Vze+e0tv8Y4sAAHOFIAoAAPxuOR0+k/JXBnqb55+xvHmgQQCAdieIAgAADyqnvGLLdP5pf2/z3atWNfewCADQrgRRAADgIckp7ZZSfsf9m/K1/b3Nl+acwyoAQLsRRAEAgG2SU+pOKQ+vXNq84tTlU0dZBABoJ4IoAADwsOScnjk9nb810LfxvFNX3LTAIgBAOxBEAQCARyBHzunU6S3T163sa771/BW5YhMAYDYTRAEAgEcu5z1bOX/gwukb9zUGADCbCaIAAAAAQGkIogAAAABAaQiiAAAAAEBpCKIAAAAAQGkIogAAAABAaQiiAAAAAEBpCKIAAAAAQGkIogAAAABAaQiiAAAAAEBpCKIAAAAAQGkIogAAAABAaQiiAAAAAEBpCKIAAAAAQGkIogAAAABAaQiiAAAAAEBpCKIAAAAAQGkIogAAAABAaQiiAAAAAEBpCKIAAAAAQGkIogAAAABAaQiiAAAAAEBpCKIAAAAAQGkIogAAAABAaQiiAAAAAEBpCKIAAAAAQGkIogAAAABAaQiiAAAAAEBpCKIAAAAAQGkIogAAAABAaQiiAAAAAEBpCKIAAAAAQGkIogAAAABAaQiiAAAAAEBpCKIAAAAAQGkIogAAAABAaQiiAAAAAEBpCKIAAAAAQGkIogAAAABAaQiiAAAAAEBpCKIAAAAAQGkIogAAAABAaQiiAAAAAEBpCKIAAAAAQGkIogAAAABAaQiiAAAAAEBpCKIAAAAAQGkIogAAAABAaQiiAAAAAEBpCKIAAAAAQGkIogAAAABAaQiiAAAAAEBpCKIAAAAAQGkIogAAAABAaQiiAAAAAEBpCKIAAAAAQGkIogAAAABAaQiiAAAAAEBpCKIAAAAAQGkIogAAAABAaQiiAAAAAEBpCKIAAAAAQGkIogAAAABAaQiiAAAAAEBpCKIAAAAAQGkIogAAAABAaQiiAAAAAEBpCKIAAAAAQGkIogAAAABAaQiiAAAAAEBpCKIAAAAAQGkIogAAAABAaQiiAAAAAEBpCKIAAAAAQGkIogAAAABAaQiiAAAAAEBpCKIAAAAAQGkIogAAAABAaQiiAAAAAEBpCKIAAAAAQGkIogAAAABAaQiiAAAAAEBpCKIAAAAAQGkIogAAAABAaQiiAAAAAEBpCKIAAAAAQGkIogAAAABAaQiiAAAAAEBpCKIAAAAAQGkIogAAAABAaQiiAAAAAEBpCKIAAAAAQGkIogAAAABAaQiiAAAAAEBpCKIAAAAAQGkIogAAAABAaQiiAAAAAEBpCKIAAAAAQGkIogAAAABAaQiiAAAAAEBpCKIAAAAAQGkIogAAAABAaQiiAAAAAEBpCKIAAAAAQGkIogAAAABAaQiiAAAAAEBpCKIAAAAAQGkIogAAAABAaQiiAAAAAEBpCKIAAAAAQGkIogAAAABAaQiiAAAAAEBpCKIAAAAAQGkIogAAAABAaQiiAAAAAEBpCKIAAAAAQGkIogAAAABAaQiiAAAAAEBpCKIAAAAAQGkIogAAAABAaQiiAAAAAEBpCKIAAAAAQGkIogAAAABAaQiiAAAAAEBpCKIAAAAAQGkIogAAAABAaQiiAAAAAEBpCKIAAAAAQGkIogAAAABAaQiiAAAAAEBpCKIAAAAAQGkIogAAAABAaQiiAEDbyildYwUAAGBbCKIAQNvq7ew6vijSayPSrdYAAAAeCkEUAGhbJ4/EzNBo99mV2OOgFOmTKcW0VQAAgN9HEAUA2t6a0X3uGB7rfnVU0pMjpQmLAAAAv4sgCgDMGfX1tZ/Ux7ufXVQqPSml6ywCAAD8X4IoADDnDK1f8M97LKgdWkSclVLcZREAAOC/CaIAwJy0enVsHRqrfTAqxcKUYm1EtKwCAAAIogDAnFZfv+Cm4fHaqZGrf5givmYRAAAoN0EUACiFofH9rxweq/1xStEfKX5hEQAAKCdBFAAoleHx2uf3m9e1OIp4b6S4zyIAAFAugigAUDofH4n766O1d8yrzjs4UoxYBAAAykMQBQBK65x1+/6qPl47uVJNx0TEdy0CAABznyAKAJTe2nXdVwyNdh0VRfx5SnGjRQAAYO4SRAEAUkoRkeujtdWdqWNhKuJjKdIWqwAAwNwjiAIA/Jpzx+ffPTxae1Pq7Dg0Ir5sEQAAmFsEUQCA32J4ZP/r62O1k1IlPS9S/NgiAAAwNwiiAAC/x/D67sue8NSuw6OIN0Sk2ywCAADtLUwAAPDQnLHizsdu3nLv+1NKL0s5VywCv+UPGJXKAfX1C26yBAAwW/mEKADAQ/S5kUffNjxWe0UUxeEp0gaLAABA+xFEAQC2UX39gh8Nj3U/JxXxpxHxM4sAAED7EEQBAB6m4dHaBU/o7DokIt4eEXdbBAAAZj9BFADgERgciS31sdr7Kp3VRSnFcEqRrQIAALOXIAoAsB2sGdl/0/B4bSBSelpE+oZFAABgdhJEAQC2o/p47d/qY91HpyhOSZF+ZREAAJhdBFEAgB1geKxraI8D4uBI8YFI6QGLAADA7CCIAgDsIKtX1+6rj9f+qrMaiyPFOosAAMCuJ4gCAOxgn1tXu6E+XnthJcWxKdL3LQIAALuOIAoAsJOsHa999aAjakemonhVpLjZIgAAsPOFCQAAdr5VK2579H1bH3hX5PSqnHOHRZgzf8CoVA6or19wkyUAgNnKJ0QBAHaB1SOPvXN4tPb6+H/s3XmcHGWdP/BPzeQg4QpXyEwAAQmCHHKIF4jrDYrHuuKx3uK5nuuq6+rPFe91ddVdf8pPXK5MFtQoYbLe97Het4KIcgqiIKfcMTC/P57KEmKS6Z7pme7qfr9fr+fVSmqqn/5WdXf1p556amju/lVVfV5FAABgdghEAQC6aPmqnX49Nj56VIaro6tUv1IRAACYWQJRAIAesGLV6OfufsjIAamGXlNVuU5FAABgZphDFACgx7zgqZfvePPNeWeS52RiYlhFaNQPDHOIAgA9zghRAIAec+IZo1etGB99/tCc4UNSVV9TEQAA6ByBKABAj1r+yZ1/vmJ89MFD1fBTqqq6WEUAAGD6BKIAAD1u+fiSjw1vN7JvVQ29qUp1k4oAAMDUCUQBABrg1FOrW8fGR94yN3P3TqozkmpCVQAAoH0CUQCABjl59U6Xr1g9+rdVNXT/qqq+ryIAANAegSgAQAONjS/53vKzRu6Xaui5qarfqwgAALRGIAoA0FBVVU2sGB85ZZt5c/a58slOAAAgAElEQVSuMvSvVXKbqgAAwOYJRAEAGu5DKxffOLZ65B8zf3jfVFmtIgAAsGkCUQCAPjG2cslFK8aXPm4oQw9JVf1CRQAA4C8JRAEA+szy1SNffey8kYMzlJdVVa5WEQAAuJNAFACgDz1pZXX7irOW/t+tttxyWVXlg0m1VlUAAEAgCgDQ1044fdG1Y+NLX1oN58CqypdUBACAQScQBQAYAGOrRs8dG1/68KHh4cck+Y2KAAAwqASiAAADZPmqJZ9auGR0v1R5XVL9SUUAABg0AlEAgAFz4onVn1eML31XNTy0bKjKKVVV3aEqAAAMCoEoAMCAGlu15Mrl40ufW03MuXeq6psqAgDAIBCIAgAMuOWrF/9kxfjokUNV9bQq1W9VBACAfiYQBQAgSbJ8fPT0HeeP7FNVeUuV6mYVAQCgHwlEAQD4X+9bWd0yNr70TXOq+fsk+biKAADQbwSiAAD8hVPGd7h0xeqlTx6ekyOqqvqRigAA0C8EogAAbNJpZy791vKzRg4bqqrnJ9UVKgIAQNMJRAEA2KyqqiaWj4/+57zMXVal+rdUWaMqAAA0lUAUAICWnLx6pxvGVo++OvPm7peq+rSKAADQRAJRAADasmLl4vNXjI8ek+E8okp1jooAANAkAlEAAKZkxaqlX7z7ISMHDaV6ZVXlGhUBAKAJKiUAAGC6jjv2+u3XrLnp7RPJ8zMxMawiA/wDY3h457FVS65UCQCgVxkhCgDAtJ20cttrxsZHX1wNDR2UKl9WEQAAepVAFACAjhlbteTsFeNLH1YNV39TVdUFKgIAQK8RiAIA0HFjq0bPXLTbyH5DVfWGqqpuUBEAAHqFQBQAgBnxgQ9Uty0fH33H8Lw5e1dVtTypJlQFAIBuE4gCADCjTl25+A9j46PPqpL7VFW+oyIAAHSTQBQAgFkxtnr0h2PjSx9QDVXPTJXLVAQAgG4QiAIAMKvGzhodW7hzdY+qqt5eJbeqCAAAs6lSAgAAuuW4J1x+tzW3598mJib+RjX65AfG8PDOY6uWXKkSAECvMkIUAICuOenM0UvGxkefOJzqQanyUxUBAGCmCUQBAOi601aPfmOvg0cPrVK9uEr1RxUBAGCmuGQeAICe8oJjr9n2lttuPT5VXjIxMTFXRRr2A8Ml8wBAjzNCFACAnnLiyu2vH1s9+vfV0Nz9q1SfUxEAADpJIAoAQE9avmqnX4+tHj06w9XRVapfqQgAAJ0gEAUAoKetWDX6uQVLRg4cSvUPVZXrVAQAgOkQiAIA0PNOPLH68/LVo+9dsLBaVlXVR1JVt6sKAABTIRAFAKAxTjxj9Kqx8dEXZGj40FTV11QEAIB2CUQBAGicFat2/tmK8dEHVxl6UlVVF6sIAACtEogCANBYY6tHVg5vN7Lv0NDQP1epblIRAAAmIxAFAKDRTj21unX5WSNvnZu5e1dVdXpSTagKAACbIhAFAKAvnLx6p8vHxkefNmfO0AOqqvq+igAAsDECUQAA+sqpZy757vKzRu5XDQ09J1X1exUBAGB9AlEAAPpOVVUTY2eNnLrNvDl7D1VD76qS21QFAIBEIAoAQB/70MrFNy4fH3ld5g/vW1XVWSoCAIBAFACAvje2cslFY+Ojfz2UoYekqn6hIgAAg0sgCgDAwFi+euSrj503cnBVDb20qnK1igAADB6BKAAAA+VJK6vbx8ZHPrjVllsuq6qhDyTVWlUBABgcAlEAAAbSCacvunZsfOTl1XAOrKrq8yoCADAYBKIAAAy0sVWj546Njx41nOHHJfmNigAA9DeBKAAAJDlt9ZLVe80f3X8oQ69Nqj+pCABAfxKIAgBA7fiV1Zrlq0feXQ0PLauGcnJVVXeoCgBAfxGIAgDABsZWLbly7Kylx80ZzmGpqm+qCABA/xCIAgDAJpxy5uiPV4yPHlll+KlVqt+qCABA8wlEAQBgEmOrl3x0x/kj+wwN5c1VqptVBACguQSiAADQgvetrG5ZftbS4+dU8/epqnxMRQAAmkkgCgAAbThlfIdLx8aXPmV4To6oqupHKgIA0CwCUQAAmILTzlz6reVnjRxWDeV5SXWFigAANINAFAAApqiqqomxs5aeNC9zlw1VeU+qrFEVAIDeJhAFAIBpOnn1TjcsH1/6msybu19V5b9VBACgdwlEAQCgQ1asXHz+2PjSx2Y4j0hV/VJFAAB6j0AUAAA6bMWqpV/c6+CRe1VV9YqqyjUqAgDQOyolAACAmXPcsddvf9uaG9+aVC/MxMRw3//AGB7eeWzVkitteQCgVxkhCgAAM+ikldtes2J86UuqoaGDUuXLKgIA0F0CUQAAmAVjq5acvWJ86cOGquoJVVVdoCIAAN0hEAUAgFm0fHx01aLdRvYbqqp/qqrqBhUBAJhdAlEAAJhlH/hAddvy8dF/GZ43Z++kOi2pJlQFAGB2CEQBAKBLTl25+A8rVo8+e86c6r5Vle+oCADAzBOIAgBAl5165sgPxsaXPmBoqHpGqlymIgAAM0cgCgAAPWL5WaMrFu5c3aMaqt5WJbeqCABA51VKAAAAvee4J1x+t9tuz3syMfHERv3AGB7eeWzVkittQQCgVxkhCgAAPeikM0cvWTE+euxwqgelyk9VBACgMwSiAADQw05bPfqNvQ4ePbQaql5YpfqjigAATI9L5gEAoCFecOw1296y5tY3JXnpxMTE3J78geGSeQCgxxkhCgAADXHiyu2vHxsffVU1NHf/qqo+oyIAAO0TiAIAQMMsX7XTr8fGRx89NDT0qCrVr1QEAKB1AlEAAGio5WeNfHbBkpEDq6p6VVXlOhUBAJicQBQAABrsxBOrP4+Nj75vwcJqWZXqxKqq7lAVAIBNE4gCAEAfOPGM0avGVo++cGJo+JBU1ddUBABg4wSiAADQR1as2vlnK8ZHHzxUDR1bVdXFKgIAcFcCUQAA6EPLx0c+MbzdyL5VqjdWqW5SEQCAQiAKAAB96tRTq1vHVo++bW7m7p1UK5JqQlUAgEEnEAUAgD538uqdLl+xevQZc+YMPaCqqu+rCAAwyASiAAAwIE49c8l3l581cr+h4aFnp6p+ryIAwCASiAIAwACpqmpi+aqR07aZN2fvKtU7q+Q2VQEABolAFAAABtCHVi6+cWz16Oszf3jfVNUqFQEABoVAFAAABtjYyiUXrRgffUI1PPzQVNUvVAQA6HcCUQAAIGOrlnzlsfNGDs7Q0N9VVa5WEQCgXwlEAQCAJMmTVla3rzhr5IStttxyWVVV/5FUa1UFAOg3AlEAAOAuTjh90bVj46OvqIZzYFVVn1cRAKCfCEQBAICNGls1eu7Y+OhRQ8PDj0nyGxUBAPqBQBQAANis5auWfGqv+aP7pxp6TVL9SUUAgCYTiAIAAJM6fmW1ZsX4yHuq4aFlVaqTqqq6Q1UAgCYSiAIAAC0bW7XkyrHVo8+bM5zDqlT/oyIAQNMIRAEAgLadcuboj8dWjz5wqBp+SpXqtyoCADSFQBQAAJiy5eNLPrbj/JF9kqHjq1Q3qwgAAAAAMBCe87ird332sye2UAkAAAAAAAAAAAAAAAAAAAAAAAAAAAAAAAAAAAAAAAAAAAAAAAAAAAAAAAAAAAAAAAAAAAAAAAAAAAAAAAAAAAAAAAAAAAAAAAAAAAAAAAAAAAAAAAAAAAAAAAAAAAAAAAAAAAAAAAAAAAAAAAAAAAAAAAAAAAAAAAAAAAAAAAAAAAAAAAAAAAAAAAAAAAAAAAAAAAAAAAAAAAAAAAAAAAAAAAAAAAAAAAAAAAAAAAAAAAAAAAAAAAAAAAAAAAAAAAAAAAAAAAAAAAAAAAAAAAAAAAAAAAAAAAAAAAAAAAAAAAAAAAAAAAAAAAAAAAAAAAAAAAAAAAAAAAAAAAAAAAAAAAAAAAAAAAAAAAAAAAAAAAAAAAAAAAAAAAAAAAAAAAAAAAAAAAAAAAAAAAAAAAAAAAAAAAAAAAAAAAAAAAAAAAAAAAAAAAAAAAAAAAAAAAAAAAAAAAAAAAAAAAAAAAAAAAAAAAAAAAAAAAAAAAAAAAAAAAAAAAAAAIDeN6wENMy7khyUZHGSOUluSLJWWQAAAABoRdXgvl/W4nK/TfKADj/34Uk+1uKypyd5rV2tY65ICUPXmUhyeZLzk1xQP56f5DdJftoD/f1wkke3uOxRSc7u4HMvSQmPD0qyT5JFSbap29ZJ5iW5Psl1G3m8rn7v/Lyu5x12PQAAAKAfzGlw35e2uNyaGXju+W08/3Z2sxlV1dtiaZIHrfffb0qyVQ/0b4c29pV5HXi+w5M8K8ljUgLRTrg5yTkp4ei69rMk19r9AAAAgKaZowTQeMNJXpbkpUnuPgPrX5jksLqtc2KSFyo9AAAA0DQCUWi2Q5N8JMnBs/y8Fyo9AAAA0ERDSgCN9eIk38vsh6FJma8VAAAAoHGMEIVmelaSD6Z7N0YzQhQAAABoJCNEoXkemeSkdC8MTQSiAAAAQEMJRKFZ5iT5j5QbKXXLtUmusykAAACAJhKIQrO8KMneHVjPLSnB5h1T+FvzhwIAAACNZQ5RmFlXJ/ldi8uuaWGZf5xCHy5PcnqSryU5O8mluTMInZNk5yQjSUbXe1yaZP+6bbnB+lwuDwAAADSWQBRm1gs7uK4DkuzSxvJ/TvKWJP+SZO0mllmbEthuKrQdSnL3JAcmuVfdvmezAgAAAE0lEIXmOKrN5V+Y5JRpPucdSX5Tt0/aBAAAAEDTmUMUmuOINpb9bKYfhgIAAAD0HYEoNMeSNpb9gHIBAAAA/CWXzE9NNcvPN5Rkp5RAbMskC+o2nOTG9doNSS7L1O4c3qn9adu6j1smWZjktiTX1+2GJBM9WvuhJDum3GBo5yTzk1yRcgOiK3pkv9upxeXuSPI/3qazavuUG1H9Ypaeb4d6f9g+yXZJbk9yVcpNvC7p4mcAAAAA9DyBaG+pkuyV5NAk967b3VOC0Fa31S1JfpkSzHwvycqUkGQm+nq/JMck2S/Jvkn2nKSfd6SEotenBI1nJzmnfjw7yR9ncb+/f13fQ+p2j5SAeWN+kuSMJP+REvC24zkpNyJqxXtSAu1NaTUQvayucy/bLcmRSR6YZFnKzaJ2SAn656fcEOqWel+5LMlFSb6d5Bv1/j3RgT68PsniSZb5bpKPbubfD0/yoiRPTHJ6kuM2s+zDkzx6M/9+dZK3buLfliZ5bP18hyfZfTPruTbJ15J8OslYkjU+WgEAAKA/TLTYLpyB535oG8//kUnWtUeSf03ylSTXtbHeVtttSc5MCZ46YWGSN6cEmp3u65WZPPS7ssV13bjB322T5CkpodW1U+zfr1Lu9N6OT7Sx/kMmWdeaFtfz8x59z+6S5H0p4eZ09pOrkvxXkoOn2Z/zpvj+3TrJy1JC/PWX/cYkz/f6SZ7rjtx1WoShJI9KclaStVOs1W+TPM/XBQAAAPSHbgaiD0nnAtFD0vlgcVNhy/tTRuBN1SNTLsedqT6uyeTz2l6R9gLRA5J8OMlNHerjH1JG7baqG4Hod3vsvbp7/T64bQb2mc8kue8U+9VuIDqc5AWb2Qf/MMnzvb6F53tOvewDk/ysg3U6OclcXxsAAADQbP0SiC5Imf9vYpba9zK1UPSozEygtX67oIV+tBqIrkm5bHgm+vn1Nuo26IHoIzL1EbmttrVJXjmFvrUTiD4yZRqKyZbfZjPP10og+sWUy9xnok6f9LUBAAAA7jLfC27JzIS2m3KfJCe1+Td7pFx2P2+G+3ZJB9c1N8mDZqifR6bMncrmvSxlBOeiGX6e4ZRL8U/KpueBnao9knw2yeeS7N/C8sum+XwPS/L0GarTE5L8nd0SAACAQScQ7Q1nz/LzPTXlJjCtOj7Tu9S+VRc3aJs90267WY9OuQnV8Cw+53OT/HOH1/nQlNHRrVrW49vlPSk3rwIAAICBJRDtDWd34Tn/ocXlFmfmRqxt6JIGbbNHZeZHzDbV0iSndum5/0+SB3fxtfd6ILogZR5UAAAAGFgC0ampOry+bgSi90tyaAvLHTnF/WRNkhtS5nds1cVdqP1UbZlkb2+FjXpXkh27+Jn24S7uJ03YJ15kFwUAAGCQzRmA1ziS5MsdXud2HV7fOfXj2pT5RM+r26+TXJXkTxu0m1LmyFyYMhpv75Sb1zwxyfw2nvevkvxokmWOaGN9n025JPcnKTfSWWfrumbr2o5J9kyyV8qIumVJRtOsEaJJcs9MHmZ3MpirGvJ+e9IU/u66er/5Q8pNob6dcmn3QUmOTnvzwS6r/+YzXXj9y2Zw+/0uyaeT/CDJb1NuMLa0fs7nJ9mvxfXsljI36kW+AgEAAKBZJhrSPtLCa5mT5B4pIed03D3J+W307aMtrPNjLa7r7LQXxm5oYYuv/8oObZcrUwKz9yZ5YZKXp9zde20b63h5C/39ZDp3l/k/p/fvMv+mNrfDV1Pm6ZwsLLxvkgvaWG8rYeh5HX6vX5rNX47++imud3WS+0/yWuYmOaGNdf6trxAAAABonn4KRDvpPm307bwW1veFFtf17ll6fdMJRL+V5BVJDsimA7int7G+17fQ30+kc4HomvR+IPqdNl7v+9PeqMld29j+t2byOV47FYien+R5LTxfu4Ho2WltWot1tkzy+xbX/S5fIQAAAAwqc4j2n++ntaAzaW2ex61aXNcVPVqPa5K8LWX07OFJ/j3JL1JCoY1ZkeT6Fte90O52F/OSHNzGfvqqzWyHjbk0yVtaXHZ+yuX2M+ncJM9IGd39nymBdaecluTemXxKi/XdlOTMFpd1p3kAAAAGlkC0P7V6k6ZtWlim1ZsibTlLr63VAO32JK9Ncrckb0yZm7VVv21xucqudhcHpvVpE/49yR1TeI7T21j2sBl6nVcleXHKSOMV9b7WaWekjHJtV6vz8C6yuwIAADCoBKL96boWl5uTZMEky/y5xXUd1mM1uDXlMv4bp/C3a+1CU7KkjWV/NsXnuCZ3vWHX5ox0+PWtTQlylyX5f5mZIHSdO6b4d62O1N7W7goAAMCgEoj2p3Yu3Z3sRkathquPTvLWJFso/8BqddThRMoNkqbqwg73pxVfSBkB+8o23hPTMTHDfzfP7goAAMCgEogy2Ui0y9tY1/9JcnGS9yV5cISjg6bVUYdXZGqXg69zaYf704pjUuYM7ZX35XTNtbsCAAAwqASiTBa8tBsC7Zwyiu4rKSPpvpbkn5M8IMmwcve1OS0uN91LzVv9+ybvbxM9sq0AAACg7wzCj+Irkjy7w+s8KMk7+6Q+kwWiX5rGuucneVDd3pwSkH42yceTfC7TGyUI/WymR4gKRAEAABhYg/Cj+OaU8K2T1sxwn4eT3CfJ/ZIcmmSnJNsl2Tqtjepd3MZzTRa8/DrJl5M8tAOva1GSp9bthpQ7hv9r2rsDPAwCI0QBAADAj+KBsFWSl9Rt11l6zlYuP35lkm+nBLKdsnWSFyZ5XpKT6ue4xS4ASYwQBQAAgBljDtHecUiSnyT5l8xeGJq0FrycneRhSa6agecfTvKCJN9LGQkLzPwIUTdVAgAAYGAJRHvDIUm+mWSvLjx3q8HL95PcI8kHkvx5BvpxQJKT7QrQ1vtyqowQBQAAYGAJRLtvUZLxJAu78NztXpZ7TZKXJ9klyauS/LTD/TkmyeF2CXDJPAAAAMwUgWj3vSwlYOyGqYYuVyZ5X5KDUy7vf07KDZIu70CfjrVLTJvLoZvPCFEAAADwo7gvDSd5RRefvxOj0C5LcmrdkmS3lFGeD0tydJKRNtd3sN1i2rZVgsab6RGiQnMAAAAGlkB0aqoOreeQJDu0uOyalFGYP0sZoXnbZvr28Rb7OBOhy2/rdkZK4PvoJO9JsqzFv9/D7rVJN6e1sHOkrv3ts9y/O2yijjFCFAAAAPwo7ktHtLjc2iT3Tetzdl6fMjfpZGY6wLo9yeqUO8j/JsnWLfzNjpP8ezXA+8sf01ogujDJgUl+Msv9u6HF5RZM83la/fsbG7ytp/rebPX9YYQoAAAAA8scolPTqdFboy0uN572bmB0dYvLzdaIviuSfKfFZefPUu2b6I9tLPvMLvTv2haX2z6tBfabcvcO96efPmOWtLjcFj7GAQAAGFQC0e7avsXlLmhzvb0WiCbJdW3sk8N2jY1q56ZVz0+y7yz376o2ll02xecYTrJnh98HvWiqgejubbzP5nlLAQAAMIgEolNTzXL92730txcD0VanZ7g9sz/3ZVN8rY1lt0zy6ZRL52fLz9rYp46Y4nPcN61f7v3TBm/rqbw35yc5qo33GQAAAAwkgWh3tTpqcrTN9fZiINrqa5hsHspBnkP0c20uv0eSHyb5UJL7tfl+n5tk7ySPSvLyJB9I8tkk5yd55yb+5sYk57S4/n9I6yOk1/+8eksb+/Z3G7ytpzJC9LVpfYTouSk3agMAAICB46ZK3dXqnJB/ldbuGr59kmfVy7eilUD0EUkelOT7SX6Q9i7bXudeSQ5rcdnr+2wbdzLAPT/JeUnu0cbfzE3y4rrdnOSXSS5NCS9vSRlJuqhu2673uLkbYG3u+b+a5IAW+rU0ZW7cJ6bMMTuZ+Uk+mOShLb7uHyf5U4P3m++mhJbn1Nvsl0l+n+Saul2fEprulBJcvy7JMW2s/0c+fgEAABhUAtHuavUu4Psk+Y8kb8hfjirdPsl9kjw9JVya38bztxKIHpPkZev9/8tTgtEfJvltymjU9dt19XqHk+ySEqYen9bnBf1ln23jTt8E6i1J/muKf7swyb3rNh2bm8Pz/6WMKG3FESmB34eTnJnkF7nrqMUqJXx9ZJKXJtmrjT5+sOH7zcIkh9ZtU+/d25IsmOL6P+XjFwAAAJpnosV24Qw890PbeP6PbGY9O6YEG62u65aUEYLfTAlTL2vjbzfWft/Ca/16m+u8Pcmt0+jTWyfpz5UtrufGaWzfH7f4HG9vYV2faOO1H9LC+qqU0boTXWyTjbz8whTXuyZltOj5KcH7LVNczx/S2omB89pY59wOfG68vsvbbV27IG5cBgAAwAAzh+jUdGrU31VJvtTG8lukXB57RJKDUi47no5WRojeawr71Pxp9Onzdq9J972XpFz+3i1bp1yqvSmvy9Tmp5ybZHGSuycZqff3qXh1yuhJNu7dcVMlAAAABphAtPs+3MXnniwU2T1lPsnZ8uMk/zPJMhN2mfwgyePT3dBvz0m242u71K+Tkqywi2zSp7v8mQMAAABdJxDtvjOTfKVLzz3ZCNGDZrkvr7c7tOyLSY5NckOXnn/PSf7935OcPMt9+kLuOt8td3VRkmfESQUAAAAGnEC0+yaSHJcy72GnXJUStE5mskD0XrNYh9fF5fLt+u8k90y5W/ts27OFZY5L8pq0NjXDdL03yaNS5h3lL/0oyZFJrlUKAAAABp1AdGqqDq/v4iQPTHLJNNdzfcod3fdMa3f6niyo2n8WanldkmelzGvYjdo33WUpl88/PmU+2jtm6Xl3bXG596TcJf7HM9SPnyZ5XJJ/iHkxN2YiySkp8w5fphwAAADQ/B/6Tb/L/Ia2TvKOtHd37TVJVid5cpIFG6zvV5P87a8n6c+8JA9O8s4kP0zy53TuTte/SwlBR9us/aDfZX4yuyT5pyTfrmsw3e20Nsm5ST6W5A1JHpMyt+xUHJXk6ymh7XT6tCbJl5McPc1a9fJd5k+r969PJjknZb7YdrfbfyXZz1cFAAAA3FWTR9vdt8XlbksZRdZJi1NGdLbiorQ/Om6bJI+o2271822ZMpry2iR/TPKTlJvr/DjJTZtYz/2y+TvR35Ay72KrtkhyYEpwd2BKMLZ7krslWbiJv7k5JZi7NCXYObvu9zcytdGMx6S1u9ivzdQvJX9okkUtLPer+jVtzmTbYH1frrdxpwwlWZYyF+w+9Wvaut6/tkkJ+f5UP+d1KSOM13/8bf36bu3w+2eH+v1zZP24LJu+edctKSMbL04Jeb+R5Lv1fjVd702ypMVln5Hpj0B9Q5K3tbjs85P853r/f06SPer+LkqyXf24bpsO1+3KJN9J8v1M76QAAAAAAJNYmGTnJHulBFxbxZQMtG6rlGB9n3ofWhfY9pN2Rog+zy4BAAAAM2OOEtAhN9ftCqVgCm6MEY0AAADALDCCDwAAAAAYGAJRAAAAAGBgCEQBAAAAgIEhEAUAAAAABoZAFAAAAAAYGAJRAAAAAGBgCEQBAAAAgIEhEAUAAAAABoZAFAAAAAAYGAJRAAAAAGBgCEQBAAAAgIEhEAUAAAAABsYcJQDoGX9MckGSi5UCAAAAZoZAFGB2XZ7k/JTg8/wN2p+UBwAAAADoB9slWagMAAAAAAAAAAAAAAAAAAAAAAAAAAAAAAAAAAAAAAAAAAAAAAAAAAAAAAAAAAAAAAAAAAAAAAAAAAAAAAAAAAAAAAAAAAAAAAAAAAAAAMDkKiUAAIBGHLfvlGSkbkvW+9/bJdmibvM3eFyb5NYkt9WP6//vdY9XJbk8ye/rdnn93+5QdgCgXw+sAACA3rE4yQF1279+3C/JlrPYh7VJrsidQemvk5yd5Jwk5ya5yWYCAJpKIAoAAN21KMmDkzwsycOTLOvx/k4kuTglHD0nJShd19banABArxOIAgDA7Fua5JlJHp/k0CTDffCabkzynSTfqNv3Uy7JBwAAAAAG0BZJnpLkc0luTxlp2c/t1iTfTPKOJEcl2douAAAAAAD9b1GSNye5Nv0fgm6uvdSuAAD0gjlKAAAAM2KbJK9I8qqUUHTQXaAEAAAAANB/qiQvSXJ1BntE6IZtb7sGAAAAAPSXPZJ8JcLPDdvtSebZPQAAAACgP1RJXpzkhgg/N9YusYsAAL3CHKIAADA985KckuRvlWKTzB8KAPQMgSgAAEzddklWJXmQUmyWQBQA6BkCUQAAmJrdk3wmyb5KMSmBKADQM5ociD7Q5qPHXZXkXGUAgL60JMlXU0JRJicQBe9mfMcAACAASURBVAB6RpMD0W/YfPS4TyZ5ojIAQN/ZKsmnIwxtx4VKAAD0iiElAACAls1J8okkhyhFW4wQBQB6hkAUAABa9/4kj1SGtlyT5DplAAB6hUAUAABa84gkL1GGthkdCgD0FIEoAABMbtskJynDlAhEAYCeIhAFAIDJ/XuSXZRhStxQCQDoKQJRAADYvL9K8ixlmDIjRAGAniIQBQCAzXubEkyLQBQA6CkCUQAA2LSjkhyuDNMiEAUAeopAFAAANu2tSjAttyX5nTIAAL1EIAoAABt3dJJ7K8O0XJRkQhkAgF4iEAUAgI17nhJMm8vlAYCeIxAFAIC/tGOSxyjDtAlEAYCeIxAFAIC/9PQkc5Vh2gSiAEDPEYgCAMBfeo4SdIRAFADoOQJRAAC4q2VJDlSGjhCIAgA9RyAKAAB39XAl6IiJJBcrAwDQawSiAABwVwLRzvhdkluVAQDoNQJRAAC403CSBytDR7hcHgDoSQJRAAC402FJtlWGjhCIAgA9aY4SAADA/zq8j17LjUl+keTnSS5K8ockVyS5JcltSdYmWZBkyyQL12tbJ1mcZOcN2uI2fz8IRAGAniQQBQCAOx3Q8P5fleS0JKuTfDsl9OyU4SR3S3L3JHut93iPJHvnL68+u9DuBAD0IoEoAADcqamB6NVJ/jnJSSmjP2fC7Skh54VJvrjBvy1McmCSg5McVD+eZ3cCAHqRQBQAAIrhJPdsYL9/mORRSf7YxT7cnOS7dQMA6GluqgQAAMVeSbZoWJ+/nuQh6W4YCgDQKEaIAgBAsV/D+vvjJEcludWmAwBonRGiAABQLG1Yf18eYSgAQNsEogAAUIw0qK8fS/ItmwwAoH0CUQAAKJoUiL7d5gIAmBqBKAAAFE0JRH+b5Bc2FwDA1AhEAQCgaEog+hmbCgBg6gSiAABQ7NSQfn7epgIAmDqBKAAAFAsa0s/zbCoAgKkTiAIAQDG/If28xKYCAJg6gSgAABRbNKCPVya52aYCAJg6gSgAACTzklQN6OelNhUAwPQIRAEAoDmXy99kUwEATM+cBvf9hAHebg9Jco+G9PWzSS4e0O30Ex8xANAYWzSkn7faVAAADKLTkkw0pD3G5gIAGmBxQ46tVttUAADT45J5AABoDiNEAQCmSSAKAADNsVYJAACmRyAKAAAAAAwMgSgAAAAAMDAEogAAAADAwBCIAgAAAAADQyAKAAAAAAwMgSgAAAAAMDAEogAAAADAwBCIAgAAAAADQyAKAAAAAAwMgSgAAAAAMDAEogAAAADAwBCIAgAAAAADQyAKAAAAAAwMgSgAAAAAMDAEogAAAADAwBCIAgAAAAADY44SQGMNJdkuycIkC+q2qf99R5I/J1lbP65JckOS65P8qX68pv7v0C0HJblnktOVomcsTHJskq8nuVg5NmqL9T5v1z1O1J+na9b7zF2/rVU2IMncJNus1xbU/23Oeo9D6x2/bXgcd0N9HHdT/bkDvfK9+PgkP0tyrnI03vwk2yfZYRNt+3qZOeu1iSSXJDk/yQX140WOf6b9vtphg22x/v/erv5+uLH+Trix/o64OMlv6u1xuzLelUAUetdWSe6WZLcN2q714y71wXKn3JHkD/WH5iWbaDfZLHTY9kn+Nslzkxyc5LsRiPaC+9fb5MlJtk7ymPRvILowydIkoxs8Lqk/h9cPOjd8XJCkmsJzTiS5OclVdbt6g8d17aL6R8S1dklolCrJTvUx26baznWI0KljuOuSXJbk0k20y5LcZtMwgw5N8pz6uG67JM+MQLQpx0G7r9f22OBxhw49z5+SfCHJfyf5TH2cw11/+29qG+yRZNE0178myYUpJyq+XLcLB73oAlHoDfNTRsfdJ8lh9ePeU/yhPVVDdRAwmuQBm/gB/+uUwGpd+0WcaWJq+9rDUgK3x2/wg3AX5emaJUmeUW+XfTb4t10b+poW1Z+lG4ad6x6XJtm2C/2qkmxZt7u1sPw1KWf3z6/bb5L8KsnPU0YDAN2zoD6Gu3fdDk2yVzoXdrb6vbp93Q7cxDITSa6sfwz/IMkP63aZTcg07JDk6fWxw4b7nmO63vu9ec96O92rftw/5eTMbNgmyRPrdkeS7yT5YJKPD9jvyS2S7LeR7bDTDD/vvPr4fp+UAQ9JGezwmSQnJfnxIL4pKp8LjXRayhm3Jnhsylkg7mq7JI9OCR7vU38Qzm3g67ipPqj+bpJvJvlSBvuy+/1m8aBiMhem90b07ZkycuBZ2XTAdnt9wNapA6MtsvGAv1u+0mPbZE6SY+rt8qhs+kTpO5K8oYffewvrg/z9N2hL+/wz59Y60PjOeu0PvmKnbHGSKxrQz68meVsD+nljku/34W+ng5PcN3cGoPdMsweZXJE7w9EfJvmflNGmg2xOkiN7qD/fSG9dajyc5BEpIehjU4KWjflgkpd28Hn3SrlKrlu+XX/vNsHWSe5Xf0YdWLd71Nuu11yY5N1JTm1QfdvZDvdPOVG2Lvzcu0e3w4+SnJjkvzJAV4UKRJtJINpMS1NGw/11kgelP0doX59kPOVM3xczeOHoGUme0iN9+UCSl/dAP+YleVKS4+r9vpXvnV3TuREre6S3LgcZSW8EVnsneUHKiNDFLSw/1iPfO3PrA/oNg889HdP8r4vrH8+rknw+yS198JqOT/I3sxSC7GMX6phvJTmiD17H/CQPSfK4lOlDRvt8u/25/gwZT7I6ZcqkQbMovTVVyb4pVwV02+5Jnp9yYruVE47j9W+fTnl3kld38fX/dZKzenSfHak/b9e1e6U3Q7fN+UOS1yc5pcGfHTvX9X9g3Zq6Hd6Y5OSUkbzQc05LueylCe0xA76t9kryuiTfqz9QJgaoXVt/oR2dZo5+nYrTe6j+n+tyLbZN8tokv5tC3+/fwX7s0WPvi26POLl/kjNTRuC20++vdPEz9LkpowbOqX+oT2gttxtTTlCtmwu2qT5iWzayjTd4n9s+5YTRJ1JuSjHI2/EnKSclDhmwQLSXtsFju1yPg+tj3LVt9vuHHe7Hu7u8HT7SQ/voLimDDU5LuWlRP33mfDrNOfE0kuTZKZec/7rPtsPPkzxU9IZAVCA6FQ+tP8wHLQTdVPtdklelTBYtEJ2d1q1RkUuT/GvKaOGp9v3YPg5Ej+vCNqnqz+JvTqPfv5mlfh6Y5CVJPpbk9z47O9puTRk1+hCBqDZL7eSGHr+NTyH4GZR2YZLXpEz9JBCdvdatUZEPT7nia6r9/n2fBaK/S/euRhlOGXn4jiQ/HYDPmmtTRiL3mirlfh9vrgP/fv+tf0f9vnPvIQSiAtFJzU+Zh+/nDpg32a5OGWWwvUB0xtvabHpOp5mwX8qI4DUd6Pvf93Eg+q5Z3CbzUkZX/rID/b55Bvo3N2UevtekXJZ5jc/IWR3x9fQ0Z/S+QLSZ7T0N2b8WJnlhkrNts5bbTUk+XH/3C0Rnvp04i699Tspd4n/SgX7f3uHvmXf3wLaYzZHSO6VMV/TRAT5G+kC6PyXSuptBnZJyOfkgbodvp7k3WEUgKhCdYVsn+eeUSekdJLfWbkjybymXGQhEZ67tOwuv+cgkn0pnz5C+t48D0VWzsE22TfKPSS7vcN936FD/3phyA7abfBZ2vV2WMrVFr19OLxBtZvunHt+v7pZyRYOTMdNrX0q5pHtIIDpj7Wuz8Jq3TPKKlHmoO9n3u/VZIPrGGd4O26fM8f7VtD+9Ub+2MzL7J3C3TPK0lCs+19gGmUhyZZIDRHEIRAWi63v6DIQOg9SuT/Li9M/NUM7osfo+boZeZ5Vyg5PvzVC/P97Hgeg5M7j/jdY/Fv40Q30/qEP9vNhnX09Oa/JkgajW4faCHg673h9zEne6/SzJgwWiM9Iun8HXulOSt83giYHD+ywQ/d4MbIOt6vDtU8K3TbbPZ+anXpub5JiUAS5O2m+8XdXB3wMgEG2wg5L8jw/FjrVvpj/u7NtrI0RfMwOv8WFJfjTD/f5OHweit6bzo2i2TZlT6uYZ7vsxHervZ33m9Wz7QpK9BaJah9rf9Nh+NJxyEvYq22ZG2yeT7CkQ7XjrdBi0Zcpoxz/NcL+f1GeB6B1JFnfgtcxLuWv9x2fh+K1f2lfS+bksq5S5WU/w3dDWFHgH90uo00+XNsBs2D7Jh+pA6HDl6JgjUiYIf2MG5470s6GTwcZBKWdnv5iZnz9plz7eJvOT7NbBdf19yt1F/ynJghnue6fmDjrXW7NnPTxlHuy3+CymA67pob48JGVOxA+lc9N/sHFPSJm7+p3p/5tpzqZlHVrPnCQvSnJ+/Vk/01Om9NsxXZXk6Gn8/R71e+PSJGem3Eh0gd27JQ9O8r4O/qZ/Vcqd4b9Zvyd8N7Reu9Upo8sbTyAKrTs8yS9SRhd473Te/PrA7AdJdleOjuhEILp7khVJfpzkEbPU75GUkTy2y6YPxp+e5Fcp863O1gFcp37U/NJbs+c/i9+YMhJjsXIwDVf3QB+2S7IyyZdj7rPZ/hx5XR02PFY5euaY7gkpU/eckGRJw44dekm7V8wMp0xj9dmUk9iv8/06ZS9NuYnxVN07yckpc6j/W5K9lHTK7+uP9cPvNaEOtOaVKZNbjyrFjLtXyvw891OKaZvOaIIdUs7Cnpcyr9FszvM6nP674VanftQ8IiWcHsvsnzgwQnSwHJFygspcUUxVtwPR+6aMCn2iTdE1I0nGU4IHo867d+zwwJTpiD6Z2Z8WZWkfbotHtLg/L03yppS5089KclT6574J3XRC/fneqgVJnl0f0/wgJVA1Knf6Hpwy2rnRBKKweVulnP14nwO5WbU4JYB+ilJM+4dIu5dCLUi5/PqClBMB87rU9137eLtM5cfIISl38v18uhdQdWqUh0C0OXZL8q2US/qgXd28ZP6VKZdB3s1m6AmvSvKNdG7KmEE0lWOH/ZL8d137bg006McRotuknDTclHul3FfgkiTHp7+nguqG+UlOyeTziS5OCewuq5e/t9J13KvTXjjdcwSisGn7pJxFepJSdMUW9cHEPzeoz7141ndZG31/TsqcUu9IuVFPN/XzwWM7P2p2rd8HP0zy0C73u1Mh9TVJrvAR1xgLU2768BKloA231G22LUqyKk5k96L7pYzYPUYpZvR4Lkl2TnJSypzQ3a53vx7PbayuRyb5TMp9EZ6a/p7+qdv23cxxyW5JPpAyMvd1KXNeMnO/fU9o8r4uEIWNOyDlbOo+StH1D9k3119qTTDRg31qJXzbN8nXU+bU6ZVpIQY9EB1K8oqU+Tafmt4I2zt52ZtRos3zHzFqn9Z143L53VNOHj1e+XvWuptxvF4pZuTYoUryvPo79rk98lt/JP15mfij16v5Y5N8uz6WPtquOmuOT7LjBu+Rk1MGd7w0LoufLQcn+bumdl4gCn/pgJSbSeykFD3jpUn+jzJ0/AB6fkrg/NOU+aV6ST9fMr9bNj8VwUEp8+i+P711h94F6dwNnASizTxmPC3lTvQwmdkORPdKOZF9d6XveVWStyd5m1K0ZbvcNfzZ0LqT2x+pl+0Vc1NGrPabeyR5bZKzU+bJvb9ddNYtqj9H7pUyxd25KVe7uTpg9r0lZSqJRh7cAnc6MCUM3VEpes5bkxynDG3bVCD6oCQ/S5mSYF4P9rufR4gOb+JH+8Ik704Z4dSr8xx1Kqh2p/lmmpfkzCT3UQomMZuB6D4pYeiuyt4ob6i/85jeMV0vn9zu92O6dyW5p92yq15Q7/tPimyrmxYleVETO26ngTvdK8LQXvfhlMtSaN2Gc05tnzKv1NdSzm73qn7/Ybvhj5qjk5yTMjl5L8/D48ZKbJVyyavvSjZntm6odEDKqLgRJW+kV6dMx+HO21M7duj1k9vrLLXpmCE+O3rH36ecoGkUgSgUo0k+l85dDsrMGE7y0SSHKcWUDp6fljvnlep1uwzIdtm53qc/kzL/Xa/rVFAtEG22nZN8SBnYjNkYIbpfkq+m3EmY5npZkg8qQ0vWneRuysntQTmmA5IlSZ7dtE4LRKHMM/Lx+k1M71uQ5L+SbKkULVmU5L5JPp9kRYN+OI6kv+/OeY8kz0/yqyRPblC/O/Wj5vIk13t7NtqxKTf8go2Z6UB0u5R5+5zI7g8vTvJyZWjp2OFp9bHDcxvUb4EoDIbGXTYvEIXk35IcrgyNsizJe3qwX7162ca3kzyiYdt4OP19CeRzkpyYElg3SSenMjBKtPn+b1yqzMbNZCA6lOSMuIFSPx6P/5UybNZfp5zcbtqNX10yD4PhoDRsXl2BKIPub1Mu1aF5XpQy72IvmfBZ31H9PKLANhGI9oPtk5ygDGzETM4h+o4kj1TivjMn5Yqt3ZTCsQPQWE/3oQrNsF+SjyhDo50cl8v1M3cM7u8fNe403x8eF3ed5y/N1AjRJyX5R+XtWzslWZUyPRKOHYDmeVoadLMrgSiDqkq5XHWhUjTakiTvUwYH0DRymxgh2j+OVwI2MBOB6B4pJ0Lpb4ckeb8y9BWXzMPg2C3l0vlGEIgyqJ6T5AHK0BeenuRAZehLRoj2ngXp3KhsgWj/ODpGiXJXMxGIfjBuqDgonh/z+/eThSk3QgMGw8Oa0lGBKINo+yTvUoa+UaXMJ0b/MUK0N3UqqL44yS3K2TfepASsp9NziB6b3ps3nJk9tvtwkrlK4ZgOaJyHN6WjAlEG0TuT7KgMfeXRSY5Qhr5jhGh//6i5I8l5ytk3HpUGXSLFjJpIZwPRbeIS6kG0X5JXK4NjB6BxjkgyvwkdFYgyaA5LuQyH/vNOJXDwzKzoZFDtsvn+8kwlIMn1SW7v4PrenmRUWQfSG5PsqQx9wTyiMDgWpCFTKQlEGTTHp0F3PaMtRyR5pDL0lZEkw8rQc9xYiU15ivcs6ez8ofsn+TslHegf1e9VBscOQOMc0oROCkQZJAfE/FP9zo+m/jKcEorSWzo5QvSXytlXRpI8RBkGXicvl/8nv1cG3mPj5pn9QCAKg6UR0yg5wGCQvDZGh/a7R8clOQ6gadI2MUK0/zxNCQZep0aI7pnkyco58KqUYJxmc3wOg+XgJnRSIMqg2C3lUj7623CS45Shr7ixUu/pZCD6myRrlbSvPCHlMlcGV6cC0dfGFAwUxybZSxkcOwCNcc8k83q9k3NsJwbEP/T5/n59kguTXFa3Pya5pW631j8oFiTZIslWKWdpd63bHumvkyPHJXlbyh2scQBNb2+TPyc5P8k+yto3tk6Z0/mLSjGwOhGIjiR5tlJSG07yj3FjVMcOQFPMTckZzuvlTgpEGQQLkjy3z17TeUk+neS7SX6UEoZO58frIUkOS/KoJEem2SMydktyVJLP2PX7ghGivfmZukM6Nwrs3HQnEL09yVVJrkw5ibTu8abceUJp/XbzRv7b2vqAb856bask29Rt2yQ71j8El9aPe6YBZ8yn6UERiA6yTswh+vdJ5g9g7W6v63drktvqxz/U/zY/d57YXpJkuwGrzTOTvCnJ5d5ijbQoyZb1dywwGASi0AMeUx88Nt3vknw4yUdTLjPtlBuSfL1u70kJOp6Y5JVp7qitp0Yg2i+MKOhNu6azgehfd7BvE/UP5gvqdllK2LlhuybdGUk+J8neKXfPPjTlJkSHpL9G6h/Z4fVdlOR7s9T3+6T35xv/VJLTe7h/P57m3w8neVYff37ekeTsJL+oH89JcmmS36eclGn1c2l+SjC6V5L96s+UQ1LmbevHadHmpYSi/+IruLGWJvm1MsDA2L3XOygQZRA8teH9Py/JG5OsyuzMtXd1SvB6YpJjUkLSvRtWs6PrHwMum28+I0R70y5JftqhdU3lTvNrUkKyC1JGyF+wXrswZVRVr1pbv+ZfJvl4/d+2Sxmh/6wkD03zw4z7pIxk69R2eEfdZsOalFG/vexXSc7o48+XhyVZ3Gev6cokn0zypSRfTXJtB9Z5W5JL6vbl9f77dkn+KuVqmSeljMzrF0+LQLTpxw4CURgcu/d6BwWi9LttU8KxJrohyRuSnJDu3HRkIsl/J/lCktelhLJNuZR+hyT3TfKdWX7eyluu4y5Qgv/f3n2H61WVeR//hoQ0JAYiUgSRGkoEQhMEQRT1FURpIqhDGRx1zDuvUWdUHFScQdTBAXwHZUZArKOU0HRwQEBCkWIoIRBCRxIIhJBeTtrJ/HHvDAFSTp7zlLXW/n6ua18nKGU999r7OXv/9irJmU6sW9wsa9tp/mkifF1xjCdGU5X0wmMm8Kvq2IrYUflTpB/Mrc6A6jt4rJeLGvCJQj7HcuAa4GLgv9t4LzeTeIl+FfD/gA8Do4ilLHI3Ati9+j2gvLwIzLMMUq28LfUGusu8Snc0ea5BdS8x7enf6PwOzIuAbxGjl2ZlVMPDO/Two+bU8SpiOvEnLUcypgJ/X93c3NbEf++kqs8XA/cDlwCfrx7ehxJrbh4N/BNwLTEaquTR35OBzwHDefWor9wc5CWjBgymuUtodOp32OXAbtVn+V0H7+UWVW15N3BIk7+7O+UTXiZZmUIE89sA91gOqVaSn+3hCFGV7vgM23xFdbO3OLF23VA94I4lj4X8PwSc7iWQlWXEFOJvE2uqKQ3PAv9CjHJqxVT0BcSon8eJXecVngbeT4zQP5P8RqDvbheqAbmv+/4EcCpwa4Jtu6W6jzsV+FdiFlWOTiB2nPcldNqeIpY3+FmCzzR1t4BXlhuaTmwCOZTYBHJXyt/4MaV+eKbqixeIjY6HAhtX/TC4gM+4ceoNNBBVyQaS3/SgnwN/TQRDKZpAjLy8uapv6g/jbyE2o1LalgC/BL5DczcMU+8f7L9bfS+1OqicaLlXqZtYO3Masa5zTqHoTnafGnBcxm2/iBgJtzDxdl4MXE/MxNg7wzpvCRwA3O7lkqRJ1e+tX9P5WW51N5tYXuL+6ufjRAg6dS3Pz3sRL2Q/S3nrOXfCtKr+44EHq354mlhGYnX6EbMMDiFmDW2b6Wff2O5XK/yMeCuaw3FEB+t0SEZ1Wg78mXzWizs9k5p+rM11+c/MzrlOH13Aj4CtW9gn21jndT4eJkap90Up+UqG13eO59DiDGp7dqHn+HrAjAy/M5cRy4nkZjBwdaa/p77Z4toM9V5gnY8HgI/S2iX5zrbOqz0WAXcQgwuOru5/e2sgsf7wAuvb42MuMavy68AHgM2a9LvxuCpAza0erhssA9EO1ulbmX15bp/ROdgfeNSHxtf5tTcCPTrmA+cAW7ShTwxEe37cBxyDm4Olqg+xQ3VO59R2BqIGoutgZKbfnZ/KuOZ9iY2fcqv5LQaiyRx3t/F5z0D01S8dbwK+QawRPKiFdd+DmNpt3V9/zCFG248mRty38kXwVsC4DGuU9BIMTplXyd6dUVtHEdNTc3pgHAX8IfF27tPm/57rWa3ZEuBC4J+JtXKUhkeJUd9XWIqkLQc+XfVXLvdvw4npeVJPHJJhm08npsrnahmx3v7NwH4ZtXs/IgBa6GXTMQ8B/0hsdqj2mApcR2zUdiPtG333APB/iDBuA7uBx4D/qo5bad/695OJpQzGE0uH5GIDXEdYTeYI0bUbSLw5y6FGl2V8Ll5B+m/t1mtjPZwyv+qju6pNJ0aLOUJ09ccUYmSTU+PzcnFG59gXM6yvI0Q757eZfYdeVVDttwRmZlb/97awHo4QXf3xDHBSm++vV6jjCNEniIEEe9H5GTyn1vi8fwD4MmnM6DyoerbKpXZJr0O7HlKZ3gEMyKStZ2Zc5wsTb9+GxAgldc7viWmQH8eRYqmYsdJN3UWku4mbVu3cjNq6rd2lHuoLvCuj9r5IjNguxRRiQ6icHOJl01YvEdOCdyQG53RbkpaZCvygep7dnliP8l46PxPtEmIzoLp4Cvg2seP7HsC/kMaMzltJf5bmypKeMm8gqlKNzKSdtxG7zeXqJuDlxNu4j5dDR9xJLFtxGDG1Q523gFhsf1tilEWXJcnSQ9WRA3enVU+NAN6YUXv/ngiISvKL6kE7Fwd62bTFXGJfhu2IkM6pr62xBLgceB8xYns0cE9ibewGLii8H7qAnwMHVOf86cDEBNv5o4xqaiAqdcAumbTz/MzrvJT0p4zt4uXQVhOBI4F3AmMtRzI32RcQowy+Bsy2JNm7MpN2bmJXqYd2zaitE4hlYEp0ekZtHeFl01KLiQB0O+AMIhhV8/2FWIt1K2In8RtJe/TtlYX2w5PAPxBh9EnAnxJv73+Rz8CG9VNunIGoSpVDCPZ8Ib9ULk28fe2cslnn3bmfBU4B3k7sWKvOWw78pvo+/BwxBUtluD2TdhqIqqdyCkTPoNzpwrfR+h3cm2UYsJmXTkvuHX5OTI0fTXkjoVNxE/Ch6jnlLGIZjhw8Saw3XIobiQ2jdgC+T/ozH1dYSqxrmgMDUakDcghEr6i+zHJ3C2lPn2lnIFrHXeYXElOpdgJ+imtKpeJeYrrPCaSx3pGa6+5MrjUDUfVULoHoVMrfVfsiz5vauhPYlxgh9xfL0XTd1fPfPsChxCi/HO+b7828H5YTg5L2IZYouD7TZ7h7vaR6z0BUJdoc2CiDdt5VSL2XAo8n3D439Widy4kg9AwiGFXnTSN2jt+3erBRmeYQo7JTN8x7TfVQLsHWzyjjZfaaXEk+S6sYiDbH88CJxIvUcZaj6RYTLxp2Bj5aQI1znXG0tPoO3xU4xn4Q3qSqULmsGXl3QTV/JOG2bQQM9bJoqgeJ3V2PI49Qpg6WAOcQU9wuxpG6dfBkBm3sSx4vKNVZA8nn5eVVNeiPhcR03hwYiPbOIuC7wHBiU63llqSpuokAbkfgb4DHCvlcOa5FP6b6vjg58efW0vshOQaiKtHWGbRxOvBUQTVP/ReLo0SbYwYwCtiTfNYYq4Prgd2AL3lzVCtPZ9LOje0qrcUOmTyTLATur0mf5DKLaScvn4ZdSwREpwHzLEfTXU2sq38y5S0/MCejto4F9gOOpZxAOsd+SFY/S6ACpbUshAAAFghJREFU5bDA+j2F1Tz1QPStwH1eGg1bBvw78A0iFFUangC+CPzWUtTStEzaOcCu0lpsnkk7xxGj8evgLs+dYk0CPg/cYCla4jkifLur4M+Yw/fgwqofrrMftCYGoipRDoHoQ4XVPPXRrsO8LBr2x+rGeYKlSMY84EzgXNLe0EytlcvLif52lQq4bwP4U436ZByx3l4/z51izCY2wTwfg5RWPxPdZRk6bi5lh6FqEqfMq0Sb+iDbdqlPtWnXlM0+BfXpS8AngPdgGJqSq4kpgt/DMLTuZmbSTgNRrY2BaHoWAuMzaOeGwGAvobW6lFgn9FwMQyXpfxmIyhvrzihtnb/5ibevXSNES1mM/qdE6Paffp0k43ngaOAoYjqW1JVJOw1EVcJ9G8CdNeuXXDb/dNr86j0LHA4cD7xoOSTp1QxEVaIcRojOKqzmBqJleAJ4L3AKrhWaiuXE+q07U4/djdVzuYzycQ1RrU0OgWgXMXOiTqZ4/mSrG/gBsWmS04YlaTVcQ1QlelMGbTQQbS93OV6zpcD3ibWluixHMiYCnwbusBRahVwCUUeIam3enEEbZ9awX3K5V93US+hVxgN/A/zZUkjSmjlCVCUa6E1m2y0g7eniBqKrdw+wF3AahqGpWAScAYzEMFSrtyyTdhqIam1yWANyVg37ZZbnT1YWAl8F9sYwVJJ6xBGiKlEOgWiJm6EsBdZPtG2DvCxeZx5wOvBvxNQqpeE2YlToJEuhQvjyXSXctzlC1PMnZTcBnwGetBSS1HMGoipN3+qQVtauEUq57DI/FjiRWGxfaVgKjAIupJzNuSSpJ3JYZ9YRop4/KVpEBKE/82tEktadgai8qVYdtGvkai5B1qUYhqZmHvBjyyCphhwhmqbZnj/Jm45hqCQ1zGlM8qZadeAadpIkpSmHl9lza9gvcz1/JEklMxCVN9WqAwNRSZLSlMPL7DouZdLt+SNJKpmBqDynVQcGopIkpcm13+X5I0lqO8MjSXXgesmSJEmSJAkwEJUkSZIkSZJUI46akjrjFmBZYZ9pfbtVkiRJkiSlzkBU6owNLYEkSZIkSVL7OWVekiRJkiRJUm0YiEqSJEmSJEmqDQNRSZIkSZIkSbVhICpJkiRJkiSpNgxEJUmSJEmSJNWGgagkSZIkSZKk2uhnCSRJUo0MBTZ5zTEY6A8MeM3PlF8cb2tXSpIkSY0xEJUkSaUZBrwdGF4dO1Y/twbWtzySJElSvRmISpKk3L0NeBdwYHXsDPSxLJIkSZJWxUBUkiTlaGfgOOBj1Z8lSZIkqUcMRCVJUi6GAJ8B/oqYEi9JkiRJ68xAVJIkpW5zYDTwWSIUlSRJkqSGGYhKkqRUDQH+mRgVOsBySJIkSWoGA1FJkpSiY4EfAFtYCkmSJEnNZCAqSZJSsglwCXC4pZAkSZLUCgaikiQpFbsB1wBvsxSSJEmSWmU9SyBJkhJwFPAnDEMlSZIktZiBqCRJ6rSTgTHABpZCkiRJUqsZiEqSpE76CHAR0MdSSJIkSWoHA1FJktQpBwO/AfpaCkmSJEntYiAqSZI6YSvgamCgpZAkSZLUTgaikiSp3foAPwWGWgpJkiRJ7WYgKkmS2u0LwHssgyRJkqROMBCVJEnttCNwlmWQJEmS1CkGopIkqZ3OBAZYBkmSJEmdYiAqSZLaZQ/gWMsgSZIkqZMMRCVJUrt8m9hQSZIkSZI6xkBUkiS1w57AYZZBkiRJUqcZiEqSpHY41RJIkiRJSoGBqCRJarUBwAmWQZIkSVIKDEQlSVKrHQlsZBkkSZIkpaCfJZA6YjLwjGVom5mWQOqokyyBJEmSpFQYiEqd8QvgHy2DpBoYALzbMkiSJElKhVPmJUlSKx0ADLIMkiRJklJhICpJklrpUEsgSZIkKSVOmZckSa1UYiC6HFgIzAcWd6gN6wNv9vSSJEmS1p2BqCRJapXBwF6Ztr0bGAuMAx4FJgFPAHOIMLTT9gTu9RSTJEmS1p2BqCRJapVdyG95nkeAHwOXAlPtQqnlllgCef5IktrNQFSl6bYEkpSMXTP7/XE28A06Nw1eqqOuDNo4oIb9kstnXuglJElqhIGoSrPIEkhSMkZk0s6lwGHAH+wyyXu3VXhjDftlaCbt7PISkiQ1wl3m5U21154ktUougehXMAyVOiWHQGtoDfvFQFSSVDRDGXlT3Rn97SpJNbBTBm28ATjHrpI6JoeX2Qai6XLKvCSpIQaiKs0yYupj6gxEJdXB5hm08Ty7SeooR4j6mUs/fyRJCTIQVYlyGGlgICqpdBuR/qYck4Hr7Sqpo+Zm0MY6BqK5rJs6x0tIktQIA1GVyJEGktR5m2XQxsuI3eUldc6LGbTxjTV8bhqWSTtf8BKSJDXCQFQlymEtoTfZTZIKt2kGbRxvN0kdl0Og1Q/YtWb9snsm7ZzqJSRJaoSBqEo0LYM2bmI3SSpcDiNEJ9hNUsflMsJv/5r1y34ZtHEZ8JKXkCSpEQai8sa6M7a0myQVLvWlQZYBj9hNkvdtPbRfjfpkO/KYzfQiLnsiSWqQgahKlMPUmY1wlKiksqW+odIs8tiETyqdgaiftfRzR5KUIANRlSiXtYSG21WSCpZ6IDrfLpKSMCWTdu5EfTbFzGV5gMlePpKkRhmIqkS5vC3e3a6SVLCBibdvnl0kJeFpoCuDdvYB3lWTPjk4k3ZO9PKRJDXKQFQlymWE6EF2laSCOUJUUk8sAx7NpK0n1qA/9gBGZNLWh7x8JEmNMhBViZ7LpJ0GopJKlnogutQukpLxcCbt/DAwrPC+OCWjthqISpIaZiCqEk0ElmfQzs2Afe0uSYXqk3j7NrCLpGTkEoj2B/5vwf0wDDg5k7bmNLJYkpQgA1GVaC7wbCZt/Su7S1KhUl8TcLBdJCXj4Yza+kVg40L74cvAkEza+jiwyEtHktQoA1GVakIm7TweGGR3SSpQ6g+qjhCV0vFgRm0dAnyzwD7YhrxGv473spEk9YaBqEqVy5pCbwI+Z3dJKlDqI0SH2EVSMp4GJmfU3r8jn53Ye6IPcAl5jZwf62UjSeoNA1GVakJGbf0KsKFdJqkwOYwQfYvdJCXjloza2gf4KfFiuwRfJb+A92YvGUlSbxiIqlQ57Tq5CXCuXSapMPMzaOMudpOUjD9m1t63Ab8j//WITwC+nVmbn8cNlSRJvWQgqlI9DMzJqL2nAkfbbZIK8mIGbdzVbpKS8ccM2/wO4EryXZP4SGKkax/PFUlS3RiIqlTLMrxZ+gXwLruuR4YAHwHOB75jOaQkvZBBGw/KtLZ9gUM9xVSYZ6ojNx8AbgO2yKzdo4ExQP8Ma+50eUlSrxmIqmQ3ZtbewcTUK0PR1+sHvJPY1fV24GXgamAUcIzlkZKUQyB6ODAso5r2AY4lloX5nqeYCnRDpu0eCdwHHJVBWzcBLiWWa8rxWXB5xueJJCkhBqIq2Y0ZtnkI8db783YfOwCfI4LPl4E7gDOAA4iAdIXtgaGWS0pODlPm+wPHZ9DOvkQQOg64HNjJ00uF+nXGbd+UmD5/KbBNot8jpwATgeMyrvNtwBQvFUlSbxmIqmSTgOcybHc/4DzgemDnmvRVf2CP6kb9QmLK3GPAD4mp8UPW8M/2Afb2dJeSsxiYnkE7vwJslGjb3kC8IHucCEL39LRS4caSf9h1XHUPczGwYwLtGQCcXN0X/wR4U+b1/aWXiSSpGQxEVbobM277+4EHgQsoazTQBsT091HVw8J9wFzg/upG/VPA1uv479zXU11K0iMZtHEr4MeJtekA4uXQc8QLsm08lVQTy8l7lOgK/YC/JnZCvwP4DDFVvV36AgcC/04sX3IJMaMmd4uBK7xMJEnN+mUtlewq4KTMr9HPVsdNxE6g1wEzMmn/JsDuxKimkdWxA81/GbOPp7qUpInksS7yscQGbacTm/J1wu7EiPhPVt+TUl39CviHgj7PO6vjAmACsTTSHcRawE8AS5vw3xgGjKjusw4B3s2aZ9fk6jpgppeIJKkZDERVuuuAl2jvW/lWeW91LAPuJALSPxNrynVirb4BxMiqt650vPavB7epLQaiUpoeyaitXwX2Bz4OPN+G/94QYiToYcARrPvIeKlU44GHgV0L+1x9gN2qY3T1vy0mptc/R4zkfIFYN72rOhZV930DqmMgsZTGpsBmwObAdtVf18GvvDwkSc1iIKrSLalunkYX9JlWTIM6cKX/bSrwJPB0dUwhRpHOrH7OqW66l1Q/lwLrE9PXB1c/X/vnVf31FrwSdm5S3dyn4C1V2573lJeSMjGz9h5MjNgaA1wE3EpM4e2t9YHhwNuJ0PVAYkSoSxdJq3YBcH4NPmd/YmTnCLt8rSYD11gGSVKzGIiqDi6hrEB0VTavjgNr3M/7eKMsJWd8hm0eRExb/yTxkmU8Mc11QvVAPq865gMLq79/xUujDavv4i2JFzVbEWtA70iEopJ65mLg69Rn5KPW7vvEi31JkprCQFR18CCxYc9IS1E0A1EpPdOITUWGZ9r+Larjg3al1FZdwLnAdy2FiOWvLrIMkqRmcqqW6uInlqB47jQvpelWSyCpARcAsy2DgPOABZZBktRMBqKqi58QI5VUrr0tgZQkA1FJjZhDPdYR1drPgx9aBklSsxmIqi4W4LSr0m0EbG8ZpOQYiEpq1HnALMtQa/+KI4UlSS1gIKo6uYDYjV3lctq8lJ5nyXNzJUmdNx04zTLU1uPA9yyDJKkVDERVJ13AWZahaPtYAilJl1sCSQ36MXC3ZailvwUWWQZJUisYiKpuLgQmW4ZiGYhKaTIQldSobuAzwFJLUSu/BG6yDJKkVjEQVd0sAr5gGYo1EuhrGaTkPIbT5iU1bjzwA8tQGzOBL1kGSVIrGYiqjsYAv7EMRRoMjLAMUpJ+bgkk9cI3gScsQy2MBqZZBklSKxmIqq5GAS9YhiI5bV5K08XAPMsgqUHzgSP9Hinej/AFmiSpDQxEVVcziPWoVB4DUSlNs4GfWAZJvfAwcLJlKNbtxOhQSZJazkBUdXYtvoEu0b6WQErW/yc2SJGkRo0BzrIMxXkOOBZYYikkSe1gIKq6+1vgbstQlBHAIMsgJelJ4DLLIKmXvg783jIUYxFwNPCipZAktYuBqOpuAXBE9ZCuMvQD9rAMUrJOA7osg6Re6AZOAO6xFNlbAnzcvpQktZuBqAQvAR8EpluKYjhtXkrXM8B5lkFSL80G3gfcYSmytQg4BrjSUkiS2s1AVAqPAx8GFlqKIrixkpS2s3BqpKTemwN8ALjFUmSnCzgS+K2lkCR1goGo9Io7gaOAeZYiewaiUtrmAqMsg6QmmA8cBvzBUmRjAXA48N+WQpLUKQai0qtdDxwETLUUWdsBGGoZpKSNAS60DJKaYCEx02eMpUjeNGJU782WQpLUSQai0uvdD+wPTLQU2eoD7G0ZpOSNBh61DE3RTUwfluqqCzgW+AKxUY/ScyswErjdUkiSOs1AVFq1vwAHAGMtRbacNi+lbwFwPC5V0lv3AO8AfmgpJM4DDqzu5ZSG5cB3gPcAz1sOSVIKDESl1ZsFvB/4LrDMcmTHnealPDxA7DLsiK519zLwaWA/YByuxyetcA8xEtENe9L4njoc+Jr305KklBiISmu2GDiNGC06yXJkxRGiUj5uAE4iRhFp7bqB/wB2JNZhXVG3O4kNqyTBTOAjwN8RL7nVftcAewC/txSSpNQYiEo9czcx0uCc6kFUaZtDLNbfz1JI2fg1EVwYiq7ZNcCewGeBGa/5/5YAN1ki6X8tB84nNlv8Dxyh2C4PA+8DjgSmWA5JUooMRKWe6wK+ROxCf7/lSM4C4DLgaGBT4ERgqWWRsvJD4Ljq+1av9jtgLyJgGL+Gv89p89LrTSdeIuwJ3GI5WmYG8WJrD+BGyyFJSpmBqLTu7qgeSo8BHrIcHbUIuBo4AXgz8DHgKgxTpJxdARwCvGQpgJhqui9wBHBfD/7+6y2ZtFoPVt8vxwJPWI6m3o+tGIl7Pr6QliRlwEBUasxy4EpgN2KHZNcXbZ/niDXzjgSGAUcBvwHmWxqpGHcRGwXdWdPPvxC4mFiq5TDgz+vwzz4DPOopJK3RGGA4scaoy0w0birwTeCtxMjQGZZEkpQLA1Gpd5YDlwK7Ap8E/mRJmq6bCEe+Tkx125LYVfkaDEGlkj0FHAh8mfqM+n6SWJrlLcCngAca/Pc4bV7q2f3FtcChwAhijdEFlqVH7qnue7cG/gmYZkkkSbkxEJWad1P9K2I3+uHAd4iRjFp3y4mlCM4HPkqsB7o/cCau3SrV8bv1bOJlyB2FfsYuYsbBB4nppucQu2P3htPmpXXzMLHG6JbESxiXRHq92cAvqnuyd1T3vUssiyQpV+7ALDXfY8DXgNOJHTZPAT4MDLI0q9RNrOk1tjpuBV62LJJW8ggxWvQw4FvA3pl/nkXEKM7LiBFq85r877+FCFoHeupI62Qm8RLmbGBbYkr9R6rvn741rMfk6jvqmup7xQBUklQMA9E8PUg+0+HqPIWmmxilc331UHoAEZAeSqwLV8cR2suJTQzGAfdWx33AnEI+33hgowza+WyNzrmFmXxfzkM9cV11HEG8eNovo7bPAv5IjAa9tsXfewuJaazbJvC5n87sHBsJ9Em8jdP9KmiLp4Bzq2Nj4ENEOPp+4A0Ff+7xRAB6DT3byK1ESzO5d6jbd8GkDPqlDqPL7wMuWel35co/V/fndv//s2vQD08CF2XQzpkpN64PkjphGPAeIiA9iJgmWVpAOpvY2GMSMIFXAtA5dr+kJhkOnEisZffWxNq2ALgNuLk67iNelEnKWz9i7fi9q2Mf4O1A/ww/yxRi07ZxKx1ujCRJqgUDUSkNg4BdqhvqFccIYPPE2z23upn+C6+EnyuOF+xWSW28nzmYeMl0MBFQtDOcWESsQTi+Ou4lNh1ZbNdItdAf2I1XQtIdgK2IDdJSCEqnE7NDnq2+o1aEoC/adZKkOj9ASErXMGBHIhjdHNhspT+vON5Mc0eXziWGts+ofq748/PEWlJTVvo52y6SlKBBxMYf+xPBxPbAdtV3aKPmVN97U1b6HnysChceJaZYStJrn7U2JcLR1x6bAkOqY8PqZ0/X/e2u7tfmrHTMWum76dnq54qjy66QJOn1v6Ql5W296uF/YHUMWM2f1yNGK63umFvdTPtQL6lUGwBbE8HDBisdbyDWOF5ArL+5YKU/zyVeCM21fJLa8GzWD1h/pZ99qnuzpcSmRkuBZZZKkiRJkiRJkiRJkiRJkiRJkiRJkiRJkiRJkiRJkiRJkiRJkiRJkiRJkiRJkiRJkiRJkiRJkiRJkiRJkiRJkiRJkiRJkiRJkiRJkiRJkiRJkiRJkiRJkiRJkiRJkiRJkiRJkiRJkiRJkiRJkiRJkiRJkiRJkiRJkiRJkiRJkiRJkiRJkiRJkiRJkiRJkiRJkiRJkiRJkiRJkiRJkiRJkiRJkiRJkiRJkiRJkiRJkiRJkiRJkiRJkiRJkiRJkiRJkiRJkiRJkiRJkiRJkiRJkpSv/wG5XEfcRoBlLQAAAABJRU5ErkJggg==;" parent="1" vertex="1">
          <mxGeometry x="-814.69" y="1051" width="194.69" height="190.07" as="geometry" />
        </mxCell>
        <mxCell id="tTCNDWqaS0pplaEmAUnw-38" value="" style="endArrow=classic;startArrow=classic;html=1;rounded=0;strokeWidth=6;" parent="1" edge="1">
          <mxGeometry width="50" height="50" relative="1" as="geometry">
            <mxPoint x="4.18" y="1045.49" as="sourcePoint" />
            <mxPoint x="3.749999999999993" y="871" as="targetPoint" />
          </mxGeometry>
        </mxCell>
        <mxCell id="tTCNDWqaS0pplaEmAUnw-39" value="" style="endArrow=classic;startArrow=classic;html=1;rounded=0;strokeWidth=6;" parent="1" edge="1">
          <mxGeometry width="50" height="50" relative="1" as="geometry">
            <mxPoint x="20" y="1141" as="sourcePoint" />
            <mxPoint x="320" y="1140" as="targetPoint" />
          </mxGeometry>
        </mxCell>
        <mxCell id="tTCNDWqaS0pplaEmAUnw-43" value="&lt;font style=&quot;font-size: 24px;&quot;&gt;Amazon Route 53&lt;/font&gt;" style="sketch=0;outlineConnect=0;fontColor=#232F3E;gradientColor=none;strokeColor=#ffffff;fillColor=#232F3E;dashed=0;verticalLabelPosition=middle;verticalAlign=bottom;align=center;html=1;whiteSpace=wrap;fontSize=10;fontStyle=1;spacing=3;shape=mxgraph.aws4.productIcon;prIcon=mxgraph.aws4.route_53;" parent="1" vertex="1">
          <mxGeometry x="-140" y="1056" width="150" height="215" as="geometry" />
        </mxCell>
        <mxCell id="tTCNDWqaS0pplaEmAUnw-45" value="" style="group" parent="1" vertex="1" connectable="0">
          <mxGeometry x="-140" y="712.51" width="236" height="128" as="geometry" />
        </mxCell>
        <mxCell id="tTCNDWqaS0pplaEmAUnw-42" value="" style="group" parent="tTCNDWqaS0pplaEmAUnw-45" vertex="1" connectable="0">
          <mxGeometry y="38.49000000000001" width="236" height="78" as="geometry" />
        </mxCell>
        <mxCell id="tTCNDWqaS0pplaEmAUnw-41" value="&lt;font style=&quot;font-size: 28px;&quot;&gt;Users&#39;&lt;/font&gt;" style="text;html=1;align=center;verticalAlign=middle;resizable=0;points=[];autosize=1;strokeColor=none;fillColor=none;" parent="tTCNDWqaS0pplaEmAUnw-42" vertex="1">
          <mxGeometry x="-5" y="14" width="100" height="50" as="geometry" />
        </mxCell>
        <mxCell id="tTCNDWqaS0pplaEmAUnw-37" value="" style="sketch=0;outlineConnect=0;fontColor=#232F3E;gradientColor=none;fillColor=#232F3D;strokeColor=none;dashed=0;verticalLabelPosition=bottom;verticalAlign=top;align=center;html=1;fontSize=12;fontStyle=0;aspect=fixed;pointerEvents=1;shape=mxgraph.aws4.users;" parent="tTCNDWqaS0pplaEmAUnw-45" vertex="1">
          <mxGeometry x="92" width="128" height="128" as="geometry" />
        </mxCell>
        <mxCell id="tTCNDWqaS0pplaEmAUnw-49" value="" style="group" parent="1" vertex="1" connectable="0">
          <mxGeometry x="300" y="1071" width="165.5" height="170" as="geometry" />
        </mxCell>
        <mxCell id="tTCNDWqaS0pplaEmAUnw-46" value="" style="sketch=0;outlineConnect=0;fontColor=#232F3E;gradientColor=none;fillColor=#8C4FFF;strokeColor=none;dashed=0;verticalLabelPosition=bottom;verticalAlign=top;align=center;html=1;fontSize=12;fontStyle=0;aspect=fixed;pointerEvents=1;shape=mxgraph.aws4.internet_gateway;" parent="tTCNDWqaS0pplaEmAUnw-49" vertex="1">
          <mxGeometry x="17.075396825396826" width="131.34920634920636" height="131.34920634920636" as="geometry" />
        </mxCell>
        <mxCell id="tTCNDWqaS0pplaEmAUnw-47" value="&lt;font style=&quot;font-size: 23px;&quot;&gt;Internet Gateway&lt;/font&gt;" style="text;html=1;align=center;verticalAlign=middle;whiteSpace=wrap;rounded=0;" parent="tTCNDWqaS0pplaEmAUnw-49" vertex="1">
          <mxGeometry y="143.1578947368421" width="165.5" height="26.842105263157894" as="geometry" />
        </mxCell>
        <mxCell id="tTCNDWqaS0pplaEmAUnw-79" value="" style="group" parent="1" vertex="1" connectable="0">
          <mxGeometry x="810" y="1068.5" width="120" height="160" as="geometry" />
        </mxCell>
        <mxCell id="tTCNDWqaS0pplaEmAUnw-2" value="" style="sketch=0;points=[[0,0,0],[0.25,0,0],[0.5,0,0],[0.75,0,0],[1,0,0],[0,1,0],[0.25,1,0],[0.5,1,0],[0.75,1,0],[1,1,0],[0,0.25,0],[0,0.5,0],[0,0.75,0],[1,0.25,0],[1,0.5,0],[1,0.75,0]];outlineConnect=0;fontColor=#232F3E;fillColor=#ED7100;strokeColor=#ffffff;dashed=0;verticalLabelPosition=bottom;verticalAlign=top;align=center;html=1;fontSize=12;fontStyle=0;aspect=fixed;shape=mxgraph.aws4.resourceIcon;resIcon=mxgraph.aws4.elastic_load_balancing;" parent="tTCNDWqaS0pplaEmAUnw-79" vertex="1">
          <mxGeometry width="120" height="120" as="geometry" />
        </mxCell>
        <mxCell id="tTCNDWqaS0pplaEmAUnw-3" value="&lt;font style=&quot;font-size: 25px;&quot;&gt;Load_balancing&lt;/font&gt;" style="text;html=1;align=center;verticalAlign=middle;whiteSpace=wrap;rounded=0;" parent="tTCNDWqaS0pplaEmAUnw-79" vertex="1">
          <mxGeometry x="40" y="130" width="60" height="30" as="geometry" />
        </mxCell>
        <mxCell id="tTCNDWqaS0pplaEmAUnw-80" value="" style="endArrow=classic;startArrow=classic;html=1;rounded=0;strokeWidth=6;" parent="1" edge="1">
          <mxGeometry width="50" height="50" relative="1" as="geometry">
            <mxPoint x="450" y="1132.5" as="sourcePoint" />
            <mxPoint x="800" y="1132.5" as="targetPoint" />
          </mxGeometry>
        </mxCell>
        <mxCell id="tTCNDWqaS0pplaEmAUnw-81" value="" style="group" parent="1" vertex="1" connectable="0">
          <mxGeometry x="1290" y="1053.5" width="200" height="167" as="geometry" />
        </mxCell>
        <mxCell id="tTCNDWqaS0pplaEmAUnw-1" value="" style="sketch=0;outlineConnect=0;fontColor=#232F3E;gradientColor=none;fillColor=#ED7100;strokeColor=none;dashed=0;verticalLabelPosition=bottom;verticalAlign=top;align=center;html=1;fontSize=12;fontStyle=0;aspect=fixed;pointerEvents=1;shape=mxgraph.aws4.auto_scaling2;" parent="tTCNDWqaS0pplaEmAUnw-81" vertex="1">
          <mxGeometry width="167" height="167" as="geometry" />
        </mxCell>
        <mxCell id="tTCNDWqaS0pplaEmAUnw-5" value="&lt;font style=&quot;font-size: 27px;&quot;&gt;auto scaling&lt;/font&gt;" style="text;html=1;align=center;verticalAlign=middle;whiteSpace=wrap;rounded=0;" parent="tTCNDWqaS0pplaEmAUnw-81" vertex="1">
          <mxGeometry x="120" y="125" width="80" height="30" as="geometry" />
        </mxCell>
        <mxCell id="tTCNDWqaS0pplaEmAUnw-107" value="" style="group;fillColor=#d5e8d4;strokeColor=#82b366;" parent="1" vertex="1" connectable="0">
          <mxGeometry x="1610" y="1383.5" width="400" height="240" as="geometry" />
        </mxCell>
        <mxCell id="tTCNDWqaS0pplaEmAUnw-108" value="" style="rounded=0;whiteSpace=wrap;html=1;fillColor=#d5e8d4;strokeColor=#82b366;" parent="tTCNDWqaS0pplaEmAUnw-107" vertex="1">
          <mxGeometry width="400" height="240" as="geometry" />
        </mxCell>
        <mxCell id="tTCNDWqaS0pplaEmAUnw-109" value="" style="sketch=0;pointerEvents=1;shadow=0;dashed=0;html=1;strokeColor=#b85450;labelPosition=center;verticalLabelPosition=bottom;verticalAlign=top;outlineConnect=0;align=center;shape=mxgraph.office.security.lock_protected;fillColor=#f8cecc;" parent="tTCNDWqaS0pplaEmAUnw-107" vertex="1">
          <mxGeometry x="11.11111111111111" y="10" width="40" height="42" as="geometry" />
        </mxCell>
        <mxCell id="tTCNDWqaS0pplaEmAUnw-110" value="&lt;font style=&quot;font-size: 18px;&quot;&gt;prestashop_private_address&lt;/font&gt;&lt;div&gt;&lt;font style=&quot;font-size: 18px;&quot;&gt;10.0.5.0/24&lt;/font&gt;&lt;/div&gt;" style="text;html=1;align=center;verticalAlign=middle;resizable=0;points=[];autosize=1;strokeColor=none;fillColor=none;" parent="tTCNDWqaS0pplaEmAUnw-107" vertex="1">
          <mxGeometry x="61.66666666666667" y="1" width="250" height="60" as="geometry" />
        </mxCell>
        <mxCell id="tTCNDWqaS0pplaEmAUnw-111" value="" style="group" parent="1" vertex="1" connectable="0">
          <mxGeometry x="1720" y="1461.5" width="234" height="137" as="geometry" />
        </mxCell>
        <mxCell id="tTCNDWqaS0pplaEmAUnw-112" value="" style="sketch=0;outlineConnect=0;fontColor=#232F3E;gradientColor=none;fillColor=#C925D1;strokeColor=none;dashed=0;verticalLabelPosition=bottom;verticalAlign=top;align=center;html=1;fontSize=12;fontStyle=0;aspect=fixed;pointerEvents=1;shape=mxgraph.aws4.rds_instance;" parent="tTCNDWqaS0pplaEmAUnw-111" vertex="1">
          <mxGeometry width="137" height="137" as="geometry" />
        </mxCell>
        <mxCell id="tTCNDWqaS0pplaEmAUnw-113" value="&lt;font style=&quot;font-size: 24px;&quot;&gt;Master DB&lt;/font&gt;" style="text;html=1;align=center;verticalAlign=middle;whiteSpace=wrap;rounded=0;" parent="tTCNDWqaS0pplaEmAUnw-111" vertex="1">
          <mxGeometry x="150" y="64" width="84" height="30" as="geometry" />
        </mxCell>
        <mxCell id="tTCNDWqaS0pplaEmAUnw-115" value="" style="group" parent="1" vertex="1" connectable="0">
          <mxGeometry x="550" y="1343.5" width="46" height="40" as="geometry" />
        </mxCell>
        <mxCell id="tTCNDWqaS0pplaEmAUnw-116" value="" style="rounded=0;whiteSpace=wrap;html=1;fillColor=#1A1A1A;" parent="tTCNDWqaS0pplaEmAUnw-115" vertex="1">
          <mxGeometry width="46" height="40" as="geometry" />
        </mxCell>
        <mxCell id="tTCNDWqaS0pplaEmAUnw-117" value="" style="html=1;verticalLabelPosition=bottom;align=center;labelBackgroundColor=#ffffff;verticalAlign=top;strokeWidth=2;strokeColor=light-dark(#0d0d0d, #32a0ff);shadow=0;dashed=0;shape=mxgraph.ios7.icons.lightbulb;" parent="tTCNDWqaS0pplaEmAUnw-115" vertex="1">
          <mxGeometry x="8" width="30" height="39.7" as="geometry" />
        </mxCell>
        <mxCell id="tTCNDWqaS0pplaEmAUnw-118" value="&lt;font style=&quot;font-size: 23px;&quot;&gt;Availability Zone 2&lt;/font&gt;" style="text;html=1;align=center;verticalAlign=middle;resizable=0;points=[];autosize=1;strokeColor=none;fillColor=none;" parent="1" vertex="1">
          <mxGeometry x="590" y="1344.5" width="210" height="40" as="geometry" />
        </mxCell>
        <mxCell id="tTCNDWqaS0pplaEmAUnw-94" value="" style="rounded=0;whiteSpace=wrap;html=1;fillColor=#fff2cc;strokeColor=#d6b656;" parent="1" vertex="1">
          <mxGeometry x="650" y="1383.5" width="400" height="240" as="geometry" />
        </mxCell>
        <mxCell id="tTCNDWqaS0pplaEmAUnw-95" value="" style="sketch=0;pointerEvents=1;shadow=0;dashed=0;html=1;strokeColor=#6c8ebf;labelPosition=center;verticalLabelPosition=bottom;verticalAlign=top;outlineConnect=0;align=center;shape=mxgraph.office.security.lock_protected;fillColor=#dae8fc;" parent="1" vertex="1">
          <mxGeometry x="661.1111111111111" y="1393.5" width="40" height="42" as="geometry" />
        </mxCell>
        <mxCell id="tTCNDWqaS0pplaEmAUnw-96" value="&lt;font style=&quot;font-size: 18px;&quot;&gt;prestashop_public_address&lt;/font&gt;&lt;div&gt;&lt;font style=&quot;font-size: 18px;&quot;&gt;10.0.1.0/24&lt;/font&gt;&lt;/div&gt;" style="text;html=1;align=center;verticalAlign=middle;resizable=0;points=[];autosize=1;strokeColor=none;fillColor=none;" parent="1" vertex="1">
          <mxGeometry x="716.6666666666666" y="1384.5" width="240" height="60" as="geometry" />
        </mxCell>
        <mxCell id="tTCNDWqaS0pplaEmAUnw-97" value="" style="group" parent="1" vertex="1" connectable="0">
          <mxGeometry x="770" y="1444.5" width="160" height="171.01999999999998" as="geometry" />
        </mxCell>
        <mxCell id="tTCNDWqaS0pplaEmAUnw-98" value="" style="sketch=0;outlineConnect=0;fontColor=#232F3E;gradientColor=none;fillColor=#8C4FFF;strokeColor=none;dashed=0;verticalLabelPosition=bottom;verticalAlign=top;align=center;html=1;fontSize=12;fontStyle=0;aspect=fixed;pointerEvents=1;shape=mxgraph.aws4.nat_gateway;" parent="tTCNDWqaS0pplaEmAUnw-97" vertex="1">
          <mxGeometry x="11.5" width="137" height="137" as="geometry" />
        </mxCell>
        <mxCell id="tTCNDWqaS0pplaEmAUnw-99" value="&lt;font style=&quot;font-size: 23px;&quot;&gt;NAT gateway&lt;/font&gt;" style="text;html=1;align=center;verticalAlign=middle;whiteSpace=wrap;rounded=0;" parent="tTCNDWqaS0pplaEmAUnw-97" vertex="1">
          <mxGeometry y="141.01999999999998" width="160" height="30" as="geometry" />
        </mxCell>
        <mxCell id="tTCNDWqaS0pplaEmAUnw-56" value="" style="group" parent="1" vertex="1" connectable="0">
          <mxGeometry x="660" y="673.5" width="400" height="240" as="geometry" />
        </mxCell>
        <mxCell id="tTCNDWqaS0pplaEmAUnw-53" value="" style="rounded=0;whiteSpace=wrap;html=1;fillColor=#fff2cc;strokeColor=#d6b656;" parent="tTCNDWqaS0pplaEmAUnw-56" vertex="1">
          <mxGeometry width="400" height="240" as="geometry" />
        </mxCell>
        <mxCell id="tTCNDWqaS0pplaEmAUnw-54" value="" style="sketch=0;pointerEvents=1;shadow=0;dashed=0;html=1;strokeColor=#6c8ebf;labelPosition=center;verticalLabelPosition=bottom;verticalAlign=top;outlineConnect=0;align=center;shape=mxgraph.office.security.lock_protected;fillColor=#dae8fc;" parent="tTCNDWqaS0pplaEmAUnw-56" vertex="1">
          <mxGeometry x="11.11111111111111" y="10" width="40" height="42" as="geometry" />
        </mxCell>
        <mxCell id="tTCNDWqaS0pplaEmAUnw-55" value="&lt;font style=&quot;font-size: 18px;&quot;&gt;prestashop_public_address&lt;/font&gt;&lt;div&gt;&lt;font style=&quot;font-size: 18px;&quot;&gt;10.0.0.0/24&lt;/font&gt;&lt;/div&gt;" style="text;html=1;align=center;verticalAlign=middle;resizable=0;points=[];autosize=1;strokeColor=none;fillColor=none;" parent="tTCNDWqaS0pplaEmAUnw-56" vertex="1">
          <mxGeometry x="66.66666666666667" y="1" width="240" height="60" as="geometry" />
        </mxCell>
        <mxCell id="tTCNDWqaS0pplaEmAUnw-50" value="" style="group" parent="tTCNDWqaS0pplaEmAUnw-56" vertex="1" connectable="0">
          <mxGeometry x="120" y="61" width="160" height="171.01999999999998" as="geometry" />
        </mxCell>
        <mxCell id="tTCNDWqaS0pplaEmAUnw-24" value="" style="sketch=0;outlineConnect=0;fontColor=#232F3E;gradientColor=none;fillColor=#8C4FFF;strokeColor=none;dashed=0;verticalLabelPosition=bottom;verticalAlign=top;align=center;html=1;fontSize=12;fontStyle=0;aspect=fixed;pointerEvents=1;shape=mxgraph.aws4.nat_gateway;" parent="tTCNDWqaS0pplaEmAUnw-50" vertex="1">
          <mxGeometry x="11.5" width="137" height="137" as="geometry" />
        </mxCell>
        <mxCell id="tTCNDWqaS0pplaEmAUnw-25" value="&lt;font style=&quot;font-size: 23px;&quot;&gt;NAT gateway&lt;/font&gt;" style="text;html=1;align=center;verticalAlign=middle;whiteSpace=wrap;rounded=0;" parent="tTCNDWqaS0pplaEmAUnw-50" vertex="1">
          <mxGeometry y="141.01999999999998" width="160" height="30" as="geometry" />
        </mxCell>
        <mxCell id="tTCNDWqaS0pplaEmAUnw-58" value="" style="group;fillColor=#dae8fc;strokeColor=#6c8ebf;" parent="1" vertex="1" connectable="0">
          <mxGeometry x="1140" y="673.5" width="400" height="240" as="geometry" />
        </mxCell>
        <mxCell id="tTCNDWqaS0pplaEmAUnw-59" value="" style="rounded=0;whiteSpace=wrap;html=1;fillColor=#dae8fc;strokeColor=#6c8ebf;" parent="tTCNDWqaS0pplaEmAUnw-58" vertex="1">
          <mxGeometry width="400" height="240" as="geometry" />
        </mxCell>
        <mxCell id="tTCNDWqaS0pplaEmAUnw-60" value="" style="sketch=0;pointerEvents=1;shadow=0;dashed=0;html=1;strokeColor=#d6b656;labelPosition=center;verticalLabelPosition=bottom;verticalAlign=top;outlineConnect=0;align=center;shape=mxgraph.office.security.lock_protected;fillColor=#fff2cc;" parent="tTCNDWqaS0pplaEmAUnw-58" vertex="1">
          <mxGeometry x="11.11111111111111" y="10" width="40" height="42" as="geometry" />
        </mxCell>
        <mxCell id="tTCNDWqaS0pplaEmAUnw-61" value="&lt;font style=&quot;font-size: 18px;&quot;&gt;prestashop_private_address&lt;/font&gt;&lt;div&gt;&lt;font style=&quot;font-size: 18px;&quot;&gt;10.0.2.0/24&lt;/font&gt;&lt;/div&gt;" style="text;html=1;align=center;verticalAlign=middle;resizable=0;points=[];autosize=1;strokeColor=none;fillColor=none;" parent="tTCNDWqaS0pplaEmAUnw-58" vertex="1">
          <mxGeometry x="61.66666666666667" y="1" width="250" height="60" as="geometry" />
        </mxCell>
        <mxCell id="tTCNDWqaS0pplaEmAUnw-67" value="" style="group" parent="tTCNDWqaS0pplaEmAUnw-58" vertex="1" connectable="0">
          <mxGeometry x="110" y="65" width="250" height="150" as="geometry" />
        </mxCell>
        <mxCell id="tTCNDWqaS0pplaEmAUnw-17" value="" style="sketch=0;points=[[0,0,0],[0.25,0,0],[0.5,0,0],[0.75,0,0],[1,0,0],[0,1,0],[0.25,1,0],[0.5,1,0],[0.75,1,0],[1,1,0],[0,0.25,0],[0,0.5,0],[0,0.75,0],[1,0.25,0],[1,0.5,0],[1,0.75,0]];outlineConnect=0;fontColor=#232F3E;fillColor=#ED7100;strokeColor=#ffffff;dashed=0;verticalLabelPosition=bottom;verticalAlign=top;align=center;html=1;fontSize=12;fontStyle=0;aspect=fixed;shape=mxgraph.aws4.resourceIcon;resIcon=mxgraph.aws4.ec2;" parent="tTCNDWqaS0pplaEmAUnw-67" vertex="1">
          <mxGeometry width="150" height="150" as="geometry" />
        </mxCell>
        <mxCell id="tTCNDWqaS0pplaEmAUnw-18" value="&lt;font style=&quot;font-size: 24px;&quot;&gt;Webserver&lt;/font&gt;&lt;div&gt;&lt;br&gt;&lt;/div&gt;" style="text;html=1;align=center;verticalAlign=middle;whiteSpace=wrap;rounded=0;" parent="tTCNDWqaS0pplaEmAUnw-67" vertex="1">
          <mxGeometry x="190" y="80" width="60" height="30" as="geometry" />
        </mxCell>
        <mxCell id="tTCNDWqaS0pplaEmAUnw-69" value="" style="group;fillColor=#d5e8d4;strokeColor=#82b366;" parent="1" vertex="1" connectable="0">
          <mxGeometry x="1620" y="673.5" width="400" height="240" as="geometry" />
        </mxCell>
        <mxCell id="tTCNDWqaS0pplaEmAUnw-70" value="" style="rounded=0;whiteSpace=wrap;html=1;fillColor=#d5e8d4;strokeColor=#82b366;" parent="tTCNDWqaS0pplaEmAUnw-69" vertex="1">
          <mxGeometry width="400" height="240" as="geometry" />
        </mxCell>
        <mxCell id="tTCNDWqaS0pplaEmAUnw-71" value="" style="sketch=0;pointerEvents=1;shadow=0;dashed=0;html=1;strokeColor=#b85450;labelPosition=center;verticalLabelPosition=bottom;verticalAlign=top;outlineConnect=0;align=center;shape=mxgraph.office.security.lock_protected;fillColor=#f8cecc;" parent="tTCNDWqaS0pplaEmAUnw-69" vertex="1">
          <mxGeometry x="11.11111111111111" y="10" width="40" height="42" as="geometry" />
        </mxCell>
        <mxCell id="tTCNDWqaS0pplaEmAUnw-72" value="&lt;font style=&quot;font-size: 18px;&quot;&gt;prestashop_private_address&lt;/font&gt;&lt;div&gt;&lt;font style=&quot;font-size: 18px;&quot;&gt;10.0.4.0/24&lt;/font&gt;&lt;/div&gt;" style="text;html=1;align=center;verticalAlign=middle;resizable=0;points=[];autosize=1;strokeColor=none;fillColor=none;" parent="tTCNDWqaS0pplaEmAUnw-69" vertex="1">
          <mxGeometry x="61.66666666666667" y="1" width="250" height="60" as="geometry" />
        </mxCell>
        <mxCell id="tTCNDWqaS0pplaEmAUnw-77" value="" style="group" parent="1" vertex="1" connectable="0">
          <mxGeometry x="1730" y="751.5" width="234" height="137" as="geometry" />
        </mxCell>
        <mxCell id="tTCNDWqaS0pplaEmAUnw-14" value="" style="sketch=0;outlineConnect=0;fontColor=#232F3E;gradientColor=none;fillColor=#C925D1;strokeColor=none;dashed=0;verticalLabelPosition=bottom;verticalAlign=top;align=center;html=1;fontSize=12;fontStyle=0;aspect=fixed;pointerEvents=1;shape=mxgraph.aws4.rds_instance;" parent="tTCNDWqaS0pplaEmAUnw-77" vertex="1">
          <mxGeometry width="137" height="137" as="geometry" />
        </mxCell>
        <mxCell id="tTCNDWqaS0pplaEmAUnw-15" value="&lt;font style=&quot;font-size: 24px;&quot;&gt;StandBy DB&lt;/font&gt;" style="text;html=1;align=center;verticalAlign=middle;whiteSpace=wrap;rounded=0;" parent="tTCNDWqaS0pplaEmAUnw-77" vertex="1">
          <mxGeometry x="150" y="64" width="84" height="30" as="geometry" />
        </mxCell>
        <mxCell id="tTCNDWqaS0pplaEmAUnw-86" value="" style="group" parent="1" vertex="1" connectable="0">
          <mxGeometry x="560" y="633.5" width="46" height="40" as="geometry" />
        </mxCell>
        <mxCell id="tTCNDWqaS0pplaEmAUnw-84" value="" style="rounded=0;whiteSpace=wrap;html=1;fillColor=#1A1A1A;" parent="tTCNDWqaS0pplaEmAUnw-86" vertex="1">
          <mxGeometry width="46" height="40" as="geometry" />
        </mxCell>
        <mxCell id="tTCNDWqaS0pplaEmAUnw-83" value="" style="html=1;verticalLabelPosition=bottom;align=center;labelBackgroundColor=#ffffff;verticalAlign=top;strokeWidth=2;strokeColor=light-dark(#0d0d0d, #32a0ff);shadow=0;dashed=0;shape=mxgraph.ios7.icons.lightbulb;" parent="tTCNDWqaS0pplaEmAUnw-86" vertex="1">
          <mxGeometry x="8" width="30" height="39.7" as="geometry" />
        </mxCell>
        <mxCell id="tTCNDWqaS0pplaEmAUnw-90" value="&lt;font style=&quot;font-size: 23px;&quot;&gt;Availability Zone 1&lt;/font&gt;" style="text;html=1;align=center;verticalAlign=middle;resizable=0;points=[];autosize=1;strokeColor=none;fillColor=none;" parent="1" vertex="1">
          <mxGeometry x="597" y="633.5" width="210" height="40" as="geometry" />
        </mxCell>
        <mxCell id="tTCNDWqaS0pplaEmAUnw-150" value="" style="rounded=0;whiteSpace=wrap;html=1;fillColor=none;dashed=1;strokeWidth=3;" parent="1" vertex="1">
          <mxGeometry x="550" y="1342" width="1530" height="320" as="geometry" />
        </mxCell>
        <mxCell id="tTCNDWqaS0pplaEmAUnw-155" value="" style="endArrow=classic;startArrow=classic;html=1;rounded=0;strokeWidth=2;exitX=0;exitY=0.633;exitDx=0;exitDy=0;exitPerimeter=0;" parent="1" source="tTCNDWqaS0pplaEmAUnw-105" edge="1">
          <mxGeometry width="50" height="50" relative="1" as="geometry">
            <mxPoint x="1220" y="1543.5" as="sourcePoint" />
            <mxPoint x="1250" y="793.5" as="targetPoint" />
            <Array as="points">
              <mxPoint x="1120" y="1543.5" />
              <mxPoint x="1090" y="1543.5" />
              <mxPoint x="1090" y="793.5" />
            </Array>
          </mxGeometry>
        </mxCell>
        <mxCell id="tTCNDWqaS0pplaEmAUnw-100" value="" style="group;fillColor=#dae8fc;strokeColor=#6c8ebf;" parent="1" vertex="1" connectable="0">
          <mxGeometry x="1130" y="1383.5" width="400" height="240" as="geometry" />
        </mxCell>
        <mxCell id="tTCNDWqaS0pplaEmAUnw-101" value="" style="rounded=0;whiteSpace=wrap;html=1;fillColor=#dae8fc;strokeColor=#6c8ebf;" parent="tTCNDWqaS0pplaEmAUnw-100" vertex="1">
          <mxGeometry width="400" height="240" as="geometry" />
        </mxCell>
        <mxCell id="tTCNDWqaS0pplaEmAUnw-102" value="" style="sketch=0;pointerEvents=1;shadow=0;dashed=0;html=1;strokeColor=#d6b656;labelPosition=center;verticalLabelPosition=bottom;verticalAlign=top;outlineConnect=0;align=center;shape=mxgraph.office.security.lock_protected;fillColor=#fff2cc;" parent="tTCNDWqaS0pplaEmAUnw-100" vertex="1">
          <mxGeometry x="11.11111111111111" y="10" width="40" height="42" as="geometry" />
        </mxCell>
        <mxCell id="tTCNDWqaS0pplaEmAUnw-103" value="&lt;font style=&quot;font-size: 18px;&quot;&gt;prestashop_private_address&lt;/font&gt;&lt;div&gt;&lt;font style=&quot;font-size: 18px;&quot;&gt;10.0.3.0/24&lt;/font&gt;&lt;/div&gt;" style="text;html=1;align=center;verticalAlign=middle;resizable=0;points=[];autosize=1;strokeColor=none;fillColor=none;" parent="tTCNDWqaS0pplaEmAUnw-100" vertex="1">
          <mxGeometry x="61.66666666666667" y="1" width="250" height="60" as="geometry" />
        </mxCell>
        <mxCell id="tTCNDWqaS0pplaEmAUnw-104" value="" style="group" parent="tTCNDWqaS0pplaEmAUnw-100" vertex="1" connectable="0">
          <mxGeometry x="110" y="65" width="250" height="150" as="geometry" />
        </mxCell>
        <mxCell id="tTCNDWqaS0pplaEmAUnw-105" value="" style="sketch=0;points=[[0,0,0],[0.25,0,0],[0.5,0,0],[0.75,0,0],[1,0,0],[0,1,0],[0.25,1,0],[0.5,1,0],[0.75,1,0],[1,1,0],[0,0.25,0],[0,0.5,0],[0,0.75,0],[1,0.25,0],[1,0.5,0],[1,0.75,0]];outlineConnect=0;fontColor=#232F3E;fillColor=#ED7100;strokeColor=#ffffff;dashed=0;verticalLabelPosition=bottom;verticalAlign=top;align=center;html=1;fontSize=12;fontStyle=0;aspect=fixed;shape=mxgraph.aws4.resourceIcon;resIcon=mxgraph.aws4.ec2;" parent="tTCNDWqaS0pplaEmAUnw-104" vertex="1">
          <mxGeometry width="150" height="150" as="geometry" />
        </mxCell>
        <mxCell id="tTCNDWqaS0pplaEmAUnw-106" value="&lt;font style=&quot;font-size: 24px;&quot;&gt;Webserver&lt;/font&gt;&lt;div&gt;&lt;br&gt;&lt;/div&gt;" style="text;html=1;align=center;verticalAlign=middle;whiteSpace=wrap;rounded=0;" parent="tTCNDWqaS0pplaEmAUnw-104" vertex="1">
          <mxGeometry x="190" y="80" width="60" height="30" as="geometry" />
        </mxCell>
        <mxCell id="tTCNDWqaS0pplaEmAUnw-157" value="" style="endArrow=classic;html=1;rounded=0;strokeWidth=2;entryX=-0.015;entryY=0.675;entryDx=0;entryDy=0;entryPerimeter=0;" parent="tTCNDWqaS0pplaEmAUnw-100" target="tTCNDWqaS0pplaEmAUnw-112" edge="1">
          <mxGeometry width="50" height="50" relative="1" as="geometry">
            <mxPoint x="260" y="170" as="sourcePoint" />
            <mxPoint x="570" y="170" as="targetPoint" />
          </mxGeometry>
        </mxCell>
        <mxCell id="tTCNDWqaS0pplaEmAUnw-124" value="" style="endArrow=classic;html=1;rounded=0;strokeWidth=2;entryX=1;entryY=0.367;entryDx=0;entryDy=0;entryPerimeter=0;" parent="1" target="tTCNDWqaS0pplaEmAUnw-17" edge="1">
          <mxGeometry width="50" height="50" relative="1" as="geometry">
            <mxPoint x="1570" y="1553.5" as="sourcePoint" />
            <mxPoint x="1470" y="1143.5" as="targetPoint" />
            <Array as="points">
              <mxPoint x="1570" y="793.5" />
            </Array>
          </mxGeometry>
        </mxCell>
        <mxCell id="tTCNDWqaS0pplaEmAUnw-158" value="" style="endArrow=none;dashed=1;html=1;rounded=0;exitX=0.567;exitY=0.139;exitDx=0;exitDy=0;exitPerimeter=0;strokeWidth=2;" parent="1" source="tTCNDWqaS0pplaEmAUnw-112" target="tTCNDWqaS0pplaEmAUnw-14" edge="1">
          <mxGeometry width="50" height="50" relative="1" as="geometry">
            <mxPoint x="2140" y="1283.5" as="sourcePoint" />
            <mxPoint x="2190" y="1233.5" as="targetPoint" />
          </mxGeometry>
        </mxCell>
        <mxCell id="tTCNDWqaS0pplaEmAUnw-159" value="" style="endArrow=none;html=1;rounded=0;strokeWidth=7;" parent="1" edge="1">
          <mxGeometry width="50" height="50" relative="1" as="geometry">
            <mxPoint x="930" y="1135.57" as="sourcePoint" />
            <mxPoint x="1090" y="1135.5" as="targetPoint" />
            <Array as="points">
              <mxPoint x="1020" y="1135.57" />
            </Array>
          </mxGeometry>
        </mxCell>
        <mxCell id="tTCNDWqaS0pplaEmAUnw-160" value="" style="rounded=0;whiteSpace=wrap;html=1;fillColor=none;dashed=1;strokeWidth=3;" parent="1" vertex="1">
          <mxGeometry x="560" y="633.5" width="1530" height="320" as="geometry" />
        </mxCell>
        <mxCell id="tTCNDWqaS0pplaEmAUnw-161" value="" style="rounded=0;whiteSpace=wrap;html=1;fillColor=none;strokeColor=#00CC00;strokeWidth=3;" parent="1" vertex="1">
          <mxGeometry x="380" y="527.25" width="1750" height="1242.5" as="geometry" />
        </mxCell>
        <mxCell id="tTCNDWqaS0pplaEmAUnw-165" value="" style="outlineConnect=0;dashed=0;verticalLabelPosition=bottom;verticalAlign=top;align=center;html=1;shape=mxgraph.aws3.route_table;fillColor=#1A1A1A;gradientColor=none;" parent="1" vertex="1">
          <mxGeometry x="380" y="531" width="70" height="40" as="geometry" />
        </mxCell>
        <mxCell id="tTCNDWqaS0pplaEmAUnw-169" value="&lt;font style=&quot;font-size: 20px;&quot;&gt;VPC 10.0.0.0/18&lt;/font&gt;" style="text;html=1;align=center;verticalAlign=middle;resizable=0;points=[];autosize=1;strokeColor=none;fillColor=none;" parent="1" vertex="1">
          <mxGeometry x="450" y="531" width="170" height="40" as="geometry" />
        </mxCell>
        <mxCell id="tTCNDWqaS0pplaEmAUnw-176" value="" style="endArrow=classic;html=1;rounded=0;exitX=1;exitY=0.5;exitDx=0;exitDy=0;strokeWidth=7;entryX=0;entryY=0.5;entryDx=0;entryDy=0;" parent="1" target="tTCNDWqaS0pplaEmAUnw-173" edge="1">
          <mxGeometry width="50" height="50" relative="1" as="geometry">
            <mxPoint x="-690" y="1144.6450000000004" as="sourcePoint" />
            <mxPoint x="-310" y="1145" as="targetPoint" />
          </mxGeometry>
        </mxCell>
        <mxCell id="tTCNDWqaS0pplaEmAUnw-179" value="" style="group" parent="1" vertex="1" connectable="0">
          <mxGeometry x="2120" y="1043.0900000000001" width="280" height="225.81967213114754" as="geometry" />
        </mxCell>
        <mxCell id="tTCNDWqaS0pplaEmAUnw-177" value="" style="sketch=0;points=[[0,0,0],[0.25,0,0],[0.5,0,0],[0.75,0,0],[1,0,0],[0,1,0],[0.25,1,0],[0.5,1,0],[0.75,1,0],[1,1,0],[0,0.25,0],[0,0.5,0],[0,0.75,0],[1,0.25,0],[1,0.5,0],[1,0.75,0]];outlineConnect=0;fontColor=#232F3E;fillColor=#1A1A1A;strokeColor=#FFFFFF;dashed=0;verticalLabelPosition=bottom;verticalAlign=top;align=center;html=1;fontSize=12;fontStyle=0;aspect=fixed;shape=mxgraph.aws4.resourceIcon;resIcon=mxgraph.aws4.dynamodb;" parent="tTCNDWqaS0pplaEmAUnw-179" vertex="1">
          <mxGeometry x="50" width="145.5737704918033" height="145.5737704918033" as="geometry" />
        </mxCell>
        <mxCell id="tTCNDWqaS0pplaEmAUnw-178" value="&lt;font style=&quot;font-size: 28px;&quot;&gt;Amazon&amp;nbsp;&lt;/font&gt;&lt;div&gt;&lt;font style=&quot;font-size: 28px;&quot;&gt;Dynamo DB&lt;/font&gt;&lt;/div&gt;" style="text;html=1;align=center;verticalAlign=middle;resizable=0;points=[];autosize=1;strokeColor=none;fillColor=none;" parent="tTCNDWqaS0pplaEmAUnw-179" vertex="1">
          <mxGeometry x="55" y="145.81967213114754" width="170" height="80" as="geometry" />
        </mxCell>
        <mxCell id="tTCNDWqaS0pplaEmAUnw-182" value="" style="group" parent="1" vertex="1" connectable="0">
          <mxGeometry x="2150" y="583.5" width="208" height="194" as="geometry" />
        </mxCell>
        <mxCell id="tTCNDWqaS0pplaEmAUnw-180" value="" style="sketch=0;outlineConnect=0;fontColor=#232F3E;gradientColor=none;fillColor=#DD344C;strokeColor=none;dashed=0;verticalLabelPosition=bottom;verticalAlign=top;align=center;html=1;fontSize=12;fontStyle=0;aspect=fixed;pointerEvents=1;shape=mxgraph.aws4.role;" parent="tTCNDWqaS0pplaEmAUnw-182" vertex="1">
          <mxGeometry width="208" height="117.33" as="geometry" />
        </mxCell>
        <mxCell id="tTCNDWqaS0pplaEmAUnw-181" value="&lt;font style=&quot;font-size: 29px;&quot;&gt;IAM role&lt;/font&gt;" style="text;html=1;align=center;verticalAlign=middle;resizable=0;points=[];autosize=1;strokeColor=none;fillColor=none;" parent="tTCNDWqaS0pplaEmAUnw-182" vertex="1">
          <mxGeometry x="39" y="144" width="130" height="50" as="geometry" />
        </mxCell>
        <mxCell id="tTCNDWqaS0pplaEmAUnw-186" value="" style="group" parent="1" vertex="1" connectable="0">
          <mxGeometry x="2170" y="1444.5" width="220.39" height="240" as="geometry" />
        </mxCell>
        <mxCell id="tTCNDWqaS0pplaEmAUnw-21" value="" style="sketch=0;outlineConnect=0;fontColor=#232F3E;gradientColor=none;fillColor=#7AA116;strokeColor=none;dashed=0;verticalLabelPosition=bottom;verticalAlign=top;align=center;html=1;fontSize=12;fontStyle=0;aspect=fixed;pointerEvents=1;shape=mxgraph.aws4.bucket_with_objects;" parent="tTCNDWqaS0pplaEmAUnw-186" vertex="1">
          <mxGeometry width="182.39172413793102" height="189.69931034482758" as="geometry" />
        </mxCell>
        <mxCell id="tTCNDWqaS0pplaEmAUnw-185" value="&lt;font style=&quot;font-size: 28px;&quot;&gt;Amazon S3&lt;/font&gt;" style="text;html=1;align=center;verticalAlign=middle;resizable=0;points=[];autosize=1;strokeColor=none;fillColor=none;" parent="tTCNDWqaS0pplaEmAUnw-186" vertex="1">
          <mxGeometry x="14.690000000000055" y="198.6206896551724" width="170" height="50" as="geometry" />
        </mxCell>
        <mxCell id="tTCNDWqaS0pplaEmAUnw-187" value="" style="rounded=0;whiteSpace=wrap;html=1;fillColor=none;strokeWidth=3;strokeColor=#0000CC;" parent="1" vertex="1">
          <mxGeometry x="100" y="441" width="2266" height="1370" as="geometry" />
        </mxCell>
        <mxCell id="tTCNDWqaS0pplaEmAUnw-193" value="" style="group" parent="1" vertex="1" connectable="0">
          <mxGeometry x="140" y="691" width="200" height="278" as="geometry" />
        </mxCell>
        <mxCell id="tTCNDWqaS0pplaEmAUnw-11" value="" style="sketch=0;points=[[0,0,0],[0.25,0,0],[0.5,0,0],[0.75,0,0],[1,0,0],[0,1,0],[0.25,1,0],[0.5,1,0],[0.75,1,0],[1,1,0],[0,0.25,0],[0,0.5,0],[0,0.75,0],[1,0.25,0],[1,0.5,0],[1,0.75,0]];outlineConnect=0;fontColor=#232F3E;fillColor=#ED7100;strokeColor=#ffffff;dashed=0;verticalLabelPosition=bottom;verticalAlign=top;align=center;html=1;fontSize=12;fontStyle=0;aspect=fixed;shape=mxgraph.aws4.resourceIcon;resIcon=mxgraph.aws4.ecr;" parent="tTCNDWqaS0pplaEmAUnw-193" vertex="1">
          <mxGeometry width="200" height="200" as="geometry" />
        </mxCell>
        <mxCell id="tTCNDWqaS0pplaEmAUnw-12" value="&lt;font style=&quot;font-size: 31px;&quot;&gt;Amazon ECR&lt;/font&gt;" style="text;html=1;align=center;verticalAlign=middle;whiteSpace=wrap;rounded=0;" parent="tTCNDWqaS0pplaEmAUnw-193" vertex="1">
          <mxGeometry x="60" y="230" width="89" height="48" as="geometry" />
        </mxCell>
        <mxCell id="tTCNDWqaS0pplaEmAUnw-196" value="" style="group" parent="1" vertex="1" connectable="0">
          <mxGeometry x="150" y="1271" width="178" height="248" as="geometry" />
        </mxCell>
        <mxCell id="tTCNDWqaS0pplaEmAUnw-192" value="&lt;font style=&quot;font-size: 32px;&quot;&gt;Amazon ECS&lt;/font&gt;" style="text;html=1;align=center;verticalAlign=middle;whiteSpace=wrap;rounded=0;" parent="tTCNDWqaS0pplaEmAUnw-196" vertex="1">
          <mxGeometry x="44.5" y="200" width="89" height="48" as="geometry" />
        </mxCell>
        <mxCell id="tTCNDWqaS0pplaEmAUnw-191" value="" style="sketch=0;points=[[0,0,0],[0.25,0,0],[0.5,0,0],[0.75,0,0],[1,0,0],[0,1,0],[0.25,1,0],[0.5,1,0],[0.75,1,0],[1,1,0],[0,0.25,0],[0,0.5,0],[0,0.75,0],[1,0.25,0],[1,0.5,0],[1,0.75,0]];outlineConnect=0;fontColor=#232F3E;fillColor=#ED7100;strokeColor=#ffffff;dashed=0;verticalLabelPosition=bottom;verticalAlign=top;align=center;html=1;fontSize=12;fontStyle=0;aspect=fixed;shape=mxgraph.aws4.resourceIcon;resIcon=mxgraph.aws4.ecs;" parent="tTCNDWqaS0pplaEmAUnw-196" vertex="1">
          <mxGeometry width="178" height="178" as="geometry" />
        </mxCell>
        <mxCell id="tTCNDWqaS0pplaEmAUnw-199" value="" style="group" parent="1" vertex="1" connectable="0">
          <mxGeometry x="160" y="1591" width="130" height="208" as="geometry" />
        </mxCell>
        <mxCell id="tTCNDWqaS0pplaEmAUnw-197" value="" style="sketch=0;points=[[0,0,0],[0.25,0,0],[0.5,0,0],[0.75,0,0],[1,0,0],[0,1,0],[0.25,1,0],[0.5,1,0],[0.75,1,0],[1,1,0],[0,0.25,0],[0,0.5,0],[0,0.75,0],[1,0.25,0],[1,0.5,0],[1,0.75,0]];outlineConnect=0;fontColor=#232F3E;fillColor=#DD344C;strokeColor=#ffffff;dashed=0;verticalLabelPosition=bottom;verticalAlign=top;align=center;html=1;fontSize=12;fontStyle=0;aspect=fixed;shape=mxgraph.aws4.resourceIcon;resIcon=mxgraph.aws4.certificate_manager_3;" parent="tTCNDWqaS0pplaEmAUnw-199" vertex="1">
          <mxGeometry x="2" width="128" height="128" as="geometry" />
        </mxCell>
        <mxCell id="tTCNDWqaS0pplaEmAUnw-198" value="&lt;font style=&quot;font-size: 28px;&quot;&gt;Certificat&lt;/font&gt;&lt;div&gt;&lt;font style=&quot;font-size: 28px;&quot;&gt;&amp;nbsp;Mnager&lt;/font&gt;&lt;/div&gt;" style="text;html=1;align=center;verticalAlign=middle;resizable=0;points=[];autosize=1;strokeColor=none;fillColor=none;" parent="tTCNDWqaS0pplaEmAUnw-199" vertex="1">
          <mxGeometry y="128" width="130" height="80" as="geometry" />
        </mxCell>
        <mxCell id="tTCNDWqaS0pplaEmAUnw-203" value="" style="group" parent="1" vertex="1" connectable="0">
          <mxGeometry x="110" y="451" width="120" height="97" as="geometry" />
        </mxCell>
        <mxCell id="tTCNDWqaS0pplaEmAUnw-201" value="" style="rounded=0;whiteSpace=wrap;html=1;strokeColor=#1A1A1A;fillColor=light-dark(#1a1a1a, #ededed);" parent="tTCNDWqaS0pplaEmAUnw-203" vertex="1">
          <mxGeometry width="120" height="88" as="geometry" />
        </mxCell>
        <mxCell id="tTCNDWqaS0pplaEmAUnw-200" value="" style="html=1;verticalLabelPosition=bottom;align=center;labelBackgroundColor=#ffffff;verticalAlign=top;strokeWidth=5;strokeColor=#FFFFFF;shadow=0;dashed=0;shape=mxgraph.ios7.icons.flag;" parent="tTCNDWqaS0pplaEmAUnw-203" vertex="1">
          <mxGeometry x="20" y="4.5" width="80" height="92.5" as="geometry" />
        </mxCell>
        <mxCell id="tTCNDWqaS0pplaEmAUnw-204" value="&lt;font style=&quot;font-size: 27px;&quot;&gt;&lt;b style=&quot;&quot;&gt;Region eu-west-3(Paris)&lt;/b&gt;&lt;/font&gt;" style="text;html=1;align=center;verticalAlign=middle;resizable=0;points=[];autosize=1;strokeColor=none;fillColor=none;" parent="1" vertex="1">
          <mxGeometry x="230" y="461" width="330" height="50" as="geometry" />
        </mxCell>
        <mxCell id="tTCNDWqaS0pplaEmAUnw-173" value="" style="rounded=0;whiteSpace=wrap;html=1;fillColor=none;strokeWidth=3;" parent="1" vertex="1">
          <mxGeometry x="-300" y="388.5" width="2730" height="1520" as="geometry" />
        </mxCell>
        <mxCell id="tTCNDWqaS0pplaEmAUnw-211" value="" style="group" parent="1" vertex="1" connectable="0">
          <mxGeometry x="-300" y="391" width="175" height="40" as="geometry" />
        </mxCell>
        <mxCell id="tTCNDWqaS0pplaEmAUnw-210" value="" style="rounded=0;whiteSpace=wrap;html=1;" parent="tTCNDWqaS0pplaEmAUnw-211" vertex="1">
          <mxGeometry width="40" height="40" as="geometry" />
        </mxCell>
        <mxCell id="tTCNDWqaS0pplaEmAUnw-208" value="&lt;h4&gt;&lt;b&gt;&lt;font style=&quot;font-size: 18px;&quot;&gt;Aws Cloud&lt;/font&gt;&lt;/b&gt;&lt;/h4&gt;" style="text;html=1;align=center;verticalAlign=middle;whiteSpace=wrap;rounded=0;" parent="tTCNDWqaS0pplaEmAUnw-211" vertex="1">
          <mxGeometry x="35" width="140" height="30" as="geometry" />
        </mxCell>
        <mxCell id="tTCNDWqaS0pplaEmAUnw-171" value="" style="html=1;verticalLabelPosition=bottom;align=center;labelBackgroundColor=#ffffff;verticalAlign=top;strokeWidth=2;strokeColor=#FFFFFF;shadow=0;dashed=0;shape=mxgraph.ios7.icons.cloud;fillColor=#67AB9F;" parent="tTCNDWqaS0pplaEmAUnw-211" vertex="1">
          <mxGeometry x="5" y="5" width="30" height="30" as="geometry" />
        </mxCell>
        <mxCell id="wf13W3H9ViJ32tmybume-1" value="" style="shape=image;verticalLabelPosition=bottom;labelBackgroundColor=default;verticalAlign=top;aspect=fixed;imageAspect=0;image=data:image/webp,UklGRtoSAABXRUJQVlA4IM4SAADQgACdASraAdoBPp1OpEylpKQiI3jpCLATiWNu8pWX+d9b7wQgy1qbkPK/6H+u/yPYYesf2b9qP7j5B2djof44/kPuS8p+ofOA8V/cf0Z///iv6Ff4V/lf14+AD+D/wX//f1v36+gXzAf6b0u/Tv/5/SA9P/1nehp/9ns6/urlK/0X/Od8zuF4vXzOYa5T/s7/ku8/eHfwD/Kex49hcF4yeDn+j6NPT7vTP9fRId9H9v8SvtYioJKLs+oIfUEPprK5fcm7L93G0ekPC5Nai7PqCH1BDn1xVWG5uitOK4B9SrfU7Q086LwuTWouz6gh9NJIjifbPS2IPbRnPHwBtuXdmtNF4XJrUXZ9QC2pHvUBu8+ou4dOczYLVQLE5v+Fya1F2fTSSI4oDwyHZ9QRAaNCfUEPqCH1ALake9BsdOHhcmtcSZt/guQMItzWTNdSUXZ8lF39lP9zQN8mtRdphH7xISQD3/7RQqkWB+62Af67l0Ls+mkkRxPtnpXJrUXZ9ZKCQzvrpUWjmRusAYh9NJIjigPDIdn03bJrUo7nhnfIuMTUJzIICObyUXf2U/1zXCSYAN979NuMt6y6Hrs/wT5MVHcFUYe9/WY6bQy1G1P18X+mB84Nqs9c2JD7OV2sw0quMerdx9ox+hPL6Les1okNoUTJvFDxquptRLkzSarpDNrl/WbHtmC+SrM9ee6dHncCz1Jv1753HLwiW9wWd12qKVmGNfnRjstm0F2D5ECDKyN0OhdnyUXf0LGxWSUP+uW/DxpLmGMx6t7tBVp3DRmxaNcGohS7JKzRnGu9UJmjovPzlTiz9z4/vdwoI81I6GSg72TZnCP/wTpGv5mjovPuyjNrhz6TZ+t4jKf65pt9sunaMLePDcq5IO2w79RivATXGz6i9phEa4241e8UX+PLP5OJU0IJBJHvMXY3Eas+slBIbnmrk4+mlphZikOsJBvQMJPCpRGq7bO6awBlepnYfXeqswt0NAJDsX3NQ1Zbo25GInQW8EpnJmOnLljm9QC+TvgKLBcuWTgZvBD9OgmuUW8bHni3LPiW5r0FCFo1fjm9QPy3CCxcsCI1pt9qLMyK6v7dNlZ2eMApDBtl6ChC0avxzeoJPBJRivAOrPOslqd83KJz4R58yTHWYLTBtl0jtbJI0RpbyHhcmtSjvGXj9tX+mzw8Lk1qPEpRGrZiEkaz6giYSPIeS8w0Xhcm+2RpE3Y26Q+oIfp0zvk1qLs+oIff1mOnLljm9QQ+rRVQuz6gh9QQ+oQSLQ4kSH2LLg3UvsweBWfvTA81l0h4XJrUXZ9TqvLabfKgImZ4vDxHMz/+n2rKL5Nai7PqCH1BIXkaRN0X/5Jepl2GUdiW32/DReFya1F2fUEPygkLTXQYAP79F+ABAlzmhc2jTnHFSrO3dWcFTibkuWOAX7kW/g9vfMozQmIGdddJAu1EcHARRuAAE97bm57svQ/KlZPk8pv8bhlHO42y7ZwxMfZPHG68mQLw+HgGjL0GU1VdSSmPrMz+qRJveI81RJp8c4RY/0O4l15MqB5gPJ9wHK7xumvrDrutPQWvxBMvFTGdZKG3tMGzVJflat9CgeU2nJAHIu/gGVc9aUet08ZivYAAcwE95KrSLNHSM5GEJdxe03sfhbmA/WCNvQPQIFJcQiBSZTPnF4Ey1sXimXpSpuyx7AKOT0eNvuiUt5F9ag3z/+EbwMOstqyQO2mPYmeQ50Sqypy7bAzWmEQWsky0X+tenBXnHTrt/hFvFjY7TX6JCfwasMXiKfPgHWkQAMZdCmaTQ/5N+iW6ClWd2nXr257WYmrVvAO8kfvZE32UHGCEAWM0HOXgT3ikP/BZJLNAE9u88vPoWiO0nxZiUvqXjAT8skuirOQAVt/l3wnN6HMMiOT6tiHu4x6kwUHIAC7HH4/t7p9KwvjWejs+v60+gJJuLhM4C0VMI5/TtMiK2wJtNuzOiqgSo2+3WtcDJAcM5jFWTrKQsgr4B0AT3kqtIs0dIzkYQl3F7TeyQPgTaLQony07mlEzBY0fTtMiK2wJtNuzOiqgSo2+3WtWksAChR5bUawmWS/P41nf8pZXEe8N/LKukEvQSTnGgh+f0XhqfxuFI7fTFEbcWgc8H86KQqRkuJR7dZWY3zKRuhKuBoaCkxUABtvhqUxcFTwPUb2vamFxs68gQRBc5oX/Ja52yw0+1DSVZ3adevbnPxE9fzoshMf07TIitsCbTbszoqoCTG5HN9LASAGU3Z3pwPHGzCj/5eMKbwBG5w/KrqbD+HcoRKFlvRq2bHWU+/8vNXeWsumgPWDPNgOQya3ovquo00Eyw30CZZowJvTqHHJFhPwdyoW/MvBqquNBMIM3mva3dMUABSbDUol6k8fJUCyIx2qYSw3zwolgk4/NKdBvB5ocl6ssxzGDDrsPNA856hcEkfHSWDapWFFlvRcUEfZ3rtCiDoAP74T/wMLiEQKTKZ84vAmWti8Uy9KVN7DDTaQAZ/I6co6MbBBkgXw9YMBCdJ3vvey/Z8z0VIhUExfDtVgsu1cxq7IB4fyO3TeIGovd3WXPawwo2NzO7rR15rlLO4nUYyhc+/Jc3vv2yeBLhJBuPw8hX6V1NXsQ5X698pv8bhlHN9CJa9QkMVWcy37sBleg7kMjDL0GU1VpL2qGAtW1JiUBK1m1qKZEPd5lF9wRRCXO2FxACd98lr1NMgyeDnthTulM8BkQwXiP6RAY9n+Gt1uWuHsCSqmCj3eQx7rcVxOUMgLgchPx/aZtzJ/hLMjCiy3ouKCPs70P1fthdE/RNx8ib7KDjBCALGaDnLwHUUd1Jt+yU0BtGM4WYpKy1bCdMLiGFksg4UBTguFOHUEi9S/bIHd49chgFesxqoX/0IjBRzZ+yo9auyUbIH3RrTbSYyUD4ZvIg7RwOWYxuI9SG+CkJLzg0/ar2WQWzI1RK3qIJ9M6xHmu8KcFw+DnBlI+I7WLR9qNU5iimJHMXoSLmp6atu2vZIRxETOrubxSkAdWDKsnmRFFfj88olJp7SZ+QshXFuPw8hX6V1NXsQ5X698pv8bhlZRecN7x79l0bhqRr1GtdofnyiTWEsFNsvQZTVWkvaoYCvxPBcDCdEE3rvnL0HU5+Ey8RtM4FVGm9C6jaNlDELJfE8IddczpwQ1QkasBFuf83QOrwuY6SmvMozRWk6F5k8bhNYJrIuBo/AJlltnkz5YSzrQ5JkrZuL/3LfkGtxghx3DWoiYDv7sM/0W0KW0+RcDzFD3UnA3p3d3ob6NgTFPTlJYcbrl5K72hGzVJR/vjKPGgJiXWkxpypfgooIFtQ7cfNviN2B19lXzm5oqoacMnezZbnFl3j/gWSbuvKnUo4kYxd86AuMAuLYJdHdICkYx8a9l/V6fpqF853YPYDD7yg/9XFXEq7QNZWY2UnYEDDdSR9mLybLvnUoiYxeQnVtEJ5ZqYizZzqYRDqId3iSjMSsuJQkFmW3NTXst8kh/kf49d+CCuVFkQ7jlp6Ls/ARz1S+/U6MCJVKMRAw3ez79Wte/6FAfrLmGyRS2wJol5uWphqeUj/+kdy8MDx9UQlaRHCzBAYIs12rOT+kRM2iOdnOnuJMFTyp78WNOs4lPEkfW74higU+JWQ9KzgG4B4Pjgk660dJq+dgH6KshglCMlzcnp5LhS+dA8aisT3VuHRiFpKqCEZFuCoXz0raKG3ApKUxVSe4C5yi9D9XQ3fcMq5I1Kb1hFZ3GEZNb8npoeQQIc/EU8nxlfODOQ4qxWM0EaMCjE5f/EeHHCug5BpPj7bbBIW+yvmI108Esf+zs5dAfq1MfzK+D/ijbsPTAAL0woQwjmxoIHKLNVhQXa95R0Y6B1i7lw5EmJqQ/ZsQI9tbEdsOdC/RMIRhGeaEPi3TFlukd+ToxJppzXtYK4O1fpjyb7PNfRD8b34LAsYsOIVQR8q2MFgr0SUCVz8HP+VO2o54+NvhyFwKszoc5QL6PY0fRtOOTJKJiW70l3zwCnDHICrKuGNQ+5CFg+v/87ftya3f927swcYtVHn0Hv930jDkKQDtYVt9iya53pYZzipBDl0d5cZTiJBWyCtnuL8MuzhOtg6lkVxf4D8Che0/anzkqaJ1dH8oGDP/WLjF56uCSmIzEc2oxZM7ot07N2OeVfg+8AU47AWIii/fvKXlo5EkY6bL7XfKrT2kc/jFhD06JajLK0a6Erm+FcfjaWRUWOdBDQSW29k165fC/pvD3mlkMR9gC6EVGzeXVZq+rD1z1hoDZFUCMCYF/nva+NDY9eyqImdXc3ilIA6t+0MxvE4qszbY+ahC6Xa0Qu+udhmZW+hDxn/4quDb5G6y4GT7NlY0SXI9EaDn2sVPCLxcUGjqT4v2SazVRXlrBpITGrsZfdu/1JqOX7bnwDFmpSywKikS6Ks8vYi+oKNL2zJQouBsist/frMTdWPoQorzvyS0cpUQJMYFa8/R3QGPATyCGbrkULNtorhDuBHWeHnzBhxsTQxtW82f/zRCeo65abg12Vb/rBFrgsXvswtyaTsQFPGZMK26GjHUSe+DpETEffMSAj7veP5LtcetdFqB5qFzqbqnfGK+IxcaDEEvjvARNRVAMWW4Oghs2ooXKPKo5He0xH7m7cH9nt6qBjgc/lG9iVSZgaGdokEJesh07D4WleVu+N2qf/Q53hxJ8G02pvfmHZ5SgZD8n8pRlcw3Np4tPTPmqmrjEJRDlJzQ+7gzaEVoPSKtHs7MPOzeFjCJYw8Vu7byjcpOUknoz3cXWWLq/3rNuUeaig6mOFaQfgxaPGe2rpyLKTBJNMT9AAlYMDgO3Mj2Ocgh6OgaLBoY0MDEXDkvSqtrd/ir1TTkcBzrSbOV/+CFibRH0EUYGH22Jn7wxrbNycyIBHnh6qrubAvBPlWZdyDe9/v5D6Cscz9Vodz1+fja6CGYM1Q3UOtREqwV3cmh/AA52vyilPY2aOkFdbVtMn4QzxKXh0HBryYUw5MO0P0xIuq2eKthcDS8w5C16ZxmQutKzUwVsZiIakzrYjyaRvjIAiFLRoveTbXziy/3Nzi8dqUh0QiN3cBEIjDem8FBYnjvDjJq8kpNY/L818WKOxkwrGNE5hFVSoDtUdceKwo9zvAtvI+v3gJ2ks3sPbxtDE9yoAwcn7Vcdv0Lyxu3l31OuAhecq3JG2hIl1WmPgpJZkZfNPT807B1+nelID4XJ8IKCAmkwpQXaQL2vxSuO+bGcZGqf/NxDQR9L9S09V/xajKhm0P8OfMkSr+CqdVU1RLqKV17XrPFI16KsA+P7nB8cXCvB11SEmrWUy5+xleulwHgXYMXccxZ41nXStW37jHETfisUMCaaBQ64CQIJABnfwxXVcleSad6KPD4LlzMar/0WxzBrOQ4MFrtvIlACJst4LxhVIOSPirGaSilx7BJPTfQOXVjh37OWZsgqRQ4nSxQAFhx0LVXIvVPeBjMhWwHCdx3WkGmEntVLOwF2doFGuM7o2HfEmQ9bSIiosAirLkmXR4IdZsaQArG9Dp5r94RNEc0cA6DqrUwaNfLaHmBS77jQp+RGFoo+rM1vrXWaT3mYCAT2tbKTja0CvMTU/6wW5K8dWIOp5hhyGckawshjzCSmnbUbZLW+SMHbV9ybxJoOB48hDcMJRxZr/eO1yhFWQAFoSbBOwihhjGKsWJHmrFxN6Ll2BMduQ2BEU5krIEcI7JX+ISCRpFqGbye2ggNdXgYlNO2swW0/yadtMmAf93u9KQHwuT4QUESTj4Gf/gKWt9RcAJWe9lXlLTpws+kpr4tcjL5p6fmnFunibOWZsgqRQ4nZ46Af3Juc5wPwnh3AB65NkIYbaETaf9L+0ywGsBC8+7iOz02xwUVnb0pAfC5PhBQ4zg7wF1OCcFMACWb0lTMdRnQCrpEvWrRGmBMK0SMvmmxA5br0H7xZr/eO1yhFXHwABDWiH4mrG3bxCT3bd24EZ5XOquyclU8C+/IkxJc7Oobyplkc3IQeDGSGJIhjnnwuViGUOBKCko1m4JKErizdr095QhUeLGDLXA+VTa4bp8xKTiTEZ5AA6Xyk77+SXFd13fx1g0trAQvPOQ+1Bs04NlnVoIRXNy6DdfMbP9Ensjxy7I8tWcqUgYPgJVXYKBygm/cbeWZZ/hlg7/FQ8CHrzfbDpKUlJy1ihfDaJia/aRBPRma5/vfvbDyJ6WE7rn/eB+C3HJ1UMZuAh0VDQKvIE8iOajQLE4F9lxITELVAoAAAs8tJRAX/JLiu67v46jP5J8yt1VrlkaRXD/u93pSA+FyfCChNrA1qymS2MRf7Rd7j7+wgHJCWpsWnw0Rbsoy5LpBuNBe//vfjJFnvleT35b9DC1tAVNCv5FnZqSsKacxD+UO6bHAvxSyHGssMMdOKUGx9Ze4Zy9PZd/Lb4pSKOX4vBYAAAVY5IGgAAAA==;" vertex="1" parent="1">
          <mxGeometry x="210" y="109.39" width="220" height="220" as="geometry" />
        </mxCell>
        <mxCell id="wf13W3H9ViJ32tmybume-2" value="" style="shape=image;verticalLabelPosition=bottom;labelBackgroundColor=default;verticalAlign=top;aspect=fixed;imageAspect=0;image=data:image/png,iVBORw0KGgoAAAANSUhEUgAABLAAAAKiCAIAAABJjbIyAACAAElEQVR42uzdB3gU1d7H8ZnZmkIKJaEICCR0kRIpUkRBVMB7EbEgIChYAUUUveq1XctVARUVpEmvITQpivQO0iLSAkkIJSEEEtJ3Z8vM+5BF9PViCGQ3O7v5fq6Pj1fi7j/nzM7Mb8+Zc/SqqgoAAAAAgPJHogkAAAAAgEAIAAAAACAQAgAAAAAIhAAAAAAAAiEAAAAAgEAIAAAAACAQAgAAAAAIhAAAAAAAAiEAAAAAgEAIAAAAACAQAgAAAAAIhAAAAAAAAiEAAAAAgEAIAAAAACAQAgAAAAAIhAAAAAAAAiEAAAAAgEAIAAAAACAQAgAAAAAIhAAAAAAAAiEAAAAAgEAIAAAAACAQAgAAAAAIhAAAAABAIAQAAAAAEAgBAAAAAARCAAAAAACBEAAAAABAIAQAAAAAEAgBAAAAAARCAAAAAACBEAAAAABAIAQAAAAAEAgBAAAAAARCAAAAAACBEAAAAABAIAQAAAAAEAgBAAAAAARCAAAAAACBEAAAAABAIAQAAAAAEAgBAAAAAARCAAAAAACBEAAAAABAIAQAAAAAEAgBAAAAAARCAAAAACAQAgAAAAAIhAAAAAAAAiEAAAAAgEAIAAAAACAQAgAAAAAIhAAAAAAAAiEAAAAAgEAIAAAAACAQAgAAAAAIhAAAAAAAAiEAAAAAgEAIAAAAACAQAgAAAAAIhAAAAAAAAiEAAAAAgEAIAAAAACAQAgAAAAAIhAAAAAAAAiEAAAAAgEAIAAAAACAQAgAAAAAIhAAAAAAAAiEAAAAAgEAIAAAAAARCAAAAAACBEAAAAABAIAQAAAAAEAgBAAAAAARCAAAAAACBEAAAAABAIAQAAAAAEAgBAAAAAARCAAAAAACBEAAAAABAIAQAAAAAEAgBAAAAAARCAAAAAACBEAAAAABAIAQAAAAAEAgBAAAAAARCAAAAAACBEAAAAABAIAQAAAAAEAgBAAAAAARCAAAAAACBEAAAAABAIAQAAAAAAiEAAAAAgEAIAAAAACAQAgAAAAAIhAAAAAAAAiEAAAAAgEAIAAAAACAQAgAAAAAIhAAAAAAAAiEAAAAAgEAIAAAAACAQAgAAAAAIhAAAAAAAAiEAAAAAgEAIAAAAACAQAgAAAAAIhAAAAAAAAiEAAAAAgEAIAAAAACAQAgAAAAAIhAAAAAAAAiEAAAAAgEAIAAAAACAQAgAAAAAIhAAAAABAIAQAAAAAEAgBAAAAAARCAAAAAACBEAAAAABAIAQAAAAAEAgBAAAAAARCAAAAAACBEAAAAABAIAQAAAAAaJOeJgAAAEAxFEVJTU1NSUnR6XTF/6TRaIyJiaHFAAIhAAAAfMmpU6dOFMnIyEhOTk5JSbFYLPv27VNV1fUDV/+heKIoqqpqNBqbNWsWGBhYp0hwcHBMTEydOnVq1apFUwOaIpbwsw0AAADfpaqqvYjNZnM6nefPn9+9e3dCQsKhQ4cSExOPHz9eZpU0aNCgfv36UVFR99xzT926dSMjI/V6veF39BRAIAQAAIB75OfnZ2dn5+TkXLhw4dChQwcPHty2bVtycrIsyxqp0GAwtG3btlmRFi1aBAcHh4WFVaxY0WQy0X0AgRAAAAA3xmq1pqWlnTlzJjU19fDhw/v374+Pj09PT/eJ4m+99dZWRaKjo2+99dZatWpFRETQpwCBEAAAAMVRFGXPnj3x8fGHDx8+evRoYmJiSkqK7/46kiQ1bdq0fv360dHRLVu2bNKkSf369a+7qg0AAiEAAEA54nA49uzZs379+o0bN6ampqalpeXl5fnZ7xgZGRkREdG0adP777+/ffv2derUkST2TgMIhAAAAOWVoijJyclxcXGLFi06ffp0fn6+1Wr1+986JCTEZDK1adPmySef7NGjR2BgIEcCQCAEAAAoX2JjY2fNmrVq1SpJkhRFKYctIEmS2WweNGjQ0KFDGzduzCEBEAgBAAD8lqIoNpvt/Pnz33777cyZMy9cuECbXNW8efP333+/U6dOgYGBrE0KEAgBAAD8h81mS09PP3bs2Hfffbds2TIa5O9UrVq1f//+gwcPrlSpUuXKlUVRpE0AAiEAAICvslqtBw4c2L9///Tp0/ft20eDlITZbO7du/dDDz0UExNTq1Yt1p4BCIQAAAA+xmaz7dixY/ny5StWrEhKSqJBbkLXrl3/+c9/du7cuXHjxsRCgEAIAADgAywWy9q1a2NjY3fs2HHy5EkapDQCAwPr1at37733DhkypFGjRjQIQCAEAADQKFVVjx49+sYbb2zZsiU3N5cGcReDwVCtWrWHHnpo5MiRtWrVokEAAiEAAIC2nD9//q233po+fborGdIg7r/lFcWaNWt+/PHHjz76qNFopEEAAiEAAICXKYpisVi+/vrrt956i9YoG40aNZo2bVrz5s3NZjOtARAIAQAAvBMFc3JyNmzY8PrrrycnJ9MgZaxPnz6ffPLJLbfcEhAQQGuAQEggBAAAKDt5eXk7d+6cPHny4sWLaQ1vMRqNH330Uc+ePevXr6/T6WgQEAgBAADgcfv27ZszZ87MmTMvXbpEa3hdTEzM4MGDe/fuHRERQWuAQAgAAABPycnJmTNnztSpU+Pj42kN7QgICLj33nvfeOONNm3aMFQIAiEAAADc7+DBg6NGjdq2bVthYSGtoUGVKlUaOXIkq/uAQAgAAAB3stvtc+bM+de//pWRkUFraJkkSW3atJkzZ07dunVpDZSjI58mAAAA8ARVVfPy8kaMGPH000+TBrVPUZSdO3c2bNiQDSFRrjBCCAAA4H42m+3YsWO9evU6efIkreFzhgwZ8t5771WvXl2SGD6Bn+MQBwAAcLMLFy5MnTr19ttvJw36qKlTpz766KPr16+32+20BvwbI4QAAADudPDgwdGjR8+ZM4em8HVVq1Z99dVXBw8eHB4eTmuAQAgAAIDiOByOtWvXvv322wcOHKA1/OReWRQffvjhzz//vE6dOrQGCIQAAAC4NpvNNnny5I8//jg9PZ3W8DPNmjUbN25c586daQoQCAEAAHANQ4cOnTBhAu3gr6pVqzZ27Ni+ffvSFCAQAgAA4A8Wi+Wxxx5bsWIFTeHfDAbDmDFjXnrpJZoCBEIAAAAIqqpevHixe/fue/fupTXKiXfeeefVV18NCQkRRZHWgB/Qvf/++7QCAADATaTBXbt29e7d+9dff6U1yo8tW7ZIkhQdHR0aGkprwA8wQggAAHDDbDbb+vXrX3vttSNHjtAa5VCPHj2+/PLL6OhomgK+jo3pAQAAbozdbl+wYMGQIUNIg+XWqlWrnn322aNHj9IUIBACAACUI6qqzp8/f+jQoWlpabRGebZp06YBAwasXbuWpoBPY8ooAADADZg/f/6AAQOcTidNAUEQ6tWr991339177700BQiEAAAAfm7p0qW9e/emHfCXTLhgwYKYmBiaAr6IKaMAAAAlEhcX98gjj9AO+IukpKS+ffv++uuvDLTAFzFCCAAAcB0Oh2PRokXPPvtsfn4+rYFrqlev3po1a+rVq0dTwLcwQggAAFAcp9O5ZMmSYcOGkQZRjKSkpBEjRpw4cYKmgG9hhBAAAOBvKYqycePGZ5555uTJk7QGruvuu+8eP358o0aNaAoQCAEAAHybqqo7d+7s169fSkoKrYES6tixY1xcXEREBE0BAiEAAIAPy8zM7Ny586FDh2gK3JA+ffpMnz49ODiYpoD28QwhAADAtd11112kQdyEuLi4Dz74gHYAgRAAAMBXDRgw4PDhw7QDbs6XX345adIkRVFoChAIAQAAfImiKJ999tmcOXNoCtw0p9P5n//8Z/PmzWRCaBzPEAIAAPy/NDh79uznn3/earXSGiilRo0aLVy48LbbbqMpoFmMEAIAAPxh06ZN77//PmkQbnH06NERI0akpaXRFCAQAgAAaN3Jkyc/+ugjNpmAG23YsGHUqFFMHAWBEAAAQNMKCgrGjx+/ceNGmgLuFRsb+9lnn9EO0CaeIQQAABAURVm+fHnv3r1pCnhCeHj4Dz/80KFDB5oCBEIAAADNSUpKat26dVZWVtm8XXBwsMFguPp/HQ6HoihOp9NRhO5wO0mSDAaD7neiKAqCoKqqw+GwWCxOp7MMaoiJiVm5cmVkZCTdAQIhAACAhhQUFDz88MNr1qwpm7cLCQnZvn1706ZNr/6b5OTkzMzM+Pj4vUWysrLy8vKysrK4Tyul0N81bty4bdu2t912W3R0dK1ata7+wLFjx55//vnNmzeXTT3Dhw//6quvJImHtkAgBAAA0Iy33nrrv//9b5m9Xb9+/ebMmaOq6tVxKtc/XHXkyJG9e/euXbs2MTExJSUlPT2dPrrRyF2nTp369et36tSpdevWrVq10ul0f/4B1w2wq9nHjRs3YsSIsimsQoUK48eP79+//196HCAQAgAAeMfKlSt79epVNpMGXbZv337nnXde84/+Eg4TExP379+/YcOGHTt2HD16lNmk11WzZs0uXbq0a9eudevWzZs3/7uG/fO/3Lp164ABA06dOlU2FTZr1mzevHlNmjShs0AgBAAA8LK0tLQHHnjg4MGDZfaOkZGRaWlp1500+OcAY7FYEhMTt2zZsmjRoh07dtjtdjruf8XExPTt27ddu3aNGjUKCwsrJgf+RX5+ft++fVeuXFlmpT7//PNjxowJCgqi16AFzGAGAADl13/+85/ffvutLN/xySeflCTput/I/znGBAQE3Hbbbc8991xckXbt2tFxf4mCs2bNWrJkyfDhw9u1a+dKg3+eFFq84ODgFi1a/GVOqUdNnDhx/fr1jMqAQAgAAOBNrnxVxvfl3bt3L2FQ+TNVVfV6feXKlXv27Llp06b9+/fHxMTQg1FRUbGxsVu3bu3Xr1/NmjUNBsPV3ixhC7t+vn379hEREWVZ+ZAhQy5dukQPgkAIAADgHVlZWXPnzs3MzCzj942JibmJCHo13ri2T2jRosWuXbumTp1at27dcrhkpU6nCwwM/Pzzz0+cOPHII4+Yzear7XOjSdv18y1atKhYsWJZ/goXLlwYNWoUH0MQCAEAALxjyZIly5YtK+M3/ec//6nX60u5wqQoiqqq6nS6wYMHHz169L333ouKiirLGY9e5BomHT58eHp6uitQlXxq6N9RVTUiIqJatWpl/LtMmzZt06ZNfBLh/Y8VTQAAAMqbo0ePjhkzpuzfNyYmxi3J7ep+FUaj8d133+3fv/+HH364efPmkydPuqVOURRDQkIMBkNgYKBr7ROTyRQaGnrdsc38/PzCwkJJkgoLCwsKClxDYe5qvcqVK3fv3n3YsGF33HHH1QVjSr9/g+sV7r777i1btthstrI8Hp555pm9e/eGhobykQSBEAAAoIzIsjxlypSEhISyf+sOHTro9W67+7oaC+vWrTt9+vQ1a9a4/p6dnX1Dr1OlSpXIyMiKFStWr149ODg4MjLSZDJVrVrVZDJVrFixcuXKqqoGBwfXqFHjuptzXLhwITs7W6fTXbp0yTUd98SJE4qinDt3Ljc3NzMzMy0tLTs7+9y5czdUocFg6NatW//+/fv06eNqwJIsH3pD2rZtazKZyjgQJiUl/ec//xk7diyfSngR204AAIDyZceOHR07dlQUpYzfV6/XHz58uH79+m5/5avpKCcnZ8WKFV988cWBAweK+fnatWtXq1atYcOGjRs3joyMrF69enh4eIUKFSpVqhQQEBAYGOj2CguL5ObmXrx4MT8//9KlS4mJiWlpaUePHv3tt9/Onz9fzB1pRETEm2+++dhjj7lmdbo9Cl6Nso0aNSr7Z0pr1qwZFxfXunVrPpggEAIAAJSF9u3b79ixo+zfNyoqat26dbVr1/bou6iqmpSU9O23306ZMqWwsPDKDZ8oVq9evU2bNh07dmzRokWNGjVMJlNwEYPBUEzC9BybzSbLcn5+fkFBQUZGxu7du3/99dft27cnJib++cf69ev33nvv3Xrrra46PVpY1apVz58/X/YHxsCBA2fMmMEHEwRCAAAAj1u4cOHjjz/ulbd+4IEHZs6cWaVKFY+mwavzSLds2fLoo482aNDgkUce6dKlS506dURR1Ov1Op3uL5mqDOJf8YFTVVVnEbvdnpaW9lORw4cPf/jhh3369HGNWHq0SNeLd+nSZcOGDWV/YISHh0+bNq1Xr158POEVPEMIAADKkTfeeMNbb+0al/PoW/w5Mt11111/Hu8qJlCVcRr833d0JVW9Xm8ymeoXeemll8qySNeLV65c2SsHxqVLl5YtW3bPPfeEhITwCUXZY9sJAABQXrz//vunTp3y1rtXrVrVaDR6JXF5JfX5nLvuustbbx0XF7dr1y66AARCAAAAT8nIyJg6daoXCwgICCgnuwX6KIfD4a23LigoGD16dNkvaQMQCAEAQHnx1VdfZWRkeLGAqyujQJsiIiK8+O7r1q3bsWNH2S9+CxAIAQCA/0tISFi+fLndbvdiDVfXyaQ7tCkqKsq7Bbz//vteHKUEgRAAAMBvzZ8//9ixY96twRUFeZZPs1xb3nvR/v37f/jhBzoCBEIAAAB3Sk5OXr9+PZPxUJLE7l2vv/46HQECIQAAgDv98ssv27Ztox2g/UB48uTJnTt30hcgEAIAALjH+fPn586dq4VKeDxM4w4cOKCFMhgkBIEQAADAbQ4fPrxy5UotVHLixAlZlukRzcrPz9dCGTt37ly/fj3dAQIhAABAaVksltjYWO3kDafTSadolka2AVQUZeLEiXQHCIQAAACldfr06dmzZ2ukmLNnzzJCqGXHjx/XQhmqqm7dunX//v30CAiEAAAApbJgwYLCwkKNFHPy5EmLxUKnaFZCQoJGKsnMzFy8eDE9AgIhAABAqWhq6l1aWhojhFp27tw5jVTicDjWrl2bnJxMp4BACAAAcJOWLl2anp6unXrOnDmTl5dHv2hTYmKizWbTTj1JSUkaWfUUBEIAAACfpJ2nB6/at28f68po05YtW6xWq3bqycrKWrNmjaYyKgiEAAAAPiMjI2Pp0qVaq2r9+vXsRqhNmzZt0tqE3s2bNx85coSuAYEQAADghn3//fcarGrNmjUa2ewOf1ZQULB//35FUTRV1fHjxw8ePEjvgEAIAABww+bOnavBqi5evLhjxw56R2u2bduWlZWlwcJWrFihzcJAIAQAANCu7du3nz59Wpu1afDJRqxatUo7S4z+2bJlyy5evEgHgUAIAABwA+bPn6+d7Qf/IjAwkA7SmqCgIJ1Op8HCHA7Hzz//zHOnIBACAADcwD307t27tbmYZ0xMzPjx4+kjrfnggw/at2+vzdqWL19OIASBEAAAoKQOHDigzVl2NWvWnD17dlBQEH2kKaqqGo3GlStXNmvWTIPlrVu3zmKx0E0gEAIAAJTIpk2bNPg8WIUKFSZMmNCwYUM6SGtEUVRVtUKFCtOnT69cubI2MyHdBAIhAADA9dlstu3bt2ttQzmj0fjqq6/ef//9rvEoukmbmbBly5affvqp2WzWWnlTpkyhj0AgBAAAuL4jR44kJSVpLWz06NHj5Zdf1uv1qqqKokg3aTYTDh48+KWXXtJabVu3bmX7ShAIAQAAri8hIeHEiROaKqlatWrvvvtuWFgYadAnjBw58s4779RUSVardevWrXQNCIQAAADFUVU1ISFBU/NFDQbDq6++2rx5c9cYFH2kZa4OioyM/O9//6u13UFiY2PpIBAIAQAAipOZmXno0CFNlRQVFTVixAgeHfQtrVq1evrppzVV0k8//US/gEAIAABQnAsXLhw8eFBTJY0ePVqSJCaL+hBVVYOCggYOHBgdHa2dqjIzM5OTk+kdEAgBAAD+1rlz5xISErRTT58+fXr06EEa9C2uzoqJienZs6d2qlIUhc0nQCAEAAD4W3a7PT4+Xjv1GI3GDz/8kEcHfZFrfm+/fv3q1aunnUC4du1augYEQgAAgGuzWCy7d+/WTj1Dhgxp2LAhjw76IleGb9WqVbdu3XQ6nUYyanx8PIcTCIQAAADXJsuyplaUeeaZZ5gs6rtc0WvkyJGVKlXSSEl5eXm//fYbXQMCIQAAwDVYLJYjR45opJi+ffvWrVuXNOi7XH0XFRV13333aaQfrVardo5wEAgBAAA0RFVVTQ0P9urVKyQkhH7x9YNKEISnn35aI4FQU195gEAIAACgrXv3ffv2aaSYpkXYe9DXiaKoqmrnzp0jIiK0UI/NZtu7dy/9AgIhAADANQKhdu6V27VrV6tWLdYX9Y9MKAjCK6+8opF6srKyMjMz6RcQCAEAADQaCA0GQ8eOHYODgxke9BuDBg3SSCWXLl06deoUPQICIQAAwF+lpaVpoYyGDRvefvvtDA/6DVVVIyIiGjduTCAEgRAAAECjDh8+rJFK6tSp06RJE3rEb7iCfZ8+fbRQTFZW1smTJ+kUEAgBAAD+nwMHDmjivkqSGjVqpJGtzOFG3bp100IZTqfz4sWLdAcIhAAAAP9PcnKyFsoICwtr2bIl64v6n0aNGplMJi1UkpqaKssyPQICIQAAwB80sudEWFhYixYteIDQ/xiNxmbNmmmhkoKCAovFQo+AQAgAAPCH8+fPa6GMgICAGjVq0B3+R6/Xu8Z+vS45OTk1NZUeAYEQAADgD/Hx8Vooo3r16oGBgcwX9T8Gg6Fdu3ZaqMRqtdpsNnoEBEIAAIA/OJ1Or9eg0+kaNWrEfFG/pNPpateurYVK0tLSWFcGBEIAAIA/JCUlaSQz3HrrrXSHv6pYsaIWyrBarSwqAwIhAADAHy5duqSJmypJqlKlCt3hr0wmU0REhNfLkGU5JyeH7gCBEAAA4AqN7Eqv1+ujo6PpDr+9aZYkvV6vhUoURaE74M5zF00AAO6iFnE6HYfit+/asjIxIf7MqYSM9FTXAhOiKFSJqFarTqO60be17dTzthYd9HqDKEo8bgSUUmZmphbKEEUxPDyc7vBXQUFB9erVS0tL83olSUlJNpvNaDTSKSAQwm9vqQWnQ7j67ZcoigZOefABstWSefHcknlfrVoy9VKWRW8QJOnyX6J4+e9Fx7ZwIePc+fRzu7dvmD1lXGi4qfs/n+4zYGSlKtXN5kAaECjVhQPwMJ1OFxQUpIVKCgoKtLCKEgiEgAcu5w67cuGcejHDmZqiFuYLgng5D+p0uvpNxdBwqVKkaA6goaBNmRfPLVvw7cKZY/LzbUajEHitewZR/CMcGo2CbJUXzv5uxeLJjwwY+dDjw6tE1hBFpvEDN+Ps2bM0AgAQCOHbnCePOfZus+/d6kw4KFgtV+6aXaMqeoO+4e36mI6Gdl2kW+qIOh3NBU1JO5P0zecvbVm/2qAXTCahhDNAJenyDzscztmTR/92YNtzr4xu0qytJHF4AzcsMTGRRkD5kZmZabPZAgL4lhwEQvgLVVXtm1bKK+c7j/12+R5ZrxeDKvzlBxwJBx0nDtt3bTT1edpwZ1dRYiAFWjl609NSxn06bNeWn4xG4UYfBnSNGRqMwoE9O0e///S7n8VGNbidVgVulI4vClGenD171mKxhIaG0hRwC+6q4X1y7BTrjK+ciUcEo1E0GP53gQ3R9RihJDmTjlgmfyrHTqHRoBF2m7xwxufbN/0k6YSbXhpGFAWjUUg6fnzC2Ffy87JpVQBAcbfvfC0OAiH8iXXxdHnZbCU3W9Tpi19r0RUL1dxsefF069zxNB20YP8v6xfPn2gwCKVcKNSVCXdt3bht4zKWxwAAAARClAu2NYvl2CmqtbDky+6LkiQ4HfKyWXLsVBoQXhc7a4wrzpWeKAoGgzDju3cJhMCNYp9uACAQwpcU7dTmsG1ebZnyuSpbbmITNtXhsMZ9Ly+dSWPCi86kJGzfvMlgcNsL6nRCStKZ3w5spW2BGxIfH08joAzuXtjsAQRCwE2cDvv2tZav31PtNvGm1lQURVG1Wa0LJ8k/zFXtdloUXrFmxUyTu/fINJqE5bETaFvgxu5mNPNIFYHBj1mt1tTUVNoBBEKgtFTFad+w0jLuPdXhKM0GEqKkUwsLrfO/s/24ULXJNCzK3raNy9y+SYROEuL3bKRtAV/kdDrPnDlDO/grm82WlZVFO4BACJQuDQqCbflcy9TPVae99NsJinq9WpBvnfedbeU81emgeVHGzp1NdsvTg//vqJaEixcuZF1Mp3kBn6MoSlpaGu3gr0RRZHlPEAiB0pIXTLbGTlZtsuimgZXLmdBSaF04RV70Pc2LspR2NsnhsLs9ELo2rL+QcZYWBnwROyL6MavVSuAHgRAo3Zk0dqq8fLZqtbh3W3lRp1Nlq7x4unXOtzQyyoylsMATafDyIX35xfNpYaDkWrdurYUynE7niRMn6A5/ZbPZaAQQCIGbJ69eKC+eploLPXIDLUmqwy4vm21dMImmRhkRPfjKSQm/0sBAyZlMJi2UoShKZmYm3QHAt+hpAnia6nTat/xonfaF6rCLHpt8L4qi6nTIi6eLBqPp4adodvj2qVnPyRnwPU6n89SpU7SDX3I4HNu3b6cdQCAEbjwNOuz27Wst335QyjVFS5oJ7TZr7BRBrzf2eFzUG2h/+OSnRhWatuzoyXtWR9rZ5LycTFEs0Rc0TsVZ45Z6YRUjRFGkd4DisS2B/56ZVYvFQjuAQAjc4NnT6bBvXGWZ+HEZpMErmVCSVGuhdf5EQRCNDzwiGk30AjwkvGKk56aNSqIH5/Pn5mSN+WDIpp+3Gkq2iWJBnvDhl1881He4TsclA7gOWZZzcnJCQ0NpCj9jt9v37NmjlQtQeLjRaKRTQCCE5tOgqtpWzLfOHV9mafBKJtTp1cIC6/zvBKfD+I9+jBPCQ4d3xUqRFULCsy9d9MSwWY2aUZ4rPj/vkt0uh4YLJZyXqtMJBpOZToeWVa9eXSOVFBYWpqSk3H777XSKn1EURTubTNauXTswMJBOgbuwqAw8RV442bpgomq3iWW+BnfRXhQF1oWT5bhpdAQ8cowVpcDohi0Vxd33HE6hbnQTo8msqqqnAmFudl5OFtM/4U/q1q2rqUBIj/gfh8ORkJCgkWKcTqfnrhEgEALuYV0wSV4+R5Wtope2cBV1evaigKd17NJbcbr7nsMp3HPf41czp0cCYX52Xi6BEH5FO7v/5efnJyUl0SP+Jzs7OycnRyPFBAYGsuMlCITQOjU3W7B7ebue3/eimGWdN4EegSfcc//jTrcHQodwd1Eg9OBtTWZG5gUCIfxKrVq1NFKJxWJhK0K/FB8fr51i6tWrxzOEIBBCw1GwaA5DwLNvGDp0E/V6705pKNqLwikvnSnHfU/XwO2HelBw6IMP97fJbntNu11o1bpN9Zr1PPfBURRn+rlTdrtAIIQ/qVOnjnaKSU1NdTgcdIqf0c6KMpdv3yVu4EEghIZdzmBF97KBIz40dLxf1Bu8nwntdmvsVHnZLNXJFRruPLQEQRj0wgcBgXq3PEmoKILRKA4e/olH54taLQUZ6WckphrBv2hqgY309HR2I/Q/P//8s0YqMRgMLGMLAiF8JxO+9IGxW2/RYPRyJpQkVbZaF0yyrZyvylY6CO6iqmpk9drPjfjctXlg6V5KEEXh8UFv3N6yk0e3+8vJzjx+ZA/PnsDPPokNGzbUTj2nTp06duwY/eJPrFbrr7/+qpFiwsPDK1SoQKeAQAifyYTmIaNM/+h/ORO6fTXGG6pHpyvai2KibdUC1dsPN8KfjnNJ0vXo/Uz3Xk/p9PqbzoSqKuh0unt79OvTb4RO79ndgPJzLyUnHiIQws8+iYIgVKlSRSP1ZGRkaGc5SrjFrl277Ha7dgJhSEgInQICIXwmE4qiaHp0iOnhp0WjSVW9mgmv7kWxeDqLNcNdVFUNCAx+fuToBx9+1mgy3cSR5UqD9zzQ98XXvgyvFHn1QVxPUBRn8onf8nLsPEAI/1OvXj3tFHP48OGCggI6xW+sWrVKO8VUqlSJQAgCIXwpE17+u9Fk6j3Q9NBA788d/X0vCpm9KOBWIaGVnh855pW3vqsSWeNG/9vwShHPvzJ65NsTw8KruNKg56aMylbLrq0rdTpWlIEfatq0qXaK2bdv3+nTp+kUvxEbG6udYiIjIytWrEingEAITVCdTsexg0p2VnE/U5QARYPR9Phzxm59Lkcyrz9P6LDLy2ezPyHcc0QVjYSrqmoyBdz3j4HT4g4Pev59kznwuoe5qgoGo7n/kLcnzN79cL8R5oAg1+t49AFCWbbs2rbawFrl8EeRkZHaKebQoUPp6el0in84c+ZMamqqduqpXLlyWFgY/QICITSQBlXVvn55/mv9rXPHqwX5fxfzXHe3rtvcgCGvGTrdr4W9KARFkZfNtsZOoR/hliPq9xQnBlcIffK5937cWTB64s99+r9Sr/7tgUEh5oCgK3+Zg0JCKzVs2rp335c+G//jmt2Wp4d+VLX6rf/zOp5y9LfdmRcKWa4cfqlLly7aKcbpdO7Zs0c7T52hNKZNm6Z4dR2Ev6hUqZIkSTz8AjfS0wS4iSgoOBz2bWssk/4r6PXyslmCTmfuN1SsEFrMHbMrEwa+9EGhINi3rVHtdtGrs9ZUp0OO+17UG4y9BoiswQ93fdfwu5i298a0vfcm/kPPURTn8oXjTSY6Cv4pIiJCU/UsWrRo4MCBmhq3xM1Zvny5dtJXQEBA7dq1y+zCgXKCL4px45wO++bVlm8+UB0OUZKkCqG2JTOsM8cp2ZnF3/L+sRdF117ef55QFFVZti6cbPthrmpjLwr4v+NH92/b9JPeQEvAD6mq2qRJE02VtHfv3sTERIZxfN3evXtTUlK0U0+FChWqVatGv4BACK9edBXF9uMiy8SPVadD/H3pejE4xLZ6oeX7scrF8yXJhAHP/sv0j36i0eT9vSgshVf2J7TJdC782+Sv3pAklpOBfxJF0el0NmvWTFNVzZ492+l00js+bcaMGbm5udqpp1KlSnXr1qVfQCCEN8mLplpnf6M6/kiDVy7G5gD7lh8t349WLpwrSSY0Pfas6eGnvJ8Jr+xFMUVeOlPV0hMCgHvt3rY6fu9Gth+Ef9PUQqOuQKipLIEblZ6evnPnTk2l+tDQ0Bo1atA1IBDCa6xzJ8jLZql2m3jNVSkkyb5ro+X7MdcdJ7yy7mivJ69kQu/vRWGR46bJc8fTxfBLeXnZ3419VVUZHoQ/E0Wxc+fOmiqpsLBw2rRpdI3vWrZs2bFjxzRVUlhYGHtOgEAI76XBRd/LK+aqVsvfPcfs+vf2HestM75Sci4V91quvSiMJtMjQ4zdH/P+uqOS7speFLO+pqPhf6aMe+Ps6RO0A/w+EN5xxx1aq+rDDz+ka3xUTk7O2rVrCwsLtVOSwWBo0aLF1T29AAIhyo4qCPKPi+TYKapsKX5VK1EURb3evn65dfY3akFeMT93ZS8KSQoYNMJwVw/v70/o2ovihznWBZPocfiTZQvHr1s91+l0MjwIvw+EERERZrNZU1Xl5ubOmTOH3vFFW7ZsWbdunaZKCggIcC2exBKjIBCiDKOgqqoOu33DD9apn6t2WRRLdMCIAYG2H+ZYZn2t5OcWf/G+su7osHcNne4XDQavf+OlOp3y4uly3DS+e4MffHgVp3P9j/OnjX+nIL+AmweUByaT6fbbb9daVW+//TZd43Oys7Pj4uK09ghocHBw27Zt6R0QCFG2HA77ptWWb/9TtMPEDaxHIQaH2JbOtM74SsnOKlEmfOkDY5d/amIvCrtsXTTVtmwW647Cp9Ngfl72stjx33w2/FLWJdaSQTkREBDQrl07rVV19uxZJo763Cl03759CxYs0FphYWFh9erVo4NAIEQZnhCdTtuaOMt3H6tOp3jjd5SXM+GqBdZpY0q6F8Vzb5oefMK17qiqKGJIuFg5UqwUKVasUpbrf4qSTrUWWhdOtq2Yp8rsTwiflHB4z7Tx73zz2ctZmZkGNh5EuWE2m1u2bKm1qhRFmTp16smTJ+kgX5Gfn//ll1/abDZNVSWKomtjFSYxwe30NAGunQYFQY6bJi+epjrt4s2OL4gBgbZNq1SbLeDpV6WIasVnQlEUTX2fF8MqOc8k6+o0kCKri3rD5UIUVbl4XslIdRzc40w+ptptnp46L+r0amGBNXaK6rCb+gwWGV6B7ziZdHj96rm7tqw8duQ3vV7Qu+McL0lCZkaqqigCHwVo+bKlqpIkNWzY0GQyybK2pnicPXt2zJgx48ezlrVvHEjz589ftWqV1gqTJKljx448QAiP3PryNQOuyTpnvLxynipbS3necR1ghtZ3BQx5XapS9fo/73QIVosYVOGv/94mq7nZzqSjttULHL/tLYtLguIUDSbTP/uZ+w/neIDGORz23w5sXbd63qH47amnT9jtTjfuQa8oQnilKpFVa5X+LsRgNL/18eyq1W+ly+AhJ0+efOKJJ3bt2qW1wiIiIqZNm9ajRw/6SOPS0tKaN29+4cIFrRVmNBoPHjzYoEED+ghuxwghrpUGF0ySV84vfRq8Ovpn37VR0OkDnn1DCqtUTAS7/OM6vVCUBl1jhlf/QTSaxMqRYsUq+pbt5VXzrNO+KBo/9KAre1Esmy04FfPAlzkq3MLpcJw5fTw3O/Ny54rib/s2S0XPpiqqEhpepUbNKJ3u8klJrzfUqBUdEqqtrZZUVcm8cC71TKIkeXykTK83NLqtzXV/7EJG6omj+/bu+HnXttWXss7bbbJrA2X3jmpLkpCddeFSphtuj8xmsyxb+CDAc6pUqdKsWTMNBsKMjIyvv/66WbNmNWvWpJu07JlnntFgGnQ9QEgaBIEQZUReuUBeMsONMzMvv45OZ9+0SjQHmge/Kv3P6N/VH/zrf/X//6EopEmqKJp7DdQ3bFHw1mBVVTw6d+LqXhSCwWh+4gWOjZKlJvXq322yJSXp8J4da86kJJw5lZCYEC/LDkn8S1df+8sBVRCcTqFuVHTVGnWiG7RoeFubhk3uqBxRo6jTPTxnuMj//nuH3b5i8aTvxn4YGOT5C394xWWbMq/5R+lpKWtWzDx+ZO/hX3dmX8r8fRuX//d3D7SJe16ZmU7w9PknODg4JiZm8uTJGizv559/nj9//ogRI4xGI52lTdOmTVu9erU2a+vduzcdBAIhPH8pddjtm1ZZp3+hOh2i5OYFh0RzgG3lPEGvNz/5khQcUpobSlVV9Q2bBb43vvCTEapsFTx8i6kqirxkhmAwmB8ZwkFSDMXptFoLCwvzzp87tXnton271h4/cshuF/R6QZQEqeivG3qkTacTTqecSEk+sWPzz4pTUFQhIjKsVZuuYRUjPLfOkMNh7/v0v2rUjLrWH9lOJR0xGATJ86txFbOob3paSuysMTnZ+Qa923Ia4B9c3zhERUXdcsstZ8+e1WCF7777bvPmzbt27SpJrOqnOYcPHx46dKhmy2O+MQiE8HwatNvsm3+0TPjo5tYULdGlOjhEXjpTUBRz/2FSWMVSXvL1TVqa+gyW5024OrnUc3cYqsMuL/pe1OmMPZ8QjSaOlr+QrZaLF1KTT/y2d8eajT8vTD2TbTIJesPlvwyl+x7cFSOvHKKqkJuTvXZVnKJ6cIhQloV7ez55zUDodCrZly6IkvdveQ0Gk16XL3I/CVxLkyZNGjVqpM1AKMvy0KFDV6xY0bBhQ3pKU9LS0p588kmrVaOri+t0up49e9JNIBDCk2nQ6bD9vNQ6bYzn0uCV+/sKobaV8wWbbB74klQp8uYLVlVRrzfe28t5LN6+d6sq6TybCSVJlS3WhVMEVTD27CuazBwzLna77dihX/btXvfL9h8P7vtFUS4nwNAwDwWhy395Oo+LovB339w7nfbU0yd0xDBA2yIiIho2bLh27VptlpeYmPjCCy9MmjSpfv36dJZGZGRkjBgxYv/+/Zqt8L777vvz8goAgRDuToOqKi+eIS+aqjodZbDFghgYZNu4QrXbAp79lxRe6Wbv2kVVVaWwSsa7H3QeP6Tk53j8uTKdXrUUXtmL4uGnPL2kjU84euiXn5ZP37drbUpSkihejoL+fZ1yOhwZ6eeY5wVo/IomimJMTExYWFh2drY2i9y0adOIESPmzZsXFhZGl3ldZmbmu+++u3jxYi0XOWDAAB7DhudwawNBnjteXjJdddhEqax2GdMbnAkHBXdsmK1v0U6qHSUoZbF7iqjXq1aLvHiavGBSOT9mCgvyJowd+dG/+i5fOPHMqSSD0f/ToKqqmRfPFRQITNQEtMx1x3zPPfdUr15dy3X++OOPQ4YMycnJocu8y2q1TiqieOzRdDfc6uj1Xbp0obNAIITHToXzJsgrFxTtMCGV5QVbV7dRaZaWuXrVF4Mq6Oo2Eg2GstlRU9TpVLtdXjbLOuOrcnvMJBzZ99rz9y5d8G3qmWRREnS68rKuSdqZJB07swO+4JZbbmnUqJHGi1yyZMkzzzyTn59Pf3mLoigTJ058++23NV7nfffdFxISws7hIBDCI+Tlc+Rls1XZUtaTECRJ37Slu15MH91YNAeWZZoVFEVeMdc6d3w5PGY2rlnw1vDuRw7udtjtbtz63CecSz3JfFHAV3Tr1i0gIEDLFaqqumjRoldeecViYXNO7xgwYMArr7ziE3UaDAbmi4JACHdfh5wO289LrLO+Vm2yF04xoijVcdvmqmKlyNKuZXkTDago8tKZ1oWTy8sBo6p2u+2HuIkf/uuJixcyylsUvBIIzyYRCAFf8fjjj4eGhmq/zqlTp/bp0yclJYXxn7Jks9n69+8/b9487ZcaFBR0xx13sE8JCIRw98293WbfuNIy8RPVYRe9c4oRpYoRbjuII2sIZb4VRNFeFA558TQ5bppqt/n/tVO2xs35ctwnLzqdarmdNpl6JpErMuAblzlVDQkJadOmjU9Uu3r16ieeeGLXrl0Oh4O+8zSHw3Hs2LEOHTrMnTvXJwru3r07iw+BQAh3XyYdDtvaZR7db7Bkdbjv6W1FEbzxxWrRXhSyddFU2/I5qtWfJ/w47LZVS6Z88dG/ynMaFATh1MmjEs8QAr7ANfPlpZde8pWCd+7c+cADD0yePDkzM5Pu85y8vLz58+d369Ztz549vlLzgw8+WLFiRfoOBEK4L4Wpqrx0pnXaWFXxahoUVOXSBbflwdxLgtM736qKOp1qLbQumiovn+3H44RL5n8zYezIoGChnI+PpZ5OY4QQ8CH33HNPjRo1fKXanJycoUOHvvzyyzt27GD6qCfufw4fPjxq1KihQ4eeOXPGV8pu0qRJy5YtXfXTiSAQwj3kOePluO+LZorqvHtiVs6cdFsgPJOsyl4boBN1v+9F4afPE+7aumrmpA8cDmd5T4NnElVV4JF+wIcCgCAIL7zwgm+VPXfu3EGDBo0ePTo3N5dOdBeLxTJlypSHHnpo0qRJeXl5PlR5586dGzRowA6EIBDCbayzv5VXzVdtsuj1W3tFdR771V0v5kw6KlgKvfjbiDqdarMV7UXxpZ8dMxnnz347+uXCgjxGxkRR6nB3V7udEwngK5/ZyzfQgwcP9rk76RMnTvz73//u3r37tm3btLw5nq/Yt2/ffffdN3LkyBMnTvhW5aGhoR06dNDr9XQiCIRwD3nJDHnlPFW2aqEYVVUcJw67a46lmp+rOp1evvOQJNXplFfMs8762p8Om2nfvp12NpmPjyAI1W+p++n4nxb8eOKhx4cHBlXgJg3wCVWrVu3Zs6fPlW2327dv396xY8dBgwZdunSJfrw5586dGzZsWKdOnbZu3VpQUOBz9Tdo0ODOO+9kvijK4j6Wg8zvqU6n7ecl1u9Hqw6HqI2BHlVVRZPZ/NizpocGuuHVrNaCj192HtmvKop3vwm+/HtJOlOfp819n/eDI2f31tWjPxh88UK63wwPuuZ8SjqdePlAEXU6vSBe/p9ObxAEVRQlSdLZ7fLoiesa3/a/ixOqgiBe7ehtG5Yunjcu+cRBq7XQYbe5fTZpaHiVpRsyrvlHF86f3bllpU0uvFrP/349ce5s0qI537hrdxCbLHTt0adJs3al/3zp9IYuDzwREsoCCSg7W7du7dSpk9tfVpIkURSdnv86UpKkt99++8UXXwwLCzOZTEwdvC6LxXLp0qUpU6aMHj3aF3PglbOlTjdy5MjPP//88q0FnQ4CIUp1B2y32Tetsnz3sZfXFL1GTHXo6jUKene8FFaxtBlMFFWbXPDxCOehvRrIhIqoN5oeHWJ6aKB4OWb4KrvdNvqDwT8um6PXuznqqKpgMBqDg0ONpgBzQKAoiEZTgKTTydZCRXFaLYU2m7UgL8dmk931vooiRFarGV4xQpIkoymg2i11AwKCTaaAOlFNRUkymczRjVo57LYKIeFhv++GUswF+M9/dCkrY/nC8Xt2rDlzKiE3J9uNyfnvAmHJ7wz6P1jvTEqyzh1TjQryhXc/n9LjoSHu/OqE+xuU0TlZLSgo6Nq16+7du0v/akajMSIiIjw8PCAgoHbt2sHBwfHx8Q6HIzc3Nzs7Oycnx6O/y7Bhw/r371+7du2IiAh2pftfDofj4sWLGRkZ33///bx58y5evOjTv07t2rVXrlzZtGlTehZlgHnJfn0hdNht65ZZp3yutTR4maRTziTbVs03PfacWIr58ZfToKqKRlPQm18UfvWOY/dG795riqKk2mQ57ntRFI09nxDNAT568MTv2bhv51o3bkCvqoIkiVUia9at36xW7Qb1G7eqEnFL9ZpRkiSFV4oUBCEvN8smy+dSky9mpCYc2ZuYEH8q+UjmhXPK5ZBfqrd2OoQ773rw5TfHlzyrFHMIXf0jVVXDK0YMeuGDQS98sHDm6NmTP8zP9/jDliU8tp1Op8kcpLrzTsvudDp0On1Z/haAWw42s9k8ZMiQ0gfCgICAxx577Mknn2zbtm1AwB/n9sLCwvj4+H379u3atetIEZvNI4tOf/vtt+PHj3+wSNOmTRs2bMj2dK5TcXZ29vHjxw8ePPjTTz+tWLHC7vtPe4ui2Lp1a9Igyu6QY4TQb0+RiiIvnSnP+0512EVNbh6nOh1SaEXz4FGGDt1KWaHrJl4pyLNOG2tbv1wQJS+PEzodojnQ1HuQ6aGBYplvml96Fkv+lHH/WjBjvMnstkBYqUr1+x4c2Kxlp+YxnY0m83V/Pi/30pGDO3dtXbVxzcLcnMxSZlG9Xv/Rl8vbdOzuiXsRURQthfmfvjtw/Y9LjEb3vGwxU0ZLGAiffaz5iYRDejeNEL71yYSevZ9xVyAEylhKSsr999+fkJBQmhfp2LHjwoULq1Wr9sfklP/5/vHAgQPr1q1bunTpL7/84tHZpA0aNGjbtu3tt9/eunXrFi1aBAYGlsNuzcrKOnbs2N69e3fv3r1v375S9q+mBAQErF27tn379synQNng6u635LkT5BVzLycTrW4lLur0yqWL1jnfCHaboXOP0o8TSkEVzANHiAaj/OMiVfJmJry6F4Vgt5n6vSiKPja3J+Pc6R2bftAb3JMGnQ7hrnt79RvydlSDFrrfj8brzsmsEBLepkP321vd1a7TgxPGjjyVfPSmixFFwW53TPhiZFSjFpUqV3NzXxeVFRAYXK1GHZWVZgBNqlGjRr9+/d59993SvIiiKBaL5c8f/D+fxFwnrhZFevfuvWzZsm+++ebUqVMe+o0SihgMhltvvbV27dqtWrVq27bt3XffHRoa6ve9mZ6evmnTpt27d+/fvz89Pf306dNWq9XPfscOHTq0b9+e+RQgEKJUrLO+llcvVO02UduPGYgGo3Ih3TL5UyUrw/zoM6W/L5dCwkxPvKg6HLa1S72dCa/sRSE47OZBr/jQwaOq6umTx1KSzwS44xtnq1V46sV/Pf7kqApF64hczYElnJNpDghq3f7+W2rXH/XCvamnkm96+0xJEs6eOj5nykclnDh6oy0miqIk6ZluAWiTwWDo2rXrjBkzkpNvftnk7du3x8bGvvrqqwaD4e9OXK6zQb169V5++eV//OMfzz333KZNmzw3Fctut58osmXLluAizZs379ixY6tWre64447g4GC/6cGcnJwtW7bs379/w4YNSUlJBQUF+fn5DofDX4/Y119/ncetQSBE6W7BY6fIqxaoNtk3ypUk1W6TF0y2b/7RPGiE4Y5OpbkxF0RRCgkLeHqkmp9r372h6F94LxO69qL4Ya4giOZBI3zl+LHJlr07f3bL04OWQmHAsyMHPPOO2Rx43WfzrnmD5fqvqt9S96upm4cOaHs+PfWmB7wVRd25ZcUDvQbXb9TSzR3NBRvQMNdppHXr1h06dChNIBQE4c0337zlllv69u2r+5sz0dVYqNfro6KiNmzY8Nprr40dO9bj522bLavImTNnVq5cKYqiyWSKjo7u2rVru3btoqOjmzVr5lu9lpeXd+DAgUOHDv1SJDExUVVVpYjfH7Ft2rTp2rUrFxcQCHGzlz1Fsf0YK8dOVR120UeWIHONFgmC6kxLKRz9RsCw94yd7v/bX9BhF0RJ+Luhv6tf0AYGB77yUcHHI5yH93l33VHXW8sr5goGo7nfiz7RI7LVsmvbKoOhlHdggsMhtO/cpe+g183mwJu+sF29u6oSecv7Y+OGPdlOUYSbPrTPnzuzasnk+m9P5FwBlB+ur5Z0Ot0jjzzy888/p6enl+bVBgwYkJSU9Prrr/95XZlrnrhc7ztmzJimTZs+9dRTZZZ+XQOShYWFvxa5+kfNmjVr3LjxbbfdVq9IdHR0hQoVNLJa6aFDh5KTk48fP56RkbFu3boLFy6cPXu23B6xn332GR9bEAhxk9cAwWG3b1xp/X6MqjhFSeeLV21BbxCKHQCy71gn2GyGDt0Ec0Dx137RZA7699cFH7+sib0oihb4EfR608NPi3q9xg+k3NysE0fPlm43kMuBMDQs5OH+I1wriLolV9eNbvaPR15YNPs7o+lmRi9FUXA6hQN7NiYc2dugcQwnDaBcZUJBEHr27Nm6desffvihlK/2/vvv//rrr1988UW1atVMJtN1s+igQYOcTuewYcO8+6jbwSILFixw/d+6devu27dPC+uUnjhxYujQoVu2bOFAFQShS5cunTp1YrIoyhj72PgLh922brnlu09Up4+mwZIxGC3ffSyvmKdaCq97DRaNxqC3vtTHdBK9vZru5XocNnnxdHnpDNVq0Xgb7935s9Fc2jSoKkL7u3u1iLn7yrcV7kiqZnNg94cGV6wcetNrt0iScPrk8QN7NnLCAMob14lo+PDh4eHhpX+1pUuXNm/efOrUqampqSXJooMHDx43blzFihU10hr33HPPnj17wsLCvL7UvKqq0dHRsbGxvXr1YnNFQRDeeecdJouCQIibOp86nbYV86xTP1cVp2bXFHVXtBICAq2zxlljp5QoE5rMgS//x3B3D+H3WTReK1zSqbJFjpsmL5+typpeD+34kb2lP4gqhIbEtL3XHBDkrq85XS9So2bUnXf9w+64+cPHbhOOHtyVk32R8wZQrrjOIV27du3QoYNbXjAnJ2fYsGHDhw/fvXt38Q+2ua4+Q4YMeeedd7SwCmjTpk1nzJhRsWJFLQxDuS7WkZGRY8eObdmyZTk/Sh955JFWrVqRBkEgxM2Q539nnT9Ri7vPe4jeYFs+2zrr6+JH265kwsAg81MjTfc/IiiKlzOhTq9aC+XF0+VFU1VP7k9VSinJR3SlOzGoqhBZrVbj29q6/WvOoODQ+o1a6vXCTfek3iAcit+eejqR8wZQ3rguAaNHjw4JCXHXay5dunTgwIFr164tZtfBKxsjSdLQoUMHDRpkdNd2pTelcuXKY8aMqVmzpnaGoVztU7du3a+++ko7g6hlLzAw8Omnn/antWFBIETZscz4Sl4534dWkXHXdd22dql1xlfFj7Zd2YuiQqjpiReM9/XRRCa0yfKyWfKsrzXbtufOJkulDoQVK1erUSvKEzdzkdVqh4WH33Q3SpKQdvZ8eloKpw6gvHFdERo0aDBkyBA3vmxCQkL//v23bdtWzPXFlXkMBsNHH33UuHFjLzbCiBEjXCtYarBr2rdv/9prr5Xb4/PBBx9s3bq1u56zAAiE5Yh1/kTbj7GqbC2HEwxUp8O2Js66YJJqt10nnRTtTxgw8GVjx/s0MHe0aC+KFXOt07/QZsOmp10szUb6qiqYTAbX1g7ubWrXQV454pawihE3/cKieLnCMykJdl/ZlwWAGy8cReeOf//733q3ru918eLFBx544MCBA9c9gwUHB3/zzTdms9krv/4dd9zx8MMP6zQ5mcjVNW+++aYrFJU31atXf+qpp1wDpEwZBYEQN3DqlH+YKy+ertrKYxp07WinCoK8aKq8fE5xmy5e3YsiKDhg+PuG5u1EUfJ68UV7UcyzzvlWk4dWaXcglHS64ArhHrqqVY6sERZepTRJU6cXjh/ZaynM5zQClMNrh6qq4eHh48ePd+8rWyyWtm3b5ubmXvfa3aFDh/79+3vhhk+Sevfu3bBhQ20OQF29Xnz66afl8Mi87777unXrxicUBELcQBRU7TbbmsXWGV+qDpvX442Xrx8Go3XqaNvq2BI9T2gyB771pe62GEEUtbC0mrxslnXBRE09T+hw2Ev/IgaDqeatDTxUodFo1htK9QSOKAh2u6yqCicToNxmwkGDBrl9r3a73d62bdvMzMzrxp5x48bVrl27jH/xZs2a9evXT+MDUKqqdu7cuVOnTuXqmKxbt+4LL7wgauDOBARC+A673bZuuXXSf/18h4mSZ8KAQMvET+SV80u6F8XbX+lbdfD6mbdoLwqHvGSGvHiadvaiOJOS4JZvGBTF6bn7BaF0/abTCScTD1mthZxLgHJ74dDr9Z9++qnbo9HRo0dfeeUVh8NRfOYJDAycMGFCWa4uo9Pp2rdvX7NmTY1HDtel+dVXXy0/R6PBYHjsscfuuOMOJouCQIgS3ww7HbZV861TPlcVpbysKVqyTGid8aV10dSSZUJT4CsfG+7qLhqMUp36+jadDZ17GO7qfvmvjvfropuIQRVUpSyGj0RJUmXrlb0otJEJCwty/f5ypAqCpNMXjRQCKK93P5LUoUOHJ5980u2vHBcXN2PGjOteibp37z5ixIgy+31DQ0MHDBjgE5FDkqR27dpFRUWVk0OxcePGb731FmvJwLv0NIFP3ciq8vxJ8vJZ/r/f4I1nQtVgtC2dKVgKzQNfFs0B18mEAYEBQ0YZ2nSWIqqLFauIJvOVQSdVVTLTlQvnHcfi7Zt/VC+me3qbJlGnV2WLvHi6YLeZHn9O1Bu825K31muiaHsqpcVSIMsWwhyAUqpQocKLL764c+fO48ePu/UcZfniiy9atWrVokWLYq5EgiCMGjUqOTk5Li6uDH7ZWrVqtWnTxle6Jjg4uE+fPuXkYcLRo0cHBwdrYU9IlGeMEPoS6/Sv5BVzVYejXO0wcQOZUBBsa5dapn9x3b0oitaYqWBoe4+ubkMprJIYECQGFv0VFKyrFWVo1d78yJCg97419nyiDIL373tRzJZne3mNGVVVgyuElf51bDbrqeSjHioyN/tiQX4Ow3sASnm6EwShdevWgwYNcu+Ko66Jo5MmTcrLyyv+xypXrvzxxx+XwfNyoig+8MADPjQGFRAQcNddd5WH4/CZZ5659957mSwKAiFKnAbnfGv7aZFqkzlrFHeNdzrsa5da54xXi91UoJg2dF0vRaNJV+NW81MjAl79r2AwefoiWrQXhUNeMdcybayXQ7U7flOH3XYuNdlDRaalJl/MSOVDAMAtp7vnn3/eE0Nn06dP379//3UTaf369d94441q1ap59lZPkvr06eMrqcPVMjVq1Khfv75/H4Q1atQYN24ck0VBIERJyctmuTZXIA0Wf4F3XePlZTPlpbNUm+3mXuTP/8/YrkvQR1NEnd7Ti1K63te2cr7V23vW142uU5p1T0VRcDhUz+38nnT814sZOaUcIy86UvjEAGRCNTw8/K233qpcubJ7X9xms40ePbqYFUfF37dE6t69+9ixY91ewF8CYcuWLX0ldbhaJjIyskmTJv59BE6fPt21IyUXJBAIcX32nRus879T7aTBEl9L9AbrjC/kVQtKuVKL63ZBH9048PXPBbUsvsO7nGZXzJWXz/ZiA1asFFnK8CuKQkb66aOHfnF7bWlnEvfvWlfKBy0Vp1Dr1gZGUwAfFoDrhSuSPfbYY5K7n8VYtWpVfHx88RcOVwF9+/b94YcfoqKiPHSVv//++30udURERPh3IBw2bFjHjh25rwOBECXiTDtlnTdBLchnh4kby4TmQOukT+SVC4pfd7RELyUI+hZ3mnoPFBTF43NHRVG12eTlcxy/7fVW6zW/4+5il0wvUSBMT035ZfuP7i1MUZSD+7f+um9XKZ/3UVUhJKyy3tvr9wDQyvVCEMaOHeuJ+PHhhx8WFhaWJJS2a9duzZo1DzzwQHBwsNvLaNmypW91iutSW6tWLX896po2bTpq1Ciz2cxkURAIUYJzosNh37zacexX0WiiNW74Gh8QZJ0+1hr3fSkzoaqqosFguq+PLrqJ4HR4vHKdTslIk/+PvfuAj6Ja1AB+pu3ubHrvvRBCCIHQm/SuKHhBBOFxsYCAgCjSRAWUe0WaiAVEEFBpioCCgjQBqdI7hBJCgPSebTPn/ZLFyFWBZEuyu/n+j+fPi9nJ7JmZc843Z+acH1fLRYU1UnRRsQ3MXCqfYYhWK+3bueH61XMW7B9cTzmz5svZxu2bQ5JIRHSCUqXGZQIAxupFqVR+/vnnbm5ult3ynj17fvvtt8o0WJTSyMjI77///u23305ISLDgPnh7e7ds2dIeU3pAQICPj4/jnW+urq6TJk0yxl2MEAICIVSilSrK125cxTi5oChMbFEUSu23y3S7NpvfMrF+QULz9oRlq+N+Hi8YTh2Szv5eI+VWt34zUU3MXHyC58mVCyd/WP9pcVGBRfaquKhg2cfTLl04LyjM7PkRliXBYbGCoMA1AgAVeaxp06azZs2y+ManT59e+X0QBGH8+PHLli2bOnVqVFSUmV8qJiZm3Lhxy5cvr4aJTK3By8vL4hG9xvE8P3To0L59+2IuGbCtMxNFYMukC6dobjbj5IyiMD3LsSwjOpmbzMsXCOKj4lkvPzk7g1j7lh7D0Lwcw7njfFJzRqmq5hJzdnGvE9/o3Olj5rxQwzBEpuT7NYt8/cP6DBjNm5e+dDrtf6f9375dGxVmhzhZJv6Bvj6+wRWHFZcJABirgqFDhx47duzzzz+34Jb37dt3+PDhpk2bVjITMgzTuHHj+vXr9+/ff+fOnVu3bv3pp5+q9BvDw8Mfe+yxxx9/PDExMTAw0MnJyU6rO4cMhI0aNZo4caJSqUQDBAiEUFmGS6cJj2NkbjvPJ7e2SF+BjajD+gfLWXesPbRe1i3gOOnqeVpcWM2BkBCiUIpNW3c/deyYYN5LdixLDAb5k7mvGQy6Z/89yeTtZGWmvzW+7/kzh8x/WNT4vGhsfCPfADyrAwD/g1KqUqmmTJly9OjREydOWHDLn376aWUC4f2ZUKlUJiQk1KlT59///ndGRsaOHTt279594MCBa9eu/f1Tzs7OkZGRiYmJjRo16tChQ3h4uCAIKpXq/mly7LG68/T0dLBA6O7uPm/ePH9/fzRAgEAIVSCnnCcc5pIxp4GXOd9g1tXd/FtxlFLW3ZP18i37t2q4scdycnqqmW8/mhgIFco2HZ765ov/GAySmbPuGT/+6bzJh/ZtfWv2Ok8vv0oWnfFBGlmW9u74bu7M4YUFuQxjgTRIKZElElu3sbdPIK4OAPhLGDMOr7333nv9+/d/5LLylbdmzZr58+e7urpWfjeMBEHgeT6y3AsvvGD8yxs3bty8eVMuf6xfFMWkpCThf+/eOczQE+NYCwQxDPPGG2+0bNkSY4Ngg/AOoW3nmZJCglrDvATA+gZa5FaccQuMhw9TC9498/ELad6mp0Fvma3xPDlxdO+Tj/nPf+/llEsn8nOzSooLtNrSv78+IUmSTqcpKszLuHNz18+rhz/bePKY/gX5uZa6CCglgSEBCUmt8PIGAPxTFVFWLXTp0mXChAmc5e7GarXaadOmmdP03L+HYWFhrVu3bluuSZMmgiD8pTZD2LBN3bp1mzhxItIg2CaMENo0RnQi6LaaHwIsh3VzJ7xAdFrHLjMPT9/mbXru372JUsvckeA4QlmydsUna1d+EhEV2SC5bUBwVL3E5uWTqnJOzm4aTbFer8vNyci4c/Psif1Hfvs5O0sjqolSSSyYBgkhEVEJsfHJ6DMBwD+mL0opx3Hjxo27fPnyqlWrZDPn1yonSdKqVauee+655ORk8/ewkn8JNiU5OXnLli1Ig4BACCbFj6i65NhvKAcbSpdFhdWw8oQxvjBqZ4bnaiJBl7VYTVp2bdS0/dGDu1jWMpGMYYhKLEtlN29cvZZyVZaIcbVDpZIEhQZlZdzKzyvLjSxLOJ4IAnFxtfxXc3J2adeln7uHD1plAHhIJnRycpo5c2ZqauqePXss8jRBdnb2tGnTVq1a5eHhgUKubeLi4r777juUA9h04kAR2HRer5dcTfHDcdt2OeuuBbcnZ2dQna469lyW2OAIYvb8qKb1hwghfgFhXXoNdnN3t/TGCc8TlYqonYirW9kfhZLcvX1LlombO3F2Kft7pZKwrDW+F4mMqd/l8cG4oQ4Aj8yEISEhc+bMiYmJsdRmt2/f/tFHH+mqpwUBm+Hn57dw4cLQ0FDciAQEQjARF9eA9fKjsoSiMLlllzPSqYWe8KSaUjk/p5rihGTgYhMY55qZYM14R7xzr8FNW3ZjWdaqjy0zzL2BQWtTKMXBL04TBAXeHgSAymTCRo0aff755yqVZaZ61uv1H3zwwdq1aw0G3OetLZycnGbMmNGxY0fciAQEQjC9U86oRKFjb4IbimY06kSW9L/vs0xGu3aR3r1FWKvX6VSS2JBIPq4Bw7I12BliWfb5V2a5eXg7wtUkkxZtezVp2RWtMgBUXps2bTZs2GCpSqOgoGDSpElnz57FbanaQBCEcePG/fvf/zY2qSgQQCAEEzvlDC8oe/RjA0OpZMDsMiYHa/3OzZYJhBdPS7euE4a19g4TycAnteDiEmv29KOU+geGv/72UpZj7ffso5TIMvH2C5w8cyWuBgCofB1ovDPbpUuXGTNmWGqzaWlp3bt3v3XrFkrY4XXv3n3GjBnG6WpxIxIQCMG8NskvSDVkLKNQUUyUb2IeoNLFU9K1S2ZuR85I1/++j1j5HQBafoy5uAbK3oMYhq3ZI27MhC3a9Oo/+HWO5+z07KOUOLu4zlm8U1AocQUBQFWrQZZl33jjjTfffNNS27x9+3ZsbOzu3bslCe+DOKw2bdp88803WOIIEAjBMvGAIUTRpqtq6KuMkwtqFhOLsahAs+YzakbTSw0G/b5thqN7CS9Yu/PBBYWJg0ZyQeG28AK6MRO+OOY/A4dNVqlES0zAXq1kibi4uo1/c3FoeB280A8ApjXEPM+PGTNmwIABrIUe4y8tLe3QocOnn36anZ2NZt3xxMfHb9u2Ta1Wo90BBEKwWHecEKLs0U81YDjr4oaaxbQyNJw8pP1+hWmzy1AqG87+rt24kiiUVh4elNmQSPHFiXxSC9tpRYwFOHTE9OdenObu4WVHMxxJEvH2Cxg75ZP2XfvjiR0AMKcO9PLy+uCDD/r06SMIgqVy5qhRo0aOHLlv3z5MPepImjZtunbtWpVKhTQICIRghUzY8xnloNFEdMLdRFPKsKRIt3Glfv8vtOrTu0nnjmuWfiBnZzCcFVcFpJLEhdcRR0zhE5vaWiti3JkBQyeMfH1+dFwipbb+QqtxD8MiY0dP+LBD12cwtA4A5jfEgYGBCxYs6NOnD2e5tmDNmjVDhgyZOnXqqVOnZLt7BgP+pn379suWLatXrx7SICAQgtUyYZenxOGTGcybbwKOl/NzNcvnan/4muqrcC9Wt29bycJ3pGsXGYXSigHGoOej6qpfeZuPa2CbrUj5XrGdew6aNHPlY52f5gXBls9BlmUbJLed8Paytp36Gi8fNMwAYJFMuGjRor59+1pwy9euXZs9e3a/fv1Gjhx58uRJFLX96tSp06JFi+Lj49HoAAIhWDcTCq27qF/7L6YwrnIBEsJwnJyfo/3645JZr8pZdx75Ebkgr/Tz2aWfzZLvpDGCwqppkIuME8dM5yJs9z23ilMuKjZx0owVr0373D8w3DbPQUpJ32fHvDV7XUJSS6RBALBsNejl5bV8+XLLZkJCyMWLF5csWdKl3I8//lhUVIQCty9t27ZduHBh3bp18YYCIBCC1ZsihmH4xq3VE2YTWUYmrHIZshzV6w0nDha+9ETpF3PkrLv/HAVzs7TfLS8a/6z2x9W0qMCqiwFSycCFRKpHv82FRdt4K/LnSLVK7Pr44GGj3pVsbHVlWSaubl4ffLb95dfmenj6/jGwiYYZACxZDYqiuGbNmp49e1p245IkZWRkbN++/fHHH/f393/iiSeWLVt29+5dE9p6jUZz+PDhhQsXPvvssz169MCBs7bExMRPP/00Li4ObyiAneJRBPbVFJWnGpZv1k49dmbpoum0vEuOLm9Vy5BQWfv9Cu33K7ngCC42gQ2OYIPC5dQrcmGefOGk4dIZQinhBWuvMEEI4YLCxZHTuKi6dhFdKvZw58+rZ04aaOUpVytZjIRhCMfxKtG5c89Bo9/48P5RQVwaFuuqGgwoBICKWoXjuG+//bZv374//vijNVqH4uLizeWMz8A3adIkMTExODg4Li5OEIS/RA6GYTQazYkTJ/R6/c6dOzMzM9PT0yv+a8OGDXHUrCo2Nvabb76pW/deO452BxAIoXp6wGU1jqJ9T6ot1axcSEuKMAxiSqPOl7Wp0q3rUuoVIstlfzi2LFuwPOH4aihPhmHYwDDxhQl8fEM7OoKlpcW7t62d9+5wG9lfN3dPT++Axs279Hn2Ff/AcIwKWqWd4Mn50wd79XmB49BkANxriJVK5apVq4YOHbpp0yarzgcjy/KhcuYkWLAGlmXj4+NXr16N9wYBgRCqPcn8MQCi7PY0kSTtmsW0MA/FYmIzyXHEmnOHPqQzwYVGicNes8E5RR+iuCj/q8/fW/3l+5JUI8VW0T0inl4+Pn7BAUGRzdv2Sm7WyccvuKJg0SRb4UohhQW5lGIKRID/aYjd3d0//vhjb2/v1atX462/WuiJJ56YN29eeHg4mh5AIIQazYQ9+xNB0K74UC4uRGVkL6gkcZFx4otv8HWT7CsNrlw849uvF1QpDVJKOJ5v3rp7Xm7m7VvXsjPvmvxKpkp0CgiKDI2ICwmrExlTv+yfsfUZhr0/B+IqsEo7IZBTx341GAxKlAXA/zbEAQEBH330UWBg4Pvvv6/RaFAstaVW5PlBgwbNmzfP3d0daRAQCMEGMmGXPoxKXbpoOtVpUSXZQRo06PmYBHHUNFueU/TvdFrNso/f/H7tx3qdVKWxQb2etOnQ65WJH5UUFxbkZ2fcSc3OupN67bxWU5J+M6W0pIhhmJKSwow7qZIkGwuDYdnI6PqyJHE87+sf6ubuHRgS5e0b5Osf6urm6enl7+Hld1/gxDsb1VDbkJys4vS0KzFxjVAaAH9piJVK5cSJE2NjY4cPH45xwtpApVJNnTp15MiRSIOAQAg2lAmFNl0Zlbrkv+OpLKNisvU0GBUvjpnOhUbZVyuy6IOxm9cvlmVapTQoScTL22PEq3O8fYP++LtWBoNeqymlVNbpNLIkE4bIkqTX6wipmCaBUalE42wxgqDkeF5QqARBMA4G3p8DMSRYbYGQ58mGbz6a8M4XKA2AvzfEoigOHDjQy8tr+PDhN27cQLE4MD8/v+nTpw8ePFilUqENAgRCsK1MyDdurX7jg+J3x1KWRfVko2lQMnCh0eIr73ChUfbVisybOXzjus8YhlT1aU+Nhgx6fqqPf4jxLL13rvIC72zK/KT3R2ic5NVMUJDN65f9e+SM+7I9APxPQ9y1a9cdO3Z069btypUrKBaH5OPjs3jx4ieeeOLvrRKAXcM6hI7QFN1bi6JJW/X4WQzL0XIoGRuKgmVkLiii/EnRWPs6Oh/+Z/TGdZ+x5TOwVuUrE72OtGnfoWP3Z/k/FvAws+FEu1ulskpMbmvBpSIYhnA8eX1EF3NW2TIY9BpNiU6L96zAMRtiQkhUVNShQ4e6deuGMnG07jLLxsTEbNy48YknnqioA9EqAQIh2FzkYBhG0bab6qVJjOiEpVFtra9QlgZHTObjGtjRDUW9XvfxB69+v+YjE/aXUuLkrHqy/yhPb3+cADWCs/Q8sCxLrl05N2PiM7dvXZOkymZNWZZLigsy7ty8ce38d98snDSqx8L3X8HRAUet6imlnp6e69atGzdunKurqy3slSRJODRmUqlUTz755MGDB1u0aIFRQXBIeGTUodqh8jlmniIGvXb1Z3Jh3r1Fu6Gms/q9FSbqN7Gn9QZLilYumfndNwtkucpPihrPu+5PDmvWpiceqqmhCoEEhsbIkuU3+/PmNRfP/d5/yOsRUfW8fALd3L3VTi5/6X0WFebqdJqCvJzc7Dt5uZmXzx87c2L/scOHKCW8QPJys2RZZlncjgSHbYudnZ3nzp0bFRW1YMGCy5cv1+wu3bx5E8fFHMHBwcOGDXv77bfRnAECIdhVJuzRj3C8dtVHtLjAzr4DyzCi2qHSoFy+wsQLdrbChE6n+eHbxd9+NU+vl6s6zmQcmY6ITujV9wVBUKD5rKn6IDyynjUCoSCQ1KtX/jP1pcCQwMiY+v6B4W7uPvf9BJEM+syMW6UlRRm3U29ev5ibU2xcuEIlln2cUpKXc/fYoR2NW3TGQQLHbotHjhxZv379OXPmbNq0qQb3JycnBwfF5EPZunXrN954o2dP3NwEBEKwx0zYtQ+jEks/fZdqSu2i/qKyxNdpoOj1DBdb/yE/xoXH8nWTDL/vs480aDDwMfXEkW9ykXF21JBQSs+dOvjV0vdKS3S8KZO/EJWo7vnUsKjYBnjFogargoCgCF6w/FMCDFOW7jieZNxJv3MrXZbJXx9OZwjLlP+TLftjzIH3Ky7KP3VsDwIhOHxbTAhp27ZtVFRUs2bN5s6dm52djZKxI6IoDho0aNKkSREREUiDgEAI9poJhbbdGVFd8v7rVJJsuRYz7q1q4ChFx8dZT9+HV7usX5D4ytv6/Ts0X3xA9Tqb/l4GPR9dTxw7gwuJtK+GpLgof8mHE7MzswWFiVvQaTWb13924exRjuNkWQoJq+Pi6lE+TKQICI50cnaTJcnT298vIMyR2teS4nyb+jZKlRgUGphxO53jrVHPEI4jpr2lqNXqL549qtNpFQosdA+O3BYbm7OgoKDx48c3bdp0ypQphw8fRsnYhYCAgEWLFnXp0sXJyQlpEBAIwb4zId+4jXrinOKZY6itDtRQSokkia+8IzzWgxGEh1e795Ygd3FXdHmK9Q8ueedlm62jqcHAhceKY6ZzIZH2NUpGKd26cdnxw4eUKtOjgizLqdcv3LxxkRDGODmbcZCIKfuvbNn5SSjDsGz5X/KCIjg01tXdUzIYvH2DgkKiSfnSFMFhsW7u3nq9Lr5+M1X5PEm27OrlU2dO7LfgNC6yJGm1pUqlaHogVIrx9Zulp23geJuqncpOg9u3rqZcPFG3fjNU11AbmmOlUtmpU6fExMS33npryZIlmOXFxrVu3fqrr74KDQ2tmJ8PaRAcv7LCXJQOzHhw9ft/KZ07yQYrtbI4R4hq6KuKXgOYqswwYfwuhiO/lvxnPKXy/euV20SZU8oFhYljZvCxCXZ3W1GSpMfbuJUUF1fblB9lB5P+sSY9/fP5Q/rHXxp/gGFJTFyCSqV29/QJDo11cnaNqduI44SGTTvIssSW58zyjMmy1lmKk1Iql5EIpTKVWYa9euV0Xk7mpXNHrl89//vBbTnZOTxvwX4k27Bph/8b8U5EVD1BUJQnafbeP5hKfUFJkrZs+HzmpOFqJ9uaW6p8ahlh9OsLnug3ArU01J7m2HjZrl27duzYsXfu3KnO3ped9vSys7P79++/Y8eOavuNoii++eabkyZNwqgg1DYYIXTouF9elyladyaaktKlH1BNie1UcMb2SdG9n6JHf4Zlq7Rjxp/km7RV/fu10s/fLx9uYmynyWeDwsXhk+0xDRJCftuzMTenWBSr8ywlpHzU6JEpIuXSmfK4Taj8I6VEksuCosFAnF1IeFRd/8DwqNhE34CwpOR2CqVKqVKLamelUrTUbJY5WXd+3bH+/OlDOVm3r105e/vWXUm69+QkyxKOJ7xFa1NZlg/v+2Xvzl/0OhIR5efjFxwZU98/KCIoJDosMl4Undw8fJyc3R4ynM5xXFRsA2cXVpJkmzoNGYYUF+kvnj+q12kFPDUKtaY5NrZ6/fr1e+yxx4YNG3bgwAFM92I7RFFs3LjxwoULGzS4tzoU0iAgEILjuLc+Yafe1KDXfv2JXJhnCynl3jBadLziyecYnjdhl+69J9muu+Hs7/r92yjH20LdXZYGQyLF51/nE5Lt9Obizq3fCIJtdqce+MYapeTq5fNXLp7fs32rLJdFxLAIn4johPjEFtFxDX18g7x8g3z9Qsw8HNdSzrz9+ivOzoRhy/ZEqbLusJtx7hZeIMSJZGXezbh79/Tx32WZSFJ5BnYmo9+Y82T/kQ8KVMYv6x8Y3rxNzz3bN9ta7OJ5cuXC8fS0q2GRdVFLQ+3JhMbGy8/P74cffli/fv2cOXNOnTpVUlKCwqlBHMfVq1dvyJAh48aNMx4jREFAIAQHbIHuzTva7WnCsNqvFtGifJvYMYVSaNKW8w00rfI1foR1dhNadDCcPlK+wEZNp1xZ5iLriM9P4OMb2u+jJseP7rL0eubVkRXvjc79MQtOdlZmxt1d+3fv4ngSGBQQE5+c2LBNZEz9+MQWzi7upnYaeCcnYvKrleb1V8rD8H1BvbiIFORnP/IxME9v/yYtux7c+4MsU5s6H1mWXL1y5tbNKwiEUGsb5aeffrpz586LFi1at27dqVOnZFlG4VS/8PDwPn36DBs2LD4+Ho+JAgIh1I5M2LUPo1SVLv4PLS2u8SqPcfNQdO9nTv17b+Kchi250CjD2WOkRmMMNRj42HriiDe5qDi7blHycrIdYMFwY4JSKAilJOPu7dvpP+zd8UNQcEhsvcat2vVu1a63ybHQdgIVU/b/j75AmrToWie+yZmTh3netva/IF9/+vje5OadzJk4B8BOG2Xjv7i5uU2ePLlHjx5ff/31ihUr7t69i8KpNmq1+umnn37++edbtmzJld8HRRqE2oxFEdSeTEgIUbTroR4z3fiUZs3uDxcSxbq6m/Nsxr1BQhc3LjKO4YUa/EbUoOdj6oljZth7Grz3Rp9Dnfn3kiHPkzu3b+7ZvuGj98dMGfPEscM7HP5+vPE8DAqNbvnY4ypRYWuTSigEcvbkb0WFeaifodYyNltJSUlvv/32pk2bBgwYgDKpHo899tiWLVvmz5/fpk0bjuMwlSgAAmGty4R808fUE+cyNTvtGMvyTdqaP/WZ8eNcQmPi5FyDaZCLjLPH9QZr2fl/b530osL8U8f2ThnzxPJPphkM+trQ3ew7aFzdhKb35mu1GbxAThzdX1SQi5MT0C6r1eomTZosW7bs+PHjCQkJKBnrCQ8P//7773/88ce2bdt6eHggCgIgENbGtudeV6xRS/WE2cZMWDOxkGFYvyDza+F7g4RevozJa6ib19umssSFRKlHveUwaZBlGQdeiYZh7v3RlJYsXfTu9An9auwSqMbupig6vTDmv65uHrY216hOS/bv2SQZDKicAe0ywzAKhSIpKenkyZNffvllREQECseiTRsriuK0adPOnTvXu3dv43LziIIACIS1uvlhGEZo0UF85R2m/O2dmugQM6xPgMVOYg9vUu0vSBnjHxcSKY58k4uOd5ixwSYtu8lSbbgKiFJJdv38/eDesfl5WY59vVNKExq0fGnsbFHtYiPhl1LC84JfgOfttKuyjEW6Af68WlmWHTx48MWLF+fNmxcXF+fs7IySMYcoir6+vmPHjs3KynrnnXdEUcSoIAACIZA/1wBs30s19FW2fHaNGsiEVLZk75LWQMvNhkSKL06y6zlF/y65WSep1sx1JyjIzRtX/vvmEMd+k83Yy+zx1LAXXnnPxy+oxvOXWu0SGVO/e+9/f7TiwPg3F2MpQoD7r1ZjiywIwtixYw8dOjRr1qx27dr5+fmZ3s+z24nCOI4zZ+ddXFyaNWs2adKkM2fOzJkzR61WIwoCPAhmGa2lTU7FvKOEEO3XH9Pq7hBTuSDPUtOC0uJCUr2dXMdYYeIfde713IrF0wsL8lm2llwL5ND+rV8senPka/M4nnfsS/7J/qP8A8NXLJ5x/vTh6p9ASJZJUEhETFyjBo3bNWvVPTAk6t7VhDdvAR4QC11dXUeNGvXyyy+vXr36p59+OnToUEpKiiRVrb1r3ry5nZaDu7u7l5eXCR8MCAho1apV+/bt+/bte3+WRlUDgEAID8yEjFJZuuR9WlJUfXUlpfKVsyQh2SIbk1KvUE1p9aVBycDHJIgjpnBRdR2sL0spdffw6fPsmCULpqvE2hIIZZn8smVVw6bt23To4/CXfPM2vQJDYn7etHzb5i8zM25XQ+yXZaJ2ckpq3D6pSbvYuEaRsYmubl73R0F00QAeHgtZln322Wf79et35MiR3bt3b9q06ejRo4ZKv3z70ksv2Wl7xDBMx44df/zxx8LCwkp+KikpqXPnzh07dmzSpImnp+f9m8IZBYBACA/LhIp2PRmVU8ncSVSvq6ZKU5YNZ48pnxxsmUCYcoFoSqqpiTLo+dj64pjpDjmnqPGUeOLpl44e+PnU74dqYqaemsmEuTl5v2z5KrHRY27uXg7fvwwNrzNk+NttO/X9aeOyrd9/odVqrHQWcxzfrHWPpq2716nb2Ns3yOuP14YrLhx00QAqedmWddd4vkWLFo0bN3722WcvXbq0fPnybdu2ZWU94hXoli1b9u7d236/+IABAzZu3Pjjjz8+/MUWtVrdvn37QYMGJScnBwUFqdVqVDUAVbviHHiGPahUwimvMSmlhuMHSmaMptVSdVJKWd8A5znfsM4u5m5Kqyl+b5zhxEHCstbec2rQc1F11eNnccERjn3H8eqlUzMmPpNy+TxfO24ZyTJRKBUz5m5o1rrHg37m+JFdI5/rYCMDp6Ul5IUxUwc9P0WhUJlwvRv/XafV5Odl7d+zaeuGpefPHLPIsZYMJCwqtnHzzg2bdkxq3I7nBYVSxXG48whgsfba+C8lJSXFxcXffPPNqlWrjh49+o8/36xZsxUrVsTGxtp1g1VUVNStW7f9+/f/43/18fEZMWLEgAEDQkNDVSqV8Z1DDAkCIBCCic0MIcRw+NfiWeOI9e+olVXWKlH13Ghlj/5mbkp/5NfSj2fKuVmMNZ9+KysfWeZCItSvzuIi6zh2Y2P8dudOHXh3yqBbN64y5eXq8G1rSTF5+bV3nh06kX/AwOjxI7tGDe6gVNlKIHxxzJsDn59c1UD4oHCYlZF+9MDPp479evzIrqyMW3+s2k//+Mk///1/qwbG+H/JzTuFhNWpm9CsUfNOHp6+f98+AFivxj527NiX5YqKiozXaHR09IgRIwYPHmxcas9+r8SKaWDmz5//ySefXLp0iWVZSqlSqXz88ccHDhxYMf6JCgcAgRAsRrdna+nHM6hOa/VMKEl8bILTO58watPn1KZaTemn7+m2fWtcP8OqDRIXHC6OnMbHNagNrY7xO+bnZs2Z+eKJI7scexLOe3cW9KReYvL0uRt8/UP+8Qeup5xd9vGbgmATU2LqdJoO3Z9t3f5Jnhessf2rV05LBsPpY79yHM+y3J3bNzLupMqyzDBMTFxDUXQyGAyhEXHunr5hkfHC/0ZodMsAqrmuNucH7P1rosIBQCAEq1S4uu3fa1Z+KBfmWzUTlv06jlM+OVg5YATDmTLhKJVl/a4fSj99jxp0DGPdyTHYkEjxhTf4hOTa0/ZUfNPN6z6dP2skpbKjf19iMJAlaw7H1WtiR30Oi++YCRtEhwwAqrnGQ7UDYOGOLooA7t0bYO7dHVB0flI5aBTr5sFY+9fp9dpt3+n3bKGVni3t/jRoOHVYs2Yx1ZRYNQ1SStnwGPGlSbUqDVbcC0i9fmHfru8dPg0an4nVlJJrl0/L/zSlu80ed4vvmAkbRLcMAKq5xkO1A4BACFbPhMoufVRDxjLOrlYdQGY4juZmaVZ9pP/tF1rFhZUMp49olvxXvnWdseZUmFSS+Ki66pffdLz1Bivj6uVT82YOP7T/51ryGIEgkMsXjkuSAVUBAAAA1B6Y/A3+IRMyDKNo34sRnUrmTaE6rfWCECMo5Kw7mqUfSJdOqQaNZioxhyOVJO3aJbqdm+U7NxlrTvFBDXq+TqL4yjsOucLEI11POfvhf0af/P1XhiG15KuzHLmVelmSJQEVAQAAANSe/j/eIYR/yEJ/rkVxsGTmK5TK1p1gRpYZXmD9ghR9hija9XrQK4WUyvrDv+rWLZVSr5TFVKtOK2rQ89H1xPGzuKCwWpgGMzPSZr/170P7t7MsqT1f3WAgEdFxn351WFS7oBIAAAAABEKo7aGQGDPh0X3FM1+x9ip/FaGL9QsS2nTjG7XkouIZQTDGRTn1iv73/YbftkvXL1NZtvp6g5KBC41Sj/8PFx5TC4+8TqtZumjqis/mqMSqpUFJIhHRdTt07a/X625ev5ibc5fnFanXL2RnpttLIAyPjPn0m9/VCIQAAACAQAjwZ0LYt630w7eoXlcN6xOWBVHJQGSJyPdNZMKwhOMIx5f9emvvACFccIQ4+i0+tn4tHBuklO76ec1rwwe4e1Ttg5JEfP0Dv1h/xsX1nz+p1ZZeTznL8UJhfk7ajUt6nZZhyKXzx0tLCmVZSku9nJebyTCsLEty+Vt8lFJJMhhPCYPBUP6wsFS+8oEV74HodOTnQ7nOLu646gEAAACBEOC+tSh2bNIsnycXFTj87F5sSKT44kS+XqPaOav13dupQ/vGlxQXV+mBXFkmSqXy/U+2NUhua2a56XSajDs3GYYtKS5IT70sSZJWW3ot5Ywsy3fTr2dn3i4tLSouKsjPzdTrtRb/+gV5ZNfJnAdlWgAAAADHg0ll4KE3DCrmmOn4BJEkzdcfy/k5Dpx+uYhY8fkJtXNOUaN57w4vyC9WKKpUboTjmP8b/nZCgxZm3i+glCoUquDQe0/qxsQ1/PvPZNxJvZ5y7syJ/edOHzz5+x6DXm/JA4WZzAEAAACBEOCfM2GXpwgvaJbPlQvzHS8sUUniY+qJL03iYurV2jR44siuw/u3ClWcZNNgII2aturYYyDHC2YW3cM/a9y4r3+or39o01bdsjLTd/70zaolMwvy8ywywRClRKFAJAQAAIDaBesQQmUzISFE0aGXOGIKoxId7EljatDzsfXFMe/U5jRICPnys3fK5xKqWohSqxVtOz3t6x9i7ceJ7984pdTbJ7Dfc+NfHPNfWSYWOR9liQSHBrIPmOQWAAAAAIEQkAkJ36Kj+vXZDMs5TCYsT4MJ4riZXEhUbU6DN66eT7l0qsqlJ5PAkJiGTTpUTMlTzSdk6w5PxddPNlhiMXlKiEp0JgzGCAEAAACBEOABXXCGEL5hc/WU+YTKDpAJqcHAhceKY2ZwgaEOP1/Ow50+/qtOp6lqAciUBASFR8bUr/7SM/46lehUL6mlRQKhLBNv3yCWQa0IAAAACIQAD+6CMwzDN2qpfuMDpvydMTuNhcY958Ki1a+8w4VEYrrdlIunDOUri1SlDAnHETcPn2oeHrwfx/Fe3gFUtkwgDAyOxCOjAAAAgEAI8IgcwBCiaNFRfHkq6+RSg2HAzHDLhUaLL0/louNr85OiFS6eP2rQS1X9FC8IXt4BNTi4qtdpUi6esEiIM+hJYvJjPC/gEgeocbIsFxUVFZYrKirS6XQoEwAAK8Eso2BKlro372j7XsRg0Hy1SM7Psa9M9ecKE3WTkAb/KJQqL7rAMERbqr984VgNHsfiooLzZw5zvPmbIkoVCYusy7IYIQSoPkVFRXfv3tVoNHfu3KGUFhYWajQahmF0Ot21a9cM5Y+DMwzj4+Pj6+sry/ceBvDw8BDKubm5iaLo7Ozs5eWlVCpRngAACIRQbZHwj0zY+UnCcZovF9DCPLsJPrLER9cTX5rIxSQgDRrlZt/VaIpN+CDLkru3U69cPBFdJ6lG9vzg3h+vXbmuEs3djsFA6jdsahztBACrKi0tPXXqVEpKyq1bt27cuHH9+vXi4uJr167JspydnV1SUmL8Me6+oX9Z/p+31v38/FQqlUKh8PHxcXFx8fT0DAwM9PT0DA4ODgoKCg8PDw0NFQSM9gMAIBBC9WTCDo8TlVj60XRaWmz74YoaDHxcojjqLS40CmmwgiRLpj33y7DkxtXzu35eHRGdwHHVXZ/cunnl84WTFUoLzAyq15NmrXsY34cEAGsoKSk5duzY1q1bz5w5c+vWrYyMjNzcXK1Wy3EcwzBs+XKiHMe5uro+clPFxcVFRUWEkLS0NOML4bIsC4Lg4eHh7u7u5eUVHByckJDQqlWrNm3aoJ4HAEAgBOtnwpadGJW65L1xVDLYctNLDXq+TqI4biYXEIo0aKFzgMgy+fbrBQHBUd2e+L/qfAHv2pUzb732dG5ODm92NSbLxNvHJb5+c0FQ4JgCWFxeXt66detWr1597dq1/Px840OhRqJoyvi+MT3+ZRSRUlpQUJCfn3/9+vVjx45t3779888/DwwM7Nmz57/+9a+oqCgciH9UVFS0c+fOtLS0ilJ9JEmSoqOju3btatk9OXr06LFjxyoeDK4MQRC6d+8eGBjo2McoLS1t69atklSF9/w5jmvSpElSUhLOcKhUdw6TK4K5Kas8WVFKDScPlbz9Mi1v420zDXKRcerX/8sFheOo/d3o/2t1+vhvLGvCCXCvfzZi/Jyn+o/ieL4aTrmNaxct+XByaUlhVVfS/0d6PWneutOEd5b5+AXjTgGABUmStGjRorlz5+bl5VXMSl0Nl1hF38Y49uji4jJ06NDRo0d7e3vjoNxPp9N9+OGHM2bMYFm2SsdFr9cvW7bs6aeftuBdg06dOqWkpFT19GjWrNnq1avd3Nwc9Rjl5ub26dPn5MmTVb0EIiIiVqxYkZCQgPMcHn0H4e2330YpgFk3Ff6ou1n/YC4yznBgBy2/vWc7veqyngGlXFiMesx0LiwaPf5/9PPmL++mp5pQMAxjjGR0786fD+7d4OzqERwaI0lS+Z0B1oLdSsmgLy4qOPDr5ukT+m/ZsEKSdH/8ajNPDyIouL7Pjk1u3gnnBoClal1JkjZv3tytW7fvv/++Yo5QprruGFaMQBp3RqPR7NixIyUl5bHHHnN2djbh68iyrNPpSktLJUnatWuXUqlkGMY4501Vo5RNuXjx4rhx4woLC403diuPYZhNmzZNmjTJUnsycuTI3bt3VywKVUmyLF+9erWgoKB79+6OejXNmzdv48aNer2eVtHt27f1en2vXr1QI8Ej4ZFRsGQsFJq1E0e/U7r4P7SkyEb61sbdYMOixeGTucg49PgfJLFhm/OnDhoMepO3oFKRKxfOTB3zrH+gd6v2vZu26hERnSAISoVCqVSJLMvxvCAolJU5ZFptqVwWAHVancag12pKi69cPHn88I59uzbevpWrdiIcTyxyGMvvFZCkxu079RhoU3cxAOyXXq+/fPnyxIkTt27dqlKpbGHyT4ZhVCrVyZMn79y54+fnV6XPGgyG1NTUgwcPbty48aeffiooKKh4XSIpKempp57q27dvWFiYWq22xwqEYRje1Mc6LDttj06nM6GBNh4LvV7vyD11njft1DLn4AICIYBZ0UvxWHdi0GtWLrSRtSjK0mB4rPjC63xcA6TBh4itm8wLCnMCISFlOU3FkZzsrO++Wbp6+VIXVxIeFe/rFxIcXkft5OLm7u3jFyzLkvF0cfcs65YxZd1HXXFxAf1jdXkq07TUS5rS4uzM27fTrmZn3b50/irDEF4ggkBcXC38xT28fHr/a4SLqwdODwDzFRYWfvvtt++9915qaqooirZzTUmSVKdOHS8vryp9Kjc3d8uWLbNnzz558qSiXMWcN5TSCxcuTJs2bfHixc8///ygQYMiIyNRh5jTWNfIZwEAgRAsXJvfy4QdnyAMo1nxIS3IreGMKst8TLzqhYl8LFaYeITkFl2cXdxLS4rNLCSGIRxX9kelIrJMUi6eu3z+nCT/TCiRKfkj9JX9p+BQT+PSh1pNSU5OKb1vHgGWLdsOy5b/C0ucXYiVDh3HcT2eHNamYx90KQDMrW8pzczMfP/995cvX15cXGxrqwJKkhQbG+vp6Vn5j6Smpn7wwQefffbZP859yjCMcS3EnJyc6dOnHzp06N13323YsCHOBABAIARkwj/WolCqSj+eSUuKaqqfXb7CRANx5Jt4b7AyPTm12vmxTv9a/9V8C27WmOgeJC8n54/zhqjVpPqPjyyTpq26PPfCmxXj2zgTAEyWl5f36quvfvfddyzLKhQKW6vilEpl3bp11Wp1JT+i0WimTJmyfv164+uCD+tI8byzs/Mvv/ySk5PzxRdfxMfH42QAAPvCogjAGpmQEKJo1Vn96nuMoKiRmWypQc/Hla8wgTRYuaNGCHnuhalqtXO1HS6W++MPWxNpUCIBQWGT312pEtU4QwDMpNFounXrtnnzZp7n718KwkbIshwYGGhceaKSTdLcuXO3bNkiCEIlKwdRFE+fPv3KK6/gZAAABEKAPzMh36ilesoCptINsCXTYHS8OHYmFxCCvn7lubp79Rkw2qB3/G8qScTHL2Dukl2ubl44QwDMj1t9+vQ5d+6czV5NlFI/Pz/janWV2cPjx49v2LBBq9VW6bdwHHfy5MmFCxfilAAABEKAP1tcPrGJevJ8hmErVqCydqtPZYkLjxVfmc4FYvX5KpfesNHvRcbWkSTiqAuUUkpkmfj6BcxZvCMgKAJnCID59Ubfvn337dtns6svGBcnCAkJCQ+v7CK0W7duPXPmTFW/EcMwGo1m5cqVVU2SAAAIhODIsZBhGKFJG/HVdxnRiVh5qNDYuS9Lg6OmceEx6OubcLwopQu+2Ovp5W1cj8Hx0iDHcU1adp73+Z7QiLqYSAbAfLNmzfr1119tfCcFQYiOjlapVJVpg27evPnbb7+Z1oIwDJOTk7Nnzx6cGACAQAjwZ0gjhChadxGff51187RqJry3wsRLk/jY+kiDJpehu4fPuws2B4dFO14mdHXzeOJfw9/8z+rgsBhS7U8yAzierVu3Ll26VKvV2nh96+XlZZz/szL7mZ6efu7cOZMXcMvJyTl06BDODQCwI5hlFKweMP6cd5QQzcqFND/HKslTlvmYeqoXJiANmi8+sfnkmSuWfjTl1PG9Br3BAcqSUpLcrGPHHgO79x5aMZiMkwTAHNevX58/f356erqtzSn6t8ufuru716tXr5I/X1hYePfuXZOnxtFoNOnp6ZX/+Zs3bx45ckSn01WpRqKUBgYGtm7dmmVxZx8AEAjBvjKhQqX57D25qMCyfXEqla8w8fJULgxPilqg88QwTHxii4kzV65fNfenjcsKa3o9SXNIEgkIDOk7aGzrdk8GBEdihQkAiygtLV21atW+ffsEQbD9vXVzc4uNja18oispKfn7woOVb+8kSarkz+t0uq+//nrBggUmVEqBgYFz585t06YNzkYAQCAEu8qErTszorrk/depzmKPGFGDnq+bhDlFLXuwCCE+vkH/N2J66/ZPrV3xwa87NtreTPKPIEvE09unZ58XO3TrHxYZz7Ic0iCApZw7d+6jjz6yi5F2nucbNGhgm5e/TqdLTU3NyMgQRbGqn9VoNNevX0cgBAAEQrC/TMgnt1JPWVDy9giLtM1laTAmQT3uXdY/GH19Cx4sY+dJFJ0SklrF1k1OuXRyyYI3jh78VVDYwf5TSlxcPfoPea1zr+c8vfx5XsBjogAWpNFoli1blp2dbUKMqX5KpbJFixaVn0TKzc3N19e3pKTEhKcxKaUcx1W+WBiGYf9Q1d9l2qcAABAIoeZjBqGUr99YPfXDkhmjjSNRpvXRafkCAlxEHXHMdKRB6x0vhmEUSlV8YvO5n+8+e3L/6uWzjx3aodWVUlmmlNhIkRv3hGVZSkhMXKM+A0Z37vlcRaz9n9MPAMyWnp6+dOlSURQteFkZ63DjSg8KhSI+Pj4gIKBBgwYMwzg7Ozdt2lSv17MsW1RUdOLECVmWGYbJzs4+c+ZMXl7e5cuXdTqdcXEjuaxq+p/mQKlUNm/evPJ74uzs7OPjc+3aNdPilpOTU3R0NE4SAEAgBHhEzBAatRRff7904dtUU2JClrvXdYiIVY+axoVGIQ1a+5AZSzghqfXM+a01mpIdW77a+dPqtNRLWk2pVluq12kkSa6RIyAolCqVWhCUIeF12nTo075rfw8vv/tPEpwYAJZFKZ01a5Yxkllqg0ql0s3NLTQ09Mknn2zXrl1iYuJDfr5Dhw5//8u7d++eOHHi2LFje/bsuXbtmkajKSoqMhgMlFIXF5fw8PDKNxNhYWGNGze+cuUKx3EmfEdvb288xgkACIQAlYpzipYdiU6jWT5fzs+paqIzrjeoevENLroe0mC1xXjjsVOp1D37vNCzzwsaTcmZE/svnjmccvlUxp2bJUUFGk1xUWG+VlNcPmOexU8bwjBEqRKdXTxE0Unt7Orm7hMRnZCQ1CohqbW7h/eD9hkALOjq1asrV65UKpUWaQtUKlVYWFiHDh2ee+65hISEvzQTld+On59f13KTJk0qLCzcvXv3zz//fOHChby8vAEDBlSpQvD09Gzfvv2WLVs0Go0JVWWdOnWSkpJwngAAAiHAI5rMe5mwXU9CqWblQpqbVaU+BB8djxUmbCEZNm7euXHzzoQQTWlx+s2UnOw7t29dy8vJyM25W5Cfrdfr8nMzDQaDXqfJzc4wjteVlBQWFeaXH7gH/hZnVw9RdKZUVipFVzdPhmF9A0JZjvf1C3Zx9QwKifbyCfALCPP2Dfr7jQYcIwCr+vjjj80fezc+yx0QENC3b9/BgwfHxcX95RKu6i3C+ysBFxeXx8vl5eVdvXq1UaNGla8cjD/ZvXv39evX79q1y/gIa+W/lKen54QJE1AdAQACIUBVMmH7XkRQaBb/Vy7Mq0zzSSWJj0sUR0zhwmPR4tpIMmQYRiU6RcYmRpI/H/QqKSk06HX5edmSwaDXa/JyMv8IhEUlRWWBkDzw0DHOLu6i6CTLslIlurh6MAzj4xfCcrwoOj0kAeJkALC2goKCtWvXmrnUBKWUZdnk5ORx48Z17drVuDWL1Of3b8G4/GCjRo1M2IKvr+/IkSPPnTuXmZlZpe/18ssvN2/eHG0TACAQAlQxE7buwqjE0kUz5LwshnnYS/xUrxMatVINn4wVJmwwGf4lp6nVLoQQVzcvC/4uJECAmvXtt98WFJi7kCzDMMnJyV988UVYWJj1Xvc1ua4w7k+3bt3eeuut1157TavVVuZTWq120qRJY8aMwUkCAHYHExZDzWdCQgif3Npp1heKzk8Rhq2YFvJ/WmhZYtw9xWGvi+NnIQ3aXUS0/S0DQCUDoZlbkGU5Pj5+/fr196dB22yYBg8evGTJErVa/Y+t0v0BkhAyderUN954Q6lUonkCAARCABO7+Jx/sPrlN50Xrlf26Mf6BhKOIwxT9orXSZ4AAB06SURBVIfnubpJ4nOvOM9bo3zyOdbVHc0tAED1y8rKunjx4sPT0SPToFKpXLp0qYeHhznLDlVPw0Qp7d2797lz57p3767X6++PfxWFIElSdHT0xo0bJ0+erFKpcN8KAOwRHhkFW2l9jTGPCwwVX3iDvPDPP4aFBAAAasq2bduKi4tN/jil1GAwfP311/Hx8XZxX8/YMHl4eKxZs+bs2bOLFy8+ePBgbm6uJEkMw4ii2Lhx4/79+3fr1u3+FgrnCQAgEAKY3vRa5GcAAMAaDh48WFpaavLHNRrNgAEDunXrZkfBqeJmZb169RYsWGD8yxs3bjg5OXl7e9+fdXGzEgAQCAEAAMBh6XS6U6dO6fV6juNM+LgkSZ6enmPGjDFzhtIayYR/CX5/f/sRURAAEAgBAADAkZ0/fz4/P9/k5KPVal944YU6derYdSFglmNwMLm5uZmZmTdv3tTpdH85pUNCQtzc3Pz9/XkeYQGBEAAAAGq906dPZ2ZmmpaCJEkKCwt74oknnJycUJIANSs7O3v37t1nz549duxYfn5+aWlpYWGhJEl/+TEXFxeFQuHl5VWvXr3GjRt36NDBw8MDpYdACAAAALXU1atX8/LyWJY1LRDWr1+/bt26djTzyokTJ5YsWVKlQVFK6cCBA7t37149e2gwGBYvXrx9+/a/d+Xvp9Vqv/jiC2dn59p53n788ccHDhyo6qdmzpxpfDC4qm7fvv3mm29Wcu3KitMmJCTkrbfeMs5Saz1FRUWbN2/etGnTb7/9ZjAYdDqdRqOpzAf379+/YsUKhULRo0ePESNGJCQkoD5EIAQAAIDaRZbl9PR0g8GgUCiq+lljAkxOTvb397eXJy1TUlLGjBlz9OjRqj4st3PnztWrV7dt27aSJXOrnGkxW5blE+UemRsnTZq0cOHCWnjeLlq06J133tFoNFU9606dOrV9+3ZfX98qfSo3N/eZZ5555BH5+2ng7u6emJg4YMAAK5VDYWHh+++/v2LFitzc3IplNo0X4yNLhlKqL0cIWbVq1Zo1a/r16zd58uTg4GBUjI4E6xACAADAw+Tl5eXk5Jg2kSalNDg4uEmTJnb0fdeuXfvrr7+a8OqURqP57rvv/rEQDAZDSUlJfn5+amrq119//fzzz0dHR9epU+fnn39WKpXW+y48zy9fvvz06dO17aQtKCg4cuSICS++Ukrv3r27c+fOqv7GAwcOpKamVnWhToZhsrKy5s2bd+bMGcuWAMMwBQUFn3/+eXR09OzZs41psCIHVvJy/ssP63S6pUuXdujQYcOGDRqNxpxVScGmYIQQAAAAHiYtLS01NdW0gSxKaVBQUOPGje3o+wqCYNpkqsYA9pe/kWX57NmzFy5c2Ldv3/79+48fP04pFcq5urpWR1eP5007dnaNYRiTD6Jpn2VZ1rQBcJZljQNxli0BhUKxdu3ar776Sq1WW+qmA8MwKpUqLS1tyJAh48aNe+WVVzw9PTHBEgIhAAAAOLiioqLCwkLThgdZlg0NDfXy8qq1pXfo0KF+/fqlpaXxPC8IgpOTEzrQUD2U5Sy+WUEQZFmePn16UVHRpEmT7l+TExAIAQAAwAFlZmZmZGSYFmNUKlViYqIdTSdjcXPmzLlz5071DAZWJ0mSpk2bVqUJVB6SW06fPl0LhzHtF8uyLi4uH374YWFh4axZs2rzHR8EQgAAAHB8BQUFeXl5oiia8FmFQhEeHl6bF+7LzMw0YTIeuwiE//nPfyxyWCmlCoXC5Cc8oUYwDCOKovGR1Pnz56NAEAgBAADAYRmXKTOt6y+KYoMGDWpz6RnfEHPUPICro5ZnQo7j1q5d26xZM+vNkgrVUU2hCAAAAOBBSktLU1NTzZlkxdPTE8UI4KiZsKioaM6cObdv30Zp2C+MEAIAAMADUUplWTb540ql0tPTs6ovEBYWFn700UcFBQUW/zqyLIeEhIwYMQIPKAJYyvXr17/88suJEyeiKBAIAQAAwNHodLqKFcyqimEYJyenqr5AWFpa+tJLL3333XfmBNGHMBgMWq12/PjxOLgA5mMYpqSkZOvWrf3794+IiECBIBACAACAQykpKbl9+7ZpM0AyDJOUlFTVTx0+fPjYsWM8z1tvEG/WrFkIhAAWixM8f/LkyS1btowcORKlYY/wDiEAAAA8tK9gxnoABoPBhM6lIAhWnZVUrVbjsAJYCsMwpaWl27ZtS09PR2kgEAIAAAD8CYtWA9QGCoVi7969KSkpKAoEQgAAAIB7GIYxLkIIAA5/sefn5+/du1er1aI07A7eIQQAAIAHkiSppKTE5ElleB49DYAaRil1cXHp0KFDu3bt6tevHxkZ6eLiwjBMWlra77///tNPP3333XcmrzV6/8V+6NChoqIipVKJMkcgBAAAAAdRWFh448YNc14jrOWGDh165MgRlmX/sbctlzM5bz/yuMiy3Lx58/j4eByI2pYAjacHwzCdOnUaOHBg7969//IDhJDIcv/6178mT5782muv/fLLL8ZT0bQTUhCEo0ePFhUVeXl54RAgEAIAAICDYMqhHEzulw8ePFitVu/YsUOhUPzlv+r1+sOHD58/f96EcVSWZVu0aBEXFydJ0kN+u1KpnD17dkVCwBGpPURRfPLJJydMmBAZGfmP1/X90TEqKmrdunWvvfbaihUrTJgIyojjuPT09LS0tNDQUJxsCIQAAAAAcK/b/XS5f/yBV1999eTJkyYEQp7nhw0b1rdv30rmUnTQa9udiMTExE8//fSRJ4Dx7ymlPM9PnTr1ypUr+/btM44fmoBl2cOHDzdv3tx6a8aANeAJEAAAAHhY8FCr1aZ1ECmlmGHiIYqLi/V6vclRTaPRVCmXQm3LhBX/fOQJwDAMpdTb23vq1Kkqlcqc6uL333+XZRnlj0AIAAAADkIURX9/f9N6eJTSK1euoAwBakrl7wUYf7J58+bt27c3OdGxLJuammryACMgEAIAAIDN4Tju7y+/VV5BQQHKEMAuGIPcoEGDTE50PM+fPXsWI4QIhAAAAOBofUST4WFFAHthvFp79uzp7Oxs2oXPMExOTg5GCO0OJpUBAAAAa4XJ1NRUlIODkSQpODh4+PDhlhoIUqlUK1euPH36NGYisRHt2rXbtGmTIAimRcobN27ExcWhGBEIAQAAwBGwLGtCv7AiEN66dQtl6GBkWQ4ICBg7dqwFt3nkyJGTJ08iENqIxo0bb9iwwbQL3/gaIQKhndXzKAIAAAB4EGdn57CwsIcsdvdwkiTpdLoqfUQURROWYYDqZPFnAk0+wcAa6tWrZ84RYVnkCwRCAAAAcBRmTiqj1WovXbpUpY/Exsb27t3b5LUuAMBMoaGhJj8PzDBMRkYGytC+4A4cAAAAPJAoigEBASYPF+j1+lu3biUkJFTy5ymlzs7O48ePT05Ofsg6eyzLXrlyZeHChfn5+RiOALCsyMhIk2/HcByHxWYQCAEAAMBBUEoZhnFzczO5d1haWnrq1KmuXbtW8ueNC2S7uLg8/vjjD//JEydOLF68GKOIABa/6s18ZhsPANsd3FQDAACAB8YzQoinp6e3t7dpj5BpNJqzZ8+a8EsfyWAw4AABWOmqBwRCAAAAgHtEUVSr1ab1LGVZTktLKywsRDECACAQAgAAgP0JDQ0NDw837TEwhmHu3r175swZFCMAAAIhAAAA2B83Nzd3d3fT3tYzBsKTJ0+iGAFqCSwbg0AIAAAADsXX19ff39/kQJiXl3fgwIGSkhKUJIDDk2U5IiIC5YBACAAAAA6CUsqybFxcnMkLAyoUiiNHjmCQEKCWBMLAwECUAwIhAAAAOAjjlIMxMTEeHh6mBUKWZVNSUnbv3q3T6VCeALUhE6IQEAgBAADAocTFxXl5eZkcKTmO++abb1JTU1GSALYvLS0Ni08gEAIAAAD8KTo62tvbm5Yz4eOCIJw+fXr79u1YPBDA9l2/fp1lTcwIsiyHhoaiDBEIAQAAwHEYQ2CjRo2USqXJG3Fycpo+fXp6ejrKE8DG6fV6cz4eFhZm2p0jQCAEAAAAW2R8eOzpp592dXU1eSMcx2VnZ48dO7agoABFCmDLjh49ynGcCR+klKpUKkopnjhFIAQAAABHk5SUFBgYaE4/TxTFDRs2/Pe//y0uLkZ5AtisCxcumPbIqCRJderUQRpEIAQAAABHY3wArHfv3mZ29VxdXRcsWDB9+nRkQrDls12r1dbmEti7d69pi8tLkhQWFoZAiEAIAAAAjsbYwxs2bJjJU0382fNg2SVLlrz66qvXrl1DwYINMhgMV69erbVfPyUl5c6dO6Zd6bIsBwcHIxAiEAIAAIBj8vLyeuqpp8yfKdRgMKxZs2bAgAE//PAD5h01jSzLV65cQTlYg06nO3PmTK39+itWrDBteNB4aTdu3Ni09w8BgRAAAABsmvGp0WHDhpkZ4YyjB7Isnzt3btCgQS+//PL58+cxJ2FV6fX63377DeVgpVP91q1btXb2o/Xr15s8xEcpjYiIwAghAiEAAAA4IIZhKKUtW7bs1KmTTqczc1NGsiyvWrUqPj6+R48eS5YsuXDhQm5ubn5+flFRUfHfFBYW5pXLyMg4c+bMt99+m5+fX5u7npcuXdqyZQvOTIuf5wzDpKSkrFixopIRSJKkjIyMX375pbCw0Ha+iPHGjSzLVfrU+++/f+fOHdMuK1mW1Wp1eHg4AqHd4VEEAAAAUMm+MiHkrbfe2rNnj0VmlmcYRii3e/fubdu2ybLs6+tbp06d0NDQv6x5yDBMXl7e9evXZVk+fvy4cbF7lUpl/juN9iszM3P27NkBAQEJCQmCIOD8vJ8gCCYvm8kwTEFBwdKlS+Pi4tq1a/eQ5yezs7OzsrIOHjy4YMGCM2fOqFQqG8lCDMOcOnWqf//+L774YlxcnI+PjyAID983vV7/3XffLViwQKfTmXZZGQyGBg0aqFQqnH4IhAAAAOCwKKWNGjUaNGjQF198IYqipTarKEcpLS4uPnLkyMGDB/+xj2t8N8mc5RBtilKpdHV1Ne1xWYZhWJY9ePDgkCFDhg4d2rRp0+DgYJVK5eXlxfO8RqMpKCiglGZnZ8fHx9fCs1SlUgUHB1d1fOz+PHn27NlRo0YNHz68YcOGQUFBLi4uxpsgkiTl5+dnZWXdvn179+7de/fuPXPmjCiKtpMGjaeHMeD98MMPHTp06NixY1xcXFBQUGBgoLu7+/3v+FFKMzMzb9y4sWPHjkWLFuXl5Zn8AqFer2/durWLiwvqSQRCAAAAcFgMw/A8/+qrr+7fv//q1asm9x0ftHGuXC0JLTzPh4SEGJ/FNSFLMAyjUCiuXLny+uuvx8XFxcTEODk5+fn5KZXKoqKinJwcQsitW7dGjx7dp0+f2naWEkI8PDycnZ0lSTItp4miePPmzddffz0yMjI6Otrd3d3495IkGdPg1atXDQaDQqGwzTsUDMOo1WpK6fbt23/44YeQkJCIiIjIyEhvb2+WZb28vBiGycnJkWU5PT397Nmz586d4zjO5CvaeF+jZcuWTk5OqCcRCAEAAMDBRUVFDR8+fNKkSRZ5cLTWRmtCiKenp4eHR0lJicnFKAgCz/PXr19PSUmhfzC+CGf8LWlpaU2aNAkJCaltJRwSEuLp6ZmRkWFy2fI8z3HcrVu3bt68WTHYaCxblmUFQVAoFLZ/minL5ebmZmVlHTp0yHiGqNVqhmFKSkoqbsQoFApzrmVJkqKjoyMjI43hENUCAiEAAAA4Mo7jBg4cePDgwXXr1pn8phYQQiIjI4OCgi5dumRmp/8hI6uZmZm1c8LMoKAgd3f3u3fvWq9s7QhbruJ/GvOtUqm0VHIzLjgRHBxccbMD7On0QBEAAABA5RmfDXN3dx83blx8fLwkSSgTkwUGBvr6+pr8qlslI03tLNuYmBg/Pz+saPKgs6JiGNkidQLLsi1atPD29kbZIhACAACA43clK2aXmTBhgpeXF/rcJnejAwMDY2NjK2I2WLBsnZ2dExISjJMVoUCsSpKkpKSkxx57DEWBQAgAAAC1KxY+88wzQ4YMcXZ2Rp/b5DLs0aNHYGAgSsMaZdutWzcPDw+UhrWzN8uyjRo1SkhIQGkgEAIAAEDt6ggSQqZPnz5q1ChnZ2erPvfowDp06BAWFoZysFLZxsfH45U2awsPDx8yZAgGuhEIAQAAoHYxrpdACJk8efKUKVN8fHzwPqEJoVqhUDzzzDNYztsaZUsIGT9+vO3PBWrXBEHo3bt306ZNMZ0MAiEAAADU3kw4cuTIDz/8MDo62mAwoFiqVICEkOeffz45ORmjK9Yo2/bt2z/++OO4VWG91F23bt033ngDw4MIhAAAAFDbM2GvXr2WL1/euXNn40JnNrvDsizb1OwXxkXb5s+f7+TkhC61xcuWEPLuu+9GRkYiE1qjeNVq9Weffebi4oK1BxEIAQAAAJmQJCUlffXVV2PGjFGpVLaZbXQ63b/+9a9FixbZVOkRQurUqbNy5crS0lKcThYv24CAgE8++YRlWcd+zVWWZR8fn5CQkGpLgyzLbty4sV69enhYFIEQAAAA0PO+txaFk5PTjBkzNm7cmJSUJAiCLTxIZtwBlmXr16+/adOmL774wtXV1dbyKqW0U6dOH330kV6vt/EhVrtDKW3VqtWGDRsEQbB22RoHylxdXSdMmLB48WIPD49qS6E6na5JkyYHDx7s168fz/PWu/QopbIsC4Lwww8/NGvWDOcqAiEAAADAX2NhixYtfv3119mzZ8fHx3t4eFQMIVZ/EuA4ztvbu1mzZosXL963b1/nzp3v31VbK7qXXnppyZIlPj4+LMuin23Zsu3YseO6devq1avH87w1ypZSKgiCv79/ly5dNm/ePGXKlODg4OpckcVgMMTFxQmCsGTJknXr1jVs2NDJycnisZBSyvN8YGDg6tWrW7dujbFBx8CjCAAAAMCy/W/jOMnQoUMHDx68fv36TZs2Xbp06dq1azqdrnq6j7Is+/r6hoSExMfH9+7du2vXrhXd2UfugLu7u/F1vqruKsMw5kwWavyNAwcODAkJ+fDDDw8cOFBUVGT+q1kMwxiHav9OpVJ5e3unpaVVtWwt/lyir6+vQqGQZblKX9a4+nxkZGQly7Zjx45RUVEffPDBjh07bt++bZGkZNyym5tbWFhYcnJy//79W7RoYfxPAQEBvr6+165de/jHWZYNCAh40HqJxpLRarWVOS4xMf/P3r28RNU3AByfS1hKg6IwQc7kRHkJRs2y7LIJNxH1n7RsEbRoFa2jgrb9AbUMIrJFRC0sQvJ+Qe0ehI7TKM04Z3zBwyuRPT2WPrzPG5/P0jxnzvmdn/H7ztEzzWHu9vb2njp16ubNmw8fPhwaGvr8+fPmJ1K4h4aGht7e3osXL7a0tGzwB4r/g/+0vf8EAPyjgiB4+fLl48ePR0ZGhoeHp6env3z5Eott8a8phWvTZDLZ1tbW2tra09Nz8ODB5ubmjadgaGZm5vr160+fPl1cXPylV29tbb1w4cKJEyc2eQqRSCSXy929e7evr+/Jkye5XO6319yVSuXQoUP379+vrq5e/6+lUunOnTs3btzI5/MbvBzlcjmTyVy9erWrq2sLr934+Pjly5eHhoZ+aat4PH7mzJlLly4lEomNjG2Yx+Vy+dGjR/fu3evv7x8dHS2Xy789vNFoNJvNtre39/T0nDx5MpxsaxdxZWXl9u3bt27dWlpa+u4lgiBIp9NhvNXW1p4/fz6827be3NzclStX+vr6fvKrp+GptbW1Xbt2LZVKrZ1pJBLJ5/MPHjx4/vz5ixcvhoeHN36h10+kTCZz5MiRs2fPnjt3bvv27d++CoIQAODvIycSiSwsLMzOzr59+/bVq1djY2MjIyOTk5PFYnEzy8pKpVJfX9/e3r5///6Ojo7m5uZUKtXU1LS28P2lmxjhN8/Nzb1+/fpXH/Gye/fupqamrboVE4lEPn78ODg4ODAw8OzZs4GBgQ8fPsTj8Y1sHovFMplMZ2dnR0fH6dOns9ns+qMKv1IqlcbHx/P5/AaPOQiCVCqVyWS28NZQuKvZ2dlfvWsXj8dbWlrq6uo2fjBr37m0tDQxMTE1NbX2PkUul9tILIUj0Nrams1mjx8/vmfPnr17964V6bc1GMbn4ODg+okUPgAmvJo7duxobGz84UQNvzI/Pz82Nva3I7Nv375kMvnDn7sgCCYnJ6enpwdWDQ8Pv3nzZnl5+eeDFk6kpqamzs7OY8eOdXV1tbS0NDQ0uDEoCAEANpWFkUikWCwuLi4WCoVisTgxMTE/P9/f318qlSYmJpaXl4vF4vj4+PoFa6VS2bVrVzqdjsfj6VWNjY2HDx+ura1NJBI1NTWJRGKrYux/uIfvdlIqlXK5XKFQePfu3dTU1MjISLlc7u/v/65eVlZWuru7q6qqjh49mkqlksnkzp07E4lEVVXVXx3Sv2dZv5kj+Y1tv90kn88XCoWlpaVPnz69WfX+/ftYLLawsDAzM1Mul4Mg6O7ujkajNTU1nZ2du1dVV1cnEonwj/T+6jB+452IzZ/dzw+jWCzm8/nFxcV8Pj82NjY3Nzc6OhqLxQqFwtTU1NevX7PZbE1NTSQSqa+vP3DgQDqdTiaTiUSirq4uzFcpKAgBALZYpVJZWVkJgiB8euHaYwx/vHCJRsMQiq2KRqPhAxX/hZGz5aUUDkv4eXo//FS9cMm+bdu26Ko/ckD+uQoNhzecjd9NwnBgw7kXzro/YGwr//Xtya6dXTQajcfjJpIgBAAA4E/mYycAAAAEIQAAAIIQAAAAQQgAAIAgBAAAQBACAAAgCAEAABCEAAAACEIAAAAEIQAAAIIQAAAAQQgAAIAgBAAAQBACAAAgCAEAABCEAAAACEIAAAAEIQAAAIIQAAAAQQgAAIAgBAAAQBACAAAgCAEAABCEAAAAghAAAABBCAAAgCAEAABAEAIAACAIAQAAEIQAAAAIQgAAAAQhAAAAghAAAABBCAAAgCAEAABAEAIAACAIAQAAEIQAAAAIQgAAAAQhAAAAghAAAABBCAAAgCAEAABAEAIAACAIAQAAEIQAAAAIQgAAAEFoCAAAAAQhAAAAghAAAABBCAAAgCAEAABAEAIAACAIAQAAEIQAAAAIQgAAAAQhAAAAghAAAABBCAAAgCAEAABAEAIAACAIAQAAEIQAAAAIQgAAAAQhAAAAghAAAABBCAAAgCAEAABAEAIAACAIAQAAEIQAAACCEAAAAEEIAACAIAQAAEAQAgAAIAgBAAAQhAAAAAhCAAAABCEAAACCEAAAAEEIAACAIAQAAEAQAgAAIAgBAAAQhAAAAAhCAAAABCEAAACCEAAAAEEIAACAIAQAAEAQAgAAIAgBAAAQhAAAAAhCAAAAQQgAAIAgBAAAQBACAAAgCAEAABCEAAAACEIAAAAEIQAAAIIQAAAAQQgAAIAgBAAAQBACAAAgCAEAABCEAAAACEIAAAAEIQAAAIIQAAAAQQgAAIAgBAAAQBACAAAgCAEAABCEAAAACEIAAAAEIQAAAIIQAABAEAIAACAIAQAAEIQAAAAIQgAAAAQhAAAAghAAAABBCAAAgCAEAABAEAIAACAIAQAAEIQAAAAIQgAAAAQhAAAAghAAAABBCAAAgCAEAABAEAIAACAIAQAAEIQAAAAIQgAAAAQhAAAAghAAAABBCAAAIAgBAAAQhAAAAAhCAAAABCEAAACCEAAAAEEIAACAIAQAAEAQAgAAIAgBAAAQhAAAAAhCAAAABCEAAACCEAAAAEEIAACAIAQAAEAQAgAAIAgBAAAQhAAAAAhCAAAABCEAAACCEAAAAEEIAACAIAQAAEAQAgAACEIAAAAEIQAAAIIQAAAAQQgAAIAgBAAAQBACAAAgCAEAABCEAAAACEIAAAAEIQAAAIIQAAAAQQgAAIAgBAAAQBACAAAgCAEAABCEAAAACEIAAAAEIQAAAIIQAAAAQQgAAMBP/ScAAP//MKCG4p6TqeIAAAAASUVORK5CYII=;" vertex="1" parent="1">
          <mxGeometry x="590" y="76.7" width="449.89" height="252.69" as="geometry" />
        </mxCell>
        <mxCell id="wf13W3H9ViJ32tmybume-4" value="" style="shape=image;verticalLabelPosition=bottom;labelBackgroundColor=default;verticalAlign=top;aspect=fixed;imageAspect=0;image=data:image/png,iVBORw0KGgoAAAANSUhEUgAAAt4AAAE0CAYAAAAbozQmAAAACXBIWXMAAAsTAAALEwEAmpwYAAAAtGVYSWZJSSoACAAAAAYAEgEDAAEAAAABAAAAGgEFAAEAAABWAAAAGwEFAAEAAABeAAAAKAEDAAEAAAACAAAAEwIDAAEAAAABAAAAaYcEAAEAAABmAAAAAAAAAEgAAAABAAAASAAAAAEAAAAGAACQBwAEAAAAMDIxMAGRBwAEAAAAAQIDAACgBwAEAAAAMDEwMAGgAwABAAAA//8AAAKgBAABAAAA3gIAAAOgBAABAAAANAEAAAAAAAAGB7a4AAAgAElEQVR4nO3dDXRdZZ3v8SdvJ+/pS4BJSk2rpRFoXUMD2IKrrZUqLBi0+MaCjnfweu8FXy/LNeB4uTp3OTI64PIdhVmorOtlXMBoSxUuXqq1ZQlBsHWWFEpLtaktqaVp0yRtkpOc5K7fTg+maZLz7HP2fvbeJ9/PWl2jY5ucc/Zz9v49//3s/1NSf/+RUQMAAAAgVKXh/ngAAAAAQvAGAAAAHCB4AwAAAA4QvAEAAAAHCN4AAACAAwRvAAAAwAGCNwAAAOAAwRsAAABwgOANAAAAOEDwBgAAABwgeAMAAAAOELwBAAAABwjeAAAAgAMEbwAAAMABgjcAAADgAMEbAAAAcIDgDQAAADhA8AYAAAAcIHgDAAAADhC8AQAAAAcI3gAAAIADBG8AAADAAYI3AAAA4ADBGwAAAHCA4A0AAAA4QPAGAAAAHCB4AwAAAA4QvAEAAAAHCN4AAACAAwRvAAAAwAGCNwAAAOAAwRsAAABwgOANAAAAOEDwBgAAABwgeAMAAAAOELwBAAAABwjeAAAAgAMEbwAAAMABgjcAAADgAMEbAAAAcIDgDQAAADhA8AYAAAAcIHgDAAAADhC8AQAAAAcI3gAAAIADBG8AAADAAYI3AAAA4ADBGwAAAHCA4A0AAAA4QPAGAAAAHCB4AwAAAA4QvAEAAAAHCN4AAACAAwRvAAAAwAGCNwAAAOAAwRsAAABwgOANAAAAOEDwBgAAABwgeAMAAAAOELwBAAAABwjeAAAAgAMEbwAAAMABgjcAAADgAMEbAAAAcIDgDQAAADhA8AYAAAAcIHgDAAAADhC8AQAAAAcI3gAAAIADBG8AAADAAYI3AAAA4ADBGwAAAHCA4A0AAAA4QPAGAAAAHCB4AwAAAA4QvAEAAAAHCN4AAACAAwRvAAAAwAGCNwAAAOAAwRsAAABwgOANAAAAOEDwBgAAABwgeAMAAAAOELwBAAAABwjeAAAAgAMEbwAAAMABgjcAAADgAMEbAAAAcIDgDQAAADhA8AYAAAAcKHfxSxCOtroy01IfzNxpY+dQID8HAAAAkyN4J9gNrVXm5mVVgfyshu91BfJzAAAAMDmWmgAAAAAOELwBAAAABwjeAAAAgAMEbwAAAMABgjcAAADgAMEbAAAAcIDgDQAAADhA8AYAAAAcIHgDAAAADhC8AQAAAAcI3gAAAIADBG8AAADAAYI3AAAA4ADBGwAAAHCA4A0AAAA4UFJ//5FRF78IAAAAmMmoeAMAAAAOELwBAAAAB8pd/JIkubW1ysyrLSv457QfSpufdA69/t/vWlZrgvCjVwbMjt6M95/f21xhVjSlAvm5t+84EcjPAQAAwOQI3hO8Z3Glubip8I+lZIc5LXjf0lZlgqBAnw3elzWnzM3Lgvm5BG8AAIBwsdQEAAAAcIDgDQAAADhA8EZiLKsvfO09AABAVAjeSMxDr4+tm20+t7Q66pcCAACQF4I3ElHpvn15ralLGXPb8hqz5ZpZVL8BAEDiELwRe19dVeeF7ix1nVH1W1VwAACApCB4I9YUridr76gg/oWVtYH1RwcAAAgbwRuxtTBV6i0xmY76oz+4qt7ZawIAAMgXwRux9dm26tOWmEzl2sUpwjcAAIg9gjdiSQ9P3rDEfg034RsAAMQdwRuxdONi/w9OEr4BAECcEbwRS+t9VLsnhm96fQMAgDgieCN2Pryw0mpt91TU6/uKxoogXxIAAEDBCN6InbULCkjdp3x5FW0GAQBAvJzZIBmI2JqWwoP3m+eWmbvbas1t208E8ppmEt0tWNI4tjPozq6M+UXXUNQvCQG152xrLDMrmlKm/VDabO/KmH3pkahfFgDMKCX19x8ZjfpFAOND34Z1DYH8rL60MZc/dIxw4SOYfXNVnXn7gtOX6fyqY8h8alsfn2PCl2/dufL0HWBf7Rsx/2Nbn/lJJxMrhOv86lJTU1ZijqZHOY8Uoba6sUJNR/+I6coQKXOh4o1YecupSmsQFDI+vrSaqrelH7yzftJdQhXE9b+teex4JK8LhXlvc4X5xhV1Z/z/59WVmgeubjDHN/ZwVwOhuPqccnNZc8pUjlvUemRgxGzalza7+gngSdZYVmKubK4wF519+jVjb8+I+fd9gwTwabDGG7Fy7qmZc5DdUVTJRe6K6GShO0v/G91ikunba6e/g3RrG8cV4YTut597euiWs6pKzfpWzstJ9/6FlWeEblnUUGo+0loZyWtKisRWvG9trTLvWRzMwR1fybtvRa1pbSz8Y3l0z6D5+u6B1//7lmtmmSB8sf3k69WppH0GNi5pDnZIquq9bmHK9+uYaS6cm/tzn1/HhTKJG1Hl6hC0uoUOQAi+GqpK91QUxq96Q8rcu5fzclLPKwrYU9HkShOvxw8PO31dSVGe5MrodBW6fClwBvFzn+88fcAF9VpnpZL7GUTl0uYKYwjeBQtiMga33shkCRFoqSk9o9I90ZumCW5I/nnlvNnlxhC8J8XIR6yEMZEIoksKAMAOE77iNr8+2CWhMw3fDhQ93WpnQx0AABA17h1jRriyJeUt01nSWG7qK0pNfaUx509YOrGra9j0Do795xePDpue9Ait1gAAQGAI3pgRbmmrMreYKt/LXB4wxrx8NGOe7xwyT3akCeIAACBvLDUBLHbBVFtC9Tzedf0c86nW6QM8AADAZAjeiJXfHor3U9DadOSLK2u9AK7e1wAAALYI3oiVvnQydrtSANdugJvWNrARBAAAsEJiQKzs6sqYJNF26k9fP4euKQAAICeCN2Llmc60SaK9vcmaMAAAAPcI3oiVJHYNeXDngNmXHon6ZQAAgJgjeCN2fvpKcqrefWlj7nmhP+qXAQAAEoDgjdjZ3JGc4E21GwAA2CJ4I3Z+sG/QHOqLf5il2g0AAPwgeCOWvrMj/oH2jqf6qHYDAIDi3zL+YF8mlM1WdncNB/b6xgvqtR5PJ/cz8OPruwfMx5ZVm6a6eM4Nt+4f8irzAAAARR+8Fcz0J2g3t58wYVjz2HEz0z8DP97bXGGOp0dNk4nnEpNPbu2L+mUAwIx0fnWpGcgY7jgikRIbvFF8ltWXmb9ZkDLrl1R5O0PG1Sc290R2wtdntLK5wsyvLTOXzvvL17cuVXLarp/PvTpseodGzM860mZHgnqMa8K1oillzq0vNfPqSyd9f72Do95GSy8eHTa/6hxKzMVXmyxd3lxu6itKpzx2r/aOmIO9I+bAiYx5qnMoUcfOhnZ5/diSau/9Z9/3hj2D5pshFBCmG1/1lcac3/iXY9BcV2o6Tz1Xkh1fLo+BPpfPtFV7r0mfy+6ujPn+zgHzi64hXz/j3QtT3rnh/MYyU19ZcsZ7S9r35x2NFaapusScVTN2Lphfe+Z1YXDEmNf6x97Dgd6M6U4b80sfn1vQr3d2ypiGVKk53J8xz3ZlTFcm+t2Ys6+rqqzEdKdHYvO6st42u9z8VXWJ97k1VJaYqjJjzqo681j3Do2aw/2j5rWTGfPn/lGzqzde78MWwRuR0EWirbHMLGksN+fPLTcXN5fHOmxnff6pE857jSuwvX9xyqxZkLL+jC5uGvtq37a8xrzaN2J+2zlsfrxnIHZ90rNhYW1LytsF1Nb4v/vy0YzZtGcwlpOMmxZUmncuGDt2dancf//iCbd4dOy2dKTNkx3p2B27fELvP6+qO2MMa6wub6ow67f1Rjq+xr+u8X9Xx2DT7rT50SsDoYwvfb9/eHXDaePjzXPLzLWLU975Zrq7mpqI/7clVeaS5grv30xl4mc+8fvzw50DziY/NtXstsZyc0Fjuam0ON3p72QDefb/rplfYfZ2Z0z74SGz61QoD1NjWYlZv6jytInBhabMXNZszBMdafPr7uCXhNp+lhr/E0OsXtevDgz5mtiF8d28/Jxys2h2mamvGJsk5qK/pz+LGsbez1UjxjvOe45nIvuM81FSf/+RyKcLt7ZWmfcsroz6ZSBkqrwkIVxPJddFMIzQ9ndLq14P0UFQiNCDqxMvsne31Zqbl1VN+2/1PEFQS6aygeE9i6usAqmtn+5J+64UhuFTrVXeMwpBjnd9/t/aftJXAFfYfeDqhpx/r+F7XSbsaq7uZE3n7mdPmn8KqEtQtrL+t0uDHV/5HINcr/OJ62ZNOU60rO1Dj/ecMZ51XD/ZVhP4ueHjm/sC+e6M3VnIPZG+fcfJ06qeb2sun7TSWQhVSXd2DYc6cdX3fbJqfNb3dw04mQBMdPsFVdN+nvm+rlzvVw6cGJl0MveOxgpzyTlloRznX3cOR3a3I3EVb4XuIE8gQJB08dPyElcVR1XA/ueKYC+qWbrAf3FlrRcK/+XZk5E8IHrXslpzS9v0ISxfqhLqjwL4He0nnN9Gn6qqGwSNB4Xozx7NmC+1u7/zko8PL6w0d66sswq/CuZBBO/PLa02H11WE2jgnngMbuoYMv/47ImCK+Br5lVMO1b0Hq5akHo9DId9btiwrsHc9Li7c122Wvz+hZWvVzGDpgqpJgHnzS4zD+9NB35OUBEhVwh9+7yU2bXX7R0FTWRyhVuXr2uyuwJBH+erWiq8ydsjewcjmejYikX5UWvagLh2L7n8oWPOLkQKpbr4hT0R1UX2G1fUmU1rG7yqmwsKDbuunxNa6B5P4fvp6+d4wc8FfYYPrqr3QlnYd3W0pEC/R2MlrvR5aGxpjNkG4EI/N42v566b7S2vCiN0T1yq8di62d7d2kJcODf39/yS5nKn5wZNHF1RaP3YBVWhhe7xFEI/ckGVN06C9EaLcXt2tfuMozXTuTSE/D0ZPwm4dWl1aKF7YgBf3xr8cQ5SLMrM061NA6KgDXy+5LAirKDyg3fWO7/zowChW916mCtMCihfWOk2KCp8Kfi9dWe5+WiInXp0gv/yqlrn5zFNYPSQ4qe39cVqbbufKneQ4+v25bVOf6d+l8b0pU0Vod5d0RI9TShcjS9NgDSmXSzXuuE8t0tMtR78ypax6ve/7xt09mCe7Rpm14Je7uH6bkau4/yGulLzQEf82v7GouINxIXWcGotd+tDx5yFbl3kHrkm/ErWdBdaPw82+vXdFbXOQ/fEJQxbrpkVSmU/+2BcVMUDjRlVXlU5jJpeg98q93h7jo4UNKlzGbon3l3R9zesO0f6froeX7Mi+ixdURD8SCvPlYVNn7Hr0D3ehXPLvHXumgDECcEbM57Cth7sWv1wt/fwoMsHKKMObmHT8otcD9W5CqhBh6PJulFEQb//X9fWR/oatK5aE4BCJnB3tvvvjX9fxJO6LH1/wwzfrv1xXPvBYqVq743zi3yGESEtKwm7om5Dr0HLXOL03Yx8qcnsmM1EUDwPRL58dHjSXTl70mO7av6+KxN5O6U4BLewKBSpGhgXCkffXFVn3r25p2hC9/j3pgc7XT9wqSr3V1fVFXS3Rt/Vu571/7CoKt03xGBSNzF8X7qh2yS9EBGnpUthuujsctPRN5KoVnQzRTqjHu2jgSzT0dKTDy5KmbteikfLzMiDd0yXPiHhdCF3WbnOJ3TrIl1IcNOt+Z70iNcGTBuvjH8QK+ouQYWGovETp+c7x/6vNgXRg9jn1pWapjwfxFNFVhOCQnZnVdgsNHRnj112Ipg9dtpAYvHc/N6beuK7DN5BdA/Rw8vaBdbv+mitIy+00q2AOf67kz0GhYwvhW/vLk8IPcn9vjfJji89RNfamPvcoO/dF9v/0uIvDuFrb0/G7O8dMUdPjZHspEA9qqvLS0xNWYlZUFfqqx/0eOoac/DkSKw3Eip2vUOj5reHh0xn/6jpHx49oyOJrpdzKseO9cXnlOf1kGb2Dse/HTh1wp3JwRsImi4ecQ7dcueK/B7GU2DbuGcg52YxOlGtW5gyVyxImdUtbp/uVjU4n1Ck47Zlf9ps7kjnXF+v3/HBU5sK+Q1JmhC8dDST9xjRso58wqbC0KN7Bs3GfdO3NMseO79tVg84Wh4QVJX7jqf68nqOQr9fD2/m46evpM2Pd+feSEq/48bFVd4yKb/HWnd5Pne0OrCe5H4mMb/oSFuNL7UxXKuNnVr+srGT/v3Xt/dH3gM/2wN6Z447kuPD2a91k+HAWPeM1tll5oI5ZYmths4kf+gZMb/vGs55x0Hjed+pvKy/m918R12BUmXJu8MRefDWrQQgSA/ujPcJVNU6v0sw/HZZ0YlKwVJ/FCK+sKLWWQC/Z63/UPSjnQPmS9v7ratOuiB7F+X2E3lVXjUx2JrHduDaaMjvhMnvpivjj52fjVJUFUxCD/Z8q9yFTHzu2zFg7nnBfnxpXOzYfsL7Nx9fOrb5j5/fqZaGYW/aUsj40nkkih7+NhXupw+lzeOH8wtGClT6s6yrzLzvjZXWoUzVUFedXGC84/x/9uS/qZAXxA+kTWPnkPnAwkrzJh8PcOoOR9RbzUe+2ryHuzsIkCppuljGlWbqfqt1Cg2FdFlRiLj2yR5vYwx9PmFSMPXTj1kVfD3UqqUf+QYxVRbVa13VTD/+vq3G19/XBCbX7p7j6bNWhxw9sJtvANO/07/XGMg1cQkzNGR7ZBcSujV51BjUWMz3WGuS5Wfio/F13cYec9v2/MaX/o3+bT7jSxOmMAUxvuLkyMCIuX/XQN6he+I572s7+72Kqq3LTy3TQ/jH+Ws7+wPZ4Ebh+d69A6b90JCvOxzayCdKkQdvIEg/3TMQ67V6n22rtq6cZS+suvAHQRfnazZ25922Lehgqsrn+x47HsiDXDrm67f25gyo4117XsqrKNvS8gpb2a2+g1rypDGg0DrZsVMg1N2CsGQ3bimk844mBu/aUFhA1KRVdzb8jq8gJiTZ8eUnfOsuRVgbOAU9vuKwxvd7uwcDPXcrlD2yb9ALeja0PjzOm64Ug5eOZbwlPUFXm3Ve+dErg14l3YbWiEfZgpXgjaJyb4yXmSg4XLvYPpiGcWFVyFUYCSN8+6kgKxQVUvmcLqBqshJ0VVIXZNs1zQpFmuAEXYHWxeXiDce8AK4Jhv6omqtAGMZkU5OSoKrchdzRyNKSD9tJqwJyGOPLb/j+zPLgq95hja+oKCxpi+8wbv3rZ2qbeNtA1lJPJApz3X6Yy5t29GbMloP234mVPoouQYvFKNPJGSiULohxboPlJzgoPIZ1YVUYuX1bX6DLTrwHtlrs3pxCv9b4hkWTFdtwpDBtU/X+z0v9TZjCHIcK4Jpg6E8YY0THUpseaVv6qKvc49n2g9f4uuOZ8HYq9RO+teyq0G3lXY8v17a/NhTIsoPpznf/d7/d8XrTrOLcTyFqmvhsyj4dGSKdD1VVt616qzPOjA3eBwneKJBC5Fe2x6cN1mRsH6j0uguEfAtZJ6hPBNDPOutDrZXWkwqF/rCXAykc2Vb135cjGHl3Ks6ze3PaiCnJlUhNQp64blZBmx5l11UHUeXOUni1GV86D/yXzcFXuicbX9mWfTn/boC9xpM+viYLZFsDWNOdix64tKl6a/1vHHaBLTaa+LhaArrpT2lv6ZKNtlMtNmdk8O5L09kEhXcyiXMVSIHG5qFDb113AT2m/VAl0jY85PLuxXZrWbU8wlVwsN0JMdcSErX2sw2crlvIhVHl9vNw7GTHV8thgj7GaosZt/PApy3vGumuQRBhTneGkzq+pvLi0WFn3SX0u2y8sYDxj8mXmLhs39eVGTW/PGB3/lHv9yjEYoTt6opvYEL8xb2TiVzWHL/gIGpDFkRos1mS4Po42U4sFDSne6jKNvTls+V5XARV5Q7qQeCJbFphanyF9fsno++pHua2sTqA9aRqJ1psuh0+CP+0ZWV9lsreCIz6sbv26+5hq6q3HqiNYrlJLEaYtu8G8vXdHSdj3clk/I6SubieQCicFvqgpTbjiGvHmf9t+bDtdK3ELm7K/f70GSa5pVu+VW6F3bCq3Fm2nWdsQ3AUD3NfWmDwVrU7jn23C6WdCl3RucdmuUl9iu20g6LPO6qlUXu77XLlhRFUvWPRuHJ/jJcIIN6ScvvVpiOGwlsUEwjthKkNP/Kl3cNsPLzH/Va9Cit3putyrg9+x4LUpONISwRs1hb/siP6bYij+O5d7+BBvyWW6zDrUqVe60PXNPnINUZaC3hIVbYU6fg6Nuh2menhgZGc243nsx05Jre3J7ps9/ThYW+nyjje4YhF8Fal6IGoXwQSKQm3X23XdyoAR0HbzxcSvM9vtFtmElXlQ9vQ53o4sm6KKpftes8nijQY5Qq6c1P6fMK9uM63PAZ+d4N1qZDuMPLzIh1fcb9TicL8rms40rF1ZGDE25V0OmdXu7/DEZupXVibeqB4qftHEm6/2oY3bTEdBVUsC2ktOFVoHe9lywebwvCqxVbqUwUj22prMXWasKUq7w+vbgh905HWiDoPBK2QByyTvIwpTo6cJGe41D8cbeOMAYuaQK5gXtTBe1eEF2Ykj4JimL2go/DHCNtqFhKMbYL3853Rfb+f6cx/VtHgVXSnF2Q/9CSG73vW1nkP2GJ6dMuI3oCjDioYE2Z/9iRPtGJzJniOGT18uOvZ4HoEh63FstIV53aIYd5GT3pFMspqflwezHzkmgbCd0i4GwwU10QrNmfKrQRvWFKLuLA3mAnSuXXFEUyLHRXJwiZfP3hnfdQvoyj1JKTAAEzs3x21P1t2zXHdUjA2VxpV+9g6Hja39bVxRZIUstQhCYplqcXxPN/Hmy27uiSJtntf/XC3r2qrOvc8uIrwPZXt7FeBGaQqBvWmWZbPW7/meBPH2ATvYm6ZhGCXmCR1SUYuYT+kVug67VenmBjbLLWYV18a+6U++T4gadNuMClU/Ljp8bHt3vU90/brfiZW6ixy3wr3Lf2S8CB4UpbGAbkcsLgGR/HQ4kRVZXYdS1ztnpoV/SczTntA21ejOP30lXSilpj41RJhOLVZp23THWQqhWxDHuVSH9ttpm03eYl7lftdG46f1kFD4ftDj/sL3zcsqTK3tua/C+ZEfY6rUWFMZortQXAgCWbFdBfSWL0qtYYrltvWCJZued/xjLvtoINk2wpsreXW5EH78MLKgnaY3W3RBlHLEKJ6+O7tC+x2npzM8cGRRJ/gbWWr3JNVZXUn4BObe3z9vC+srLUeV7nsSugSDT2Lkp3MUO3GTHz4uJAWmkGw2YXUZjfToMVucaLNZheYWTQZu31bX6IvXqp6NeWo+trsbhmGFZa/d6odZg9YPpuxbmHK+R0LnfitqvlTTCps1+X+pyVViegpn+/kUP97y1MnvEBt686VdWZ/70jBPc6nmvBN9PmnThT1HTEk25zKErMvXTytb1dY/L0ay6UeYZllEby1m6lrsZuCff8FTpw43R1P9SV+g5KXj2aslmO4XrKgKsxqy0r7VOHsacse3e9ZHEwF1I8bF9stefjNFO9Nkz2bBww1aYq6uhM2hdq7fewUG9QGO7Ydr25ZVl3Q7wHCbFnnOoSeUxPe+Wi/ZX/st0S4+dWy+jJTX1ESyHr1og/eClj0LUWWbtUmuZKYK9hN9Mm2/Lduz8fHl1Zbrb/WbfPpvrM2S8QUTl1OLDSpWL/ELnhPN3l43rIrzd87PnZR+KcX+r1nLfyE7y+vqi3oNrttxyuN4yDXlgM2Oi1b1v2V463JUyHWAfQwYu9Q7vf9pobSyJbYXGQZ+vPtZlVUwVt+uLM/6peAGNAFXutOi8HPLDv2KJwGtTY2yGD66J7BnEvE4jax0KTCpuOIQt10d1Qe3mP33rRErtir3rJ+a6+v8K2lPoVusGPb8YqqN1yzrf6eN9vtuWF+bbjxznaJYVuj+3NiY1mJuWCO3e/dS8V7zMZ9aR6ynOGS/DDlVFU7tRSz8ZnlNU6qBHeuqLVuhafv5HQ2+5hYfG5p+OFIyxtsJxW5Qp1Cue0eA/+6tn5GPESl76afO5MK399cVZf377Od/Kjq7WJ8AeOrvzYP6Km9nqtzg4vfs7vbLrAuiWC5yepz7H7nkYGRSJ4di+UVQh/EgztZ6z1T6YL+vseKrxPAT3JUjSduwR0mhRP1XLah6mauY6HlQLbh9LblNaEuOdFFR2uLbScV91qcax61DH4KmJrQFDuNB31H/YRvdZfJd4MdTX6mW+40cXyx5ARx3KXxcstAWKg188Jf0vfr7mGrCYfWWd84313DjPOrS82KJrv3/4JFR64ZE7zlnhf6qXrPQDrmxRi6/YZTBbiwdgFUKFE4sfWV7XYP1H1nh/0SsW+vLfyhu6lCtyYttqFbkwqbDZn8nI80oQnr2GnCop+95ZpZZtPahkiru/qO5rPBzt1t+U1MvmU5DkXdV8IK31oK9t0Vtd4xuGtZbaQbXyEe9lhWfy9oLPeWQYRJ50DbZRaFst3n4KKzy83bZoc/6WgsKzEfWGS3VFOThmcjalUa2+BN1Xvm0QVcm3UUY+jO+pKPrhAKKc9dNzvQ24YKCn5awtkG02zXC9sKaLbjRZDhSAHoietmWbUP9Dup8Hs+yobvoI6dfo6C9gNXN3g/W0t2VEHWBCroMeJHPhvs3Lwsvw121FXHtuodRvjW+n2F7W9cUectY9IxuKWtymxYF+0ECNH7XbfduFS7/4+0VoYaPD+4yF11+enD9t/HqxakQj9PXTs/ZdXJRLa/NuR8x8rYB2+h6j3zQnfS2wbaVL1t13qLQqTCZKFLMxQaFNwUFPwcE7/r7O9st9+hT+Fb4UjVw0JPyAo+CvJ+dsi8b8eA9aRCbtvub12zArKOXaEPy2YnFFNtBFTo+ulC5bvBTj5j+tPb+nz/niAmQDqGj62bPWWv/bCXTyHeFOD+0GN3btBa75sWhBO+1y+qdLpVuwoSLx3LWE86PtRa6S0FCWPCoc/0Qsuii6rdW31MGmZU8NZB/e4O+wohkmmmhO6sz7ef8DWhVJhUpVPVNr8XdwVuBY+tH5xttYPjeHc9O/lOhrmqkmoB6Yeqh09fP8erxvsNSJ9qrTK7rp/jBR/b5SWiAK2JvV/ayMkPHTtVSCm23dsAAA04SURBVHXs/HY8yR47VVRzTSh0bKPsqKLjrg1s/MhnuZEmSpow+aEJUL7jS9+3bJU71/hy3QoU8fLsYfvrlwKi1j0HtexEP+fmRVWhdzKZzKY/pa13f1Q1en1rVaDLs/Sd1l0E29AtTx9KR1btjuXOlZP1jV23uMosnhvrOQLyVKwPUuYKD9oUSBdzP1RtUwD/574RrxPHs53Dpic9ctrGNjqhzUqNPUn+7sWVvpZdTFxiku8ugGoBeUlzytd3VqFG1Xj9+VXHkNm8P+1tbKAd0rJVaZ1g1ZqqIVVq3rkgZdYsSPkK20HshKrJoTaR8bNGPnvsNPl59dSxe7Ij7fWPHT/ZVHB+Y50eDEqZNQsrfB87/Vs/FfygabycW1fmLSXxs9zomo3dvu88XNJc7mun14nj67lDQ2Zn1/AZm0LpGPz13HKzvLncXNLs7xg0+7jbguKjMbzyxIh1+NW650Wzy7xWs4V8b68+p9xc1pzyKspRUID98R8HzQ3n2VXxK0uNubKlwutr/vPOwpZ7aN24lrD4ee+6M/F4hNXuRARv0UVSVR8Ul5kYuscvOblwR7l1SBlP1U9VidcvGfvvD8SwlaMeutOt+XyCsaq3fqvzfiv5hdxdUTHg/MZyr293/seuOLtuKBTPqy+1/mw0PtSC8QOP+Xu248NP9pofXzMrr4LM+PEV5HfnBMsiZ7z/96e0+dvFVdab16gCrMD61p4R7wHN/+getgqiKkJcOLvULG0sd7q0ZCqaODQfTJu3n2t/Trzo7HLvz4tHM6b98JDZ1T9iXd1f3lhmLj6nwno9d5Y2/XkkBhvyJSJ46yKp24v5hBTEkx6S0sVzJobufENKkiZD2Yfu/LT1c0HLIfKt5J+xiUyqwaxuic+63onV26j4/WyyG+xcuqHb+ndofKogE6fx9WpfdHcbEA8Kj1sODnkVXT8WNZR6f65qqfBaEx45OeJtRa8/h06OmqaaElNVNvZnfn1pLML2RKoit9SXe7tV+nHh3DLvj3pqH+gde99/7h81/cOj5mRm1NSUlbz+/s+uKfM+p3xoOcwjewcjXWKSqOCdDSnvWODv9jXiSWuAi2VHyiBCyoOmPhbhO+g7EJowxyl8BxW6sz65tc98a3VdLMK3lr/EiT4bPxVphW89IKu7CUkdX1/fzo7LGBuXWkaham4+tFQlirXaQVA1+WMXVPmuRIsmE2FOKDQhsq2qhy1RR1cVDrqcJJeOncIPofvM8O33gbEw7kCEsewnG45s+5eHOe6CDN2iz+raJ3t8bZ8e1kTWT2CN6wY7eiYhn/F1+UPHfP2esMbXTHk4HLn924G0V8GdaVRNVlXZ9mFLV3732nCsvp+JCt764PRQGpJHwUsBLOjwUyx0R+e//yKaiaVC/5oQ19rre/uuDcd9tVEMigJZ2ONOE6coKs4aKxozcZ3IZpeD2I7pfB8Ezob8KCZALsYXkunhvfbdPoqJqspf29lvvZtnmPT5P/rHtDcRipNEBe/sQ2l+25XBRF5NVfCK04wzrmNbHR78bBJS6GTopsd7vNAftmx1WAHV1eRC5wkFMhfjThXn6zb2OKu86vdorGjMTEddYaKUveMR9jHX+NIEyOXkVUG/0PGlrkS59KWjX5OK/MZklAFUDxJGWfn+5u4B034oumv+kYERc/+uAW9r+7hJXPAWVXiivr2L3HQBVNAKs5pabPRQoj4vBYiwlmfouKjK3frQMecP5CmgamlAmN9fTVwUgnWecDnuFMAu3nDMG/NhHTv9XC1r0O+xaUGmv5PrtYR9J8L2TmUQr0MTEY2vMIszGl+asCroFzq+nu7MHQp+E5OHZv2IesI3FT20l0uQVepsAP3VwbTzKq/aZeYS9qTA29fhFfdLT146ljHf2z0Y29xRVvnu2/+XSaCfdKTN0obyvG9PIly6OP3dz3vMQzG7xZMUv+vOmG/tHDD9J0ZNQ2Wprx0Zp6IA9uDOQXPLll7zSITHpTsz6n1/n3glbc6qLPV6P9u235qOwvyX2k+Yf9h+0vwxwodoth0efv3Yza8vN43VJYF8n+7d0W/Wb+sz7RYX1PEOHs2YdVOsn9Yk7L9u7jWHQq6qajzr81Dv9alex2e2nQjkuGl8/ezAkDe+0mnjdYGoS5UEMr7+YdsJ84//cdK8FFCw1PtdWFlq3nJO+ZR3NtZv6zVJU2VKzKVTvKfx/ZSfP+a2Glk2YsxfN5absmlOpx19wb+uPSdGzJ+OZ8wb6kpNTXkwm+ZM9Zl+b8+Aebl/xIxmjFl21vTH4MWjw4GN5ano3PKHYxlTV1Fizg5h18qJVf4n9g+ZTYeGjMUcKzIl9fcfifHLy+3B1fHoCIG/UDXVxfKFmUQbe/zNgpR5a3OFubipwrqLgwLb853D5omOdKyX+mhL7hVN2rTEvnORJhLPHRo2z3UOmY370rGtbujY3bi4ytemLwqiW/anvfe2tXOo4I1xbm2tMrcvrz1t3Ojz++jmPqfjIqrXke/40mZH7YeGzZZXh0IdX/etqDU3TOjtrjsA6g4T13Fts+vniqapO/58f9dAJF0mtOHMVP2mVZnV8oSwPnP1oL5odrlZ0lgWaOeSP5zqAz7xO3TLoqop2/sppH7npQGn7fXUf3zNvApzwZxgC6Z6L7p7FOdrXFEFb/ntdXNoMxgDCnlfbD+ZmMGfZNldHKWlvsyrGmu9aPb24vgdH5MouwOnaFe2bHXm+OBIrHpW5yO7Q6Voh1HtxDn+vW3vyoRy4c+OGf3OyXZtdP3+dVyf6UxH8jomjq/x352JO4q6/FxWN48F1d93nRmikkgh9/Km1Gl3tBSSCt2tMYzXpTXBm/alnU0Gxn8f82m/p8/xt4eHzIvdI1OeLxT0r2yuOKO1oZaY6L1GNalrPDUBWTy7zHff7/Hvf293xmzvGo5Nm8AZFbw1gO+8rJbKd0RUGfrOjn6e7AcATDqp0EYoXYMjsQpJel2izVqifF3nV5ea6vKS1yfk59SMLb+blSoxx08tA8tuqqN16n4/RwXdlppS7xgcPDl1UI/yODRXl5jZqVJzVs0UFfr0qFecUFFp/8mRWGyEM6ODd5Y2YLhteU3UL2PG0O3wB3eyrAQAAKCodq607Zig24XfXhuPncyKmR40uuMZt10jAAAAkqyogrdoveDxx3vMXavqWPcdUuD+yvaTiV4/DAAAEIWiWmoy0d1ttWb9kiqq3wEtKbnnhX4q3AAAAHkq6uCdXbT/1VV11m28cPpDk4/uSRO4AQAAAlD0wXt8H9c7V9ZR/bZcTrK5I51zO2oAAADYmzHBO9t2cN3ClPnYsmrTFMBOgMVEO6Rt3DNgfhjjbVYBAACSbEYF74k7qM30AK6w/Xxn2jy8J967GgIAABSDGRu8x29r++Gl1WZ1y9Rb2xYTbUP8i450INtQAwAAwN6MD94Tl6FcsSBVVCFc27jv7ho27YeGWbMNAAAQIYL3NCH80uYKc2lTeWKWo6gLyctHM+Y3nUPeRkLqaQ4AAIB4IHhbBvE18yrMhXPLzSXN5ZG3JtTa7J601mcPm4N9GbO/N2O2d2V4KBIAACDGCN4FhPG2xjIzq7LUC+QNKWNaG8cCeUOqNK9dM1WxPtg3Fp61PKQnPfb/f/HosDk+OGKOpw0PQQIAACQUwRsAAABwIBmLlwEAAICEI3gDAAAADhC8AQAAAAcI3gAAAIADBG8AAADAAYI3AAAA4ADBGwAAAHCA4A0AAAA4QPAGAAAAHCB4AwAAAA4QvAEAAAAHCN4AAACAAwRvAAAAwAGCNwAAAOAAwRsAAABwgOANAAAAOEDwBgAAABwgeAMAAAAOELwBAAAABwjeAAAAgAMEbwAAAMABgjcAAADgAMEbAAAAcIDgDQAAADhA8AYAAAAcIHgDAAAADhC8AQAAAAcI3gAAAIADBG8AAADAAYI3AAAA4ADBGwAAAHCA4A0AAAA4QPAGAAAAHCB4AwAAAA4QvAEAAAAHCN4AAACAAwRvAAAAwAGCNwAAAOAAwRsAAABwgOANAAAAOEDwBgAAABwgeAMAAAAOELwBAAAABwjeAAAAgAMEbwAAAMABgjcAAADgAMEbAAAAcIDgDQAAADhA8AYAAAAcIHgDAAAADhC8AQAAAAcI3gAAAIADBG8AAADAAYI3AAAA4ADBGwAAAHCA4A0AAAA4QPAGAAAAHCB4AwAAAA4QvAEAAAAHCN4AAACAAwRvAAAAwAGCNwAAAOAAwRsAAABwgOANAAAAOEDwBgAAABwgeAMAAAAOELwBAAAABwjeAAAAgAMEbwAAAMABgjcAAADgAMEbAAAAcIDgDQAAADhA8AYAAAAcIHgDAAAADhC8AQAAAAcI3gAAAIADBG8AAADAAYI3AAAA4ADBGwAAAHCA4A0AAAA4QPAGAAAAHCB4AwAAAA4QvAEAAAAHCN4AAACAAwRvAAAAwAGCNwAAAOAAwRsAAABwgOANAAAAOEDwBgAAABwgeAMAAAAOELwBAAAABwjeAAAAgAMEbwAAAMCE7/8DICRs7V8fb1AAAAAASUVORK5CYII=;" vertex="1" parent="1">
          <mxGeometry x="1190" y="90.62" width="629.14" height="264" as="geometry" />
        </mxCell>
        <mxCell id="wf13W3H9ViJ32tmybume-5" value="" style="shape=image;verticalLabelPosition=bottom;labelBackgroundColor=default;verticalAlign=top;aspect=fixed;imageAspect=0;image=data:image/webp,UklGRnYbAABXRUJQVlA4IGobAABQkACdASraARsBPp1KoEolpKOhpnULILATiWNu/GeQ/zEMOYP1l/Qf4z9z/791hXKvif+v9akiiyj6xf4b/V//L/X/gA/Tf/R/1jr0/0//neoX+ef7z15fS5/yvTY9Pv1id6I/d7KXvm/+X8//gV98/uP98/YT3F6zu6XgvtE/jv34/af232/9j/xh1Avxj+W70eAP+K/svpV+2/qz6sfx3+D/3HuAfqD+tvJeekewJ/Jf7P6yf95+2fqZ+pSd19sUmjx8/Dc8xYO/CRzasiNcA/+6KMl+9LnrUTqaC/nntqvfz/v0v9WGMoVDYgzV2W9YL8aP6Iy49vrnvV/1dEVl3E77RDfjk3ooOhIg0xP/hKZ/Ha8W/VNnxb+e+P9wYxuyLjsfUOZ+cR1ZDNEJchx2mdPPKCJuZfKBNGWXkU+CvugCpnVm8PlCaABvIjexR4svuw9+itN++JV+aBaamb9JNrjlyiN6UPSOi0ZXXC5XPvCSi8qAxROmNTOgshtGzN29l2njYp1rq2SYPYgV5dPM2T17kaD2ZZcHfwd9HgcMaWHnKIOcZ0fjC0EwWBVCj7au3U2pjqPc9O657EEDpsVgSoaY86Xy0tek+psD5+2XO8PYhyI6+H80i+cACj2skkPo1xm4pkyAo/MXsW5qhF/CcFXF510psgbCOEtzJYLhuUlVLAn/gZXSUV02lc/6no2ZNaRYVB0WclsOT6fYhcIuHK2Le5/+WhnFDaHCFQG6SL4Nf45aCTXud3y+49jgIpdsd5q71Tpeu5m2vEtbhsiSZaKRBf8Hh0oWBafTAjhXEz28Kz/xjdZdTC+zSpdF7AllC4CjL2Cn0YARW8RrHYsE+DVAWM8qP7Kz7SCrVzZR4yWXejkxj3JSUKLzWQ7UKBQGTOnUqT+YwnV/lPX0T2euIPNycVY84OvGRPduTgT3SeWpCac8j/sSA2O3guWZSjNqJi7vaFgP8OaqBUzI50dpOkt+kppTml6KD6yIsZ14HUCdniTdEg2XKWTwfJAu7KaIKa2HTK1cQQZ9HQbwejUd9wVDu5qi1DLKEnYIywY3MEmtiLFOXjqkUq3VrguZl8vFCjX0yMYQiazzZ8JK+pnewtfRmZfLxQo19GZjiG/f9XK477jxV2yu+rn3aRyP5by6uO0ALrIHXoQ/IKYrq1wXMy+XihRr6Ae5RITfE9eTe5cFsKDdG3zO9FNPOk52Cog//npdqKlAKqCLWGnguaBC8UKNfRmZfLwoUc30kt6kq8B25HSx45KPvWV4X7ZtSz45Z7V2pepQiX2QyUqGvcxlWmvozMvj/xEibpRtzNl+0L5MI3oKHXjwz9pswK7CLb00cvtSPUP5cMSO0Re7ZtEMwqdVcXmC4ulT9Yc9j7f4b2pdEZ+N9W232Es6m88jU0hqy8KSF2RsvftCv4xE0UQ8TRhqRLLx18bPXmQArLmGSK6iDmG1nfLfxOQGJpiN/8h8vX7Uk0YfJ3mKQu8xVIKNrO7dzyBaRe/Uxjsf5CGAbj06a139nq7tx/y/vN/h/+m/bAOKqVyK3V7VYAD++bIUNIbXSO+cP1PUCs3dHrP6lSMjDZtM1ZvpE7CqnPZaale+Z67iVk4Cn8wlvjTaOS69sDtdnaO/GV5zyOY341+MhJSRHNFENWGpvxrzp3iaBDFV2OVzGfYzrkB9pUv/pTGj505lMriAN3sWnXUVAsUz2OMGpNrHdU1vduS9ddew9VymEQ2P/ENFhzQMYdO32U1tpQUyYBMpHWRT3aAu+ye6GyqLzXP5Cbzv3H2xfGi2Ajci/3PX7I7jiM/Gia42mi0mNhBhFzikqhMa8PhQ9aTEGT3jZ713b2C07ef3iy1vzkS7NJgqpehOX/1HH72m7fNdtgkBYAKAtyTQB3y2EARjjvby6+iWoZbkZW0bpQG3uoItlbgLDgTo6eQtl1W/MMQ2X4xhiS1wA3vfcnspW+l/zZgQlaTJOd8J6IB5XWJNKzHNxFjUkrPaJjHMHnq5Vag3jLMVk5V/qgJTUkVmuIQrGpqVpzJSsI52gUUUFhLRUdPhVRTunOgFWulUWzS3ybJUsGBUG8EhPs2Iww1kuETjltOgWlRoKBIeD51N/vOTP3V2520RRrK7LNmx2UzYX/U9isjTx+IDcpUAKbXEPJbwAS4gVpUz3m19Zz9AFaMt6O5u/CVgbL9Jtyd9WgjvN+fs3dF4b+L84TAjZoLoS1FhYL+ceOUC7+DUjtWzyLVYk8qdA4O+/7FAg1M5JPvvqm6jcJqgCdjeXFAk/DZU8RFPS7qdEgdOGOcX7qo/kccHQZiIp8H6SIJA8p8UFs41SCf6K1HMW6/mnQvrcJXC4jHnU8Eo5i0ox9ee0aRpnJR0R8a1pHpxO82/JyQJ7PZXFzdmLk9ff1YGsupsvTikxE9OCXIqI9pBQhZ1PgrAJ9HNTwdKQiJdsA8VFYcBJSPHgfzKjSmU1B0Z07pouJjwP/UBvTHjjf6+2Vi5NxdQVnTy6bKIa5B99BQxfrpbgcgZp090awhCHDWMz4aqb9SAP4u76nAS1s8Fup031v6IDos6D+Jca0AV9/ttBZGoWr6QLiqYA4TMaZY9Z3aW9ZAK6x1GK0h4sgCOU4QK/hrwYelGvBjbh78IT/T0tvK8te2dXmGh8eATpLBUqGGbPt60aGO1QkHaV5C2KeksExpNXgReko34rIMzJ0L5k4/fa5SLjzzyJQnL9qJJDe8Pyur7smWfKvAARAiGZq10LJ/gQ4AteNcXfN7vwaQUUHyO+pipIN23/lzdqeXEBD6Kn6OpPU0RvSFff3cX4eUjIU/hV1UdQqkxpsLWQlmMHCDbPpEFFdoWDK8OP3yOLLVOVfXMe4RVo9UOxNRP4hjC6JGPAVmoMJYESjixnEOdOnHFfY9MPKfJ8JW4uz79vSrF7qtP0OJOGdGHxnnjgSYfkOveBZWCmzGxDCyFpT35pMHn6lhfJGpkgijiMWdjnl61h52ylJjrGymPuFKZeQQEPD53ekelsfsz5sP3z+WrmdpuOIxr0hamjjst23jOMuT3/sGRNkECKMGWmHydYuD4jDQPupstce9OeKcjljeT6UUWh0C1ebc6Z1VznQaqHhZ8OxTe0PINEVWzmJFXQLMLUEo3qaeyl2i8cV56fZu3AcsTDy+TTH5mIh9jQFO01mCYhsJIyAQ8JMZpt6bna8nZU+lgpMsCeq+LcLjQAx8V8Z4zmj8sPiYd+wXqhwVYUGT6XNxIq4upbdbHbYT9JRjcI8YIkejdk5GXKmwJHCebNV/fwVmMAAXvMemOM7cBkcWVYZFbPi/7Q+ubjhhx0zw14z8X0ysLqPCLYiCsBSfRS2aFvQYnIyVHkboxx3bHtLvaEVWSYbYixnvWIzoVJ7BP52QrB1dJxkEjnF1wF/3sDpS4jeoi7IBLn10hhoQB7dNxBHhxVHBOOlR3XOVvIe3L6kE/ur9hboVAGNip/FY8PLwkKoWvgq+Ro2Hp+zX6RZdl+KozQ/ksfMRZqd+IDFqT4n7w3gsaz2inCrIG2tt/HKI8GGbtxdDKSmPbkIXcjvrBG5pUIOE16nRWtXojqWccXHlWMjcXkUNENDe0cvO8T0NCWYl/Pe29g9SZl4a0uJIIzfFlzsk9gsc5szd7tgQm5mWsp7JO0fJykJOeo4n72ZETaK/EViUFQ/sbI4pkNGrCbSsSnChvpnE8KfJQsqS2jQFp7PN5Qkr1J3bmEOPTlbmUcaqk/+2h6Cyj7hol1x8u5vfoSALo4T/VfIjzEDqjZx4BLFmHYUoOKsfumv6op9J8IwRQkvJaEEmBV2Hu8DGOk8w+UnZxDpykEPVNqIMqKD2acQSd9iC2bZbgEGqlbDSsoG3vj/p2oITjg9e99UeLVn9P6ohDOyAJwQTXd/Cy8x43Bw5MBU1rQg6X9hq2tbjMrtu0m1LlmoHpE6xEvclM9cAyW0YNvCNO0TGGY7xHpmv9YkQFXaWHJ/hc1rHaFRC2y1oETsgQuDMEN3cdfmn/Bov0z+LqLfZevXxMOPgzPv1/Hhv17OSp6sxqpJlwL7M54FnE23+p6yYnVdhKq3GRjRLnLvXRXTtRqQgVlvevhQyTngxDtQ6sk7TWHFowdAu5bklvbvASH9tyiWZxVBVGlw6Fi21jQAXcYcE6NSuEwDuO1tdffec7ywrGtoaZFe6KN2RTT19S9UBotPdbtbH9TeqQuvIlvRB47Cui4eQJb9RtOxl4ei05C2OmapOBt2RoDzCLZpNFIoi7OG5UE006xVTJeF8OOvid31oC4aFCqST2LZMXZtABckqW4o+eKNNxIGeq1gKK5KzVVhUwbAmCHgTwtW1W26PFVRTMRqa7kjwdliwa8uXNvSK3tUM2N9x5zDnpWrgZ8dA4GIGiTM48Umo5h1FpBwxTIK87VVQgXzbiEn3L4vgiRj66gTnetiYiw/IsOX/L5KBy1H5+H4rlliiEHYiHb3SydUz/JPUA1k1FyDSg68p9YjP662as32+f+aCt0WI8nHtOedkdGNnVbGs3liBEQbiT/t4i66dbqqBx8kH3nBnhqWd2Ym56iVNG2SmdAMDzClAGK4LTXPs3kmFHETyCTZH0xL1qTe7u6z8ZTYbiEGgzSkaa8oQIpTreVBxaqvtxc5U0xp8dtfyB+xAZ0bmhQuMZAICUMJNY8bwCPgmR/Ax9Mwu6NHbhtFiJ8jWYqbRgK3LdSJvcr1LTVMpy2zUcPMArextAtYEzPMSBf6lk7vBY0cgl0StXxSvUbiJY3Dhw7uw80lx4RVCf+mJLX42Haghvi7sE3I+FySEjtchTzAZqClzyqe6PxPxz1UreS7sqcdor91hQXWCzYmvrPeIYYrUReCgdtdnbEZkD4nIgdtE3bfBiytK6+HTLQDlysjzCCg8Fv3IRUEFJLVu0TykwAP78ALd2Kp+4QY6owsXbqIHxVYow4gR1qM8okZ+gJlajahODmgC2onXFfmlGFoThFiMuCRBAgNz5EfD252Hh4TldmAvHEYSTLL3WSzhuF+BJnlggglWsHxL0I2jc5+iFBiBZWrau7QUmRcWnQwnFcnqjYZUxzk78uMPJJnz8pwNnfR2HCxTyPVOMFBT6RozQJtPt2txRFCQ3cLsLtXfGWYqn00kC4nOnOXsOZD+YGcm5K8EAp3dzMYO3pS6jaR64lrR5Iou1KKkSDFBeftmu4JvAi91YBbKPgDULHC5k/yhN9dVK2EpATqG2W+RI6044QqE47mx9UK4KEzk6BkMu9sbnFXjumWZ+Zwa+bKrfkj+EU61UXK0xDqI5a2tLsTePoddZLWEWWUWuEaPqvXF153/IubGE4fJQAN4iYE1z8wQ+dNgz4aE5yIJT3oryGJupp2JzDExrVHWYq3Dr9uDHZHdQjWlcthAM4cph1RAN54fc1+A8Cm5FolzLYKQZQ3SCKyeuOcOJtBDPcLZBUUHR4RqKDaTyVhQe6O1wHPqoFipJeJjwnx61ObACgyXVuNDcfSe/CGC8lVPtqTWUZe6Lf/RdjXFrwbWe/xYl99vZ9B3YQFpMZOkRdIq3bvVClAfM9IC9AcTChIA0rN5OLm/srYTd3Rw6DvHMm7ESNCzH8b8LRBR9mMR/mTNQDcUGYUmMg94omY0OD0Ek3tvrrwHx3Xdcc5uV+BPgKYlRb7Z0pQoj2M2dLA2GoNJPkeTd1R6GuCP2dvSmG90tydWUSKHtS5HqEudJ26Ji8uV5u6qdwSGUA9dyogVJKE93jPR3YuXrS3AoKqsec/4Yq8Ayyu2VISUKJXjeB9ZmMORzI3BfhH3n/EkuS8ROuNqrcHS/8q7SeQvIXEUbNHsML8XvY3V/jf+dVcx/nbQonxnk/+hQMPNuzlN94kSyHE8Xzt7VOWogzEeD08f3ilJ2l5eKb9uIOMhn1Ju1BFACh3AjWbuj1jrnaY8Iv4oJVzCDKZqqTzZ+OHS8QcSMcDEsA6UZNC0gX2ULUFSoiS8LUqwWljSEhL1zhbvoeTgLvRxxc2+SGveElMSzUZz5EZuApfuIgNBd3xQ0w/MIfc8K4O5HuUAbMFChJDdxjzf8mMHktFg26ksBdJKnr/N8qOph8tcIBITlgFMCS8x4dq41Jgxdj0+yfXwaOanm+/FUX3smWl/iI9ypAJnYnwuDh3VS65yQzvSCb4ehtw9V0CHKvrHGqjFPYK2wSu0EcidbenByi/q8mSQDxnf6zGW8GTWGK0BQtqdL76AMAzy9661c0RgNH44R12+EzmzRJPn33W3WawgLHB7p2zTmBXcojLHP1q5nNowmMTHSD2yjny5FAnstByDOt6egmEQvFdFHV2nMvYKy5WerQNSOjcOitFa16hGCZysSTN4PclJURM3RtnfJdDn+vUD0XOS5I9f7wwEGXlC0zTRv2jlSsk/ZmNwicvuO6pN9DQwXTwAdlmG7wSC7mIaCz+1IR2iWAlJW5c+yNmMHZbpQe7ObhLfNJQJ15QurRWaTnkWrSAaqxW+IHQMQX251R40cbDLtpf1RL4r3VLJSffyU6/IYMkOpXhJoR7nZ0SBlAOwH1Fu1/UooAuAoyVLeGPTWU/yPzx6qIU4LNzMcYZimyU5ooYEoPttfoxwAYyNGLJhbAvtNW1C1/LCm352FZ6o7PCgsWrEt8sdQd2uh7cuOp1PorzSIM3P00bDMa1h7cv8UP2gLbuozUAW619UkUYVvstGw+xtAAAAAAfnk88VkzfPNX8vgAHibr96lNGYaKl9iGqaufRpshF3t3QlZNmvWEYi+0kZwv5J/mNwIA4zIzfCUZJH0DJXF5MAAAAAAAAAAFdq0dCe9yVHAw4LFJFvRzI8CL11jy4/jf76S9mU7/+VWFy5X9usFo6UP/RK1ErTLA5njC1YAAAAAASrSIJ+nwpWKjagmcqhFykQUdfyswNFamOdMOvl5ONeQMLyGnZO+w0v6ItWdq6/BmyXt8r0JFKukkBLGrNYE7TzAj557eJ7bECWzodwLtjQE2H0NTt/mNGCzWoSxAsxe3jl/UG9yrbaCBdS4QIh60FSdLpZmKcndidaVy9eWkQOVKBaafoS2V9ybYPcH1lvqK0Cs13e/W1HC3AIaK9Nr20nrz6Wm2O8EwYgwjXzBF1NXYHeOj/zs0anFStsV3euAWucWeq2auc90mQlXwd3eV3oVnxFiBxQGb8hkRNlqo3oOqpiiY7I/RrGgAAAAAP4GHBoLB8Syacv03uW1//+hQxtnKpXYeSo8W35VAvjodIKMD1zMawN4b2mQBiq2qFhigzLb/OI62KKDPbnwfZPyEMVJjg99ysy6q+5vER157b4kA5M3bVjpYH3nTDmLUi6aqNbASEOYp1eH1oniIYJSUMpstRPPmJ42/ybEMC60hjKuB/6fsW2FAzwALpaPG/M4A/G3QR8gKROPg3DCyzQOOeNv/rxBWZvUWOZbfPDxVyOnQ+osjG1lmsCNG9QOyYltUdvSVXoIDtZOSGcAY02pDQcO+YtxmahZ3DexPjlm4oi/mYj2GkAAAABSHIk/6/OxLO5dVF45VwX5pjaM1UpfRaXKHPCWz4nccMBsq1aR2k/iL2h5EphkiAeZwBNiuZL9Ul0BG99IRsxFR9Fzd3tXcxN5BCGGq2c+Yu44k3bgiiTfLJ186s/iq6upHx20OWc+B/o+0iqD+D6I8TcAX5XtTeeyAhLSndhOrgU23+gmSgrqn3H7Bi8nPM0iLhaf2Hyr62cOZZ4o8S64pTsrrYn0UkbmiPlWfAa4Hcr6VkdBiz8b2sCCcvaRgJVjPCObt9Cl7NelgpnCE1eb95VWk5qfOBw+DV/Q79sCnrxOlmPzJ4ve4WkrNV5KmXJMWpskABscZitweOOKNF/Jvu4RzeeUuW62/AE4zgf4x5zUP76UPxlJArmXWG9UKVuabUIVlYUAAwhj7NO6bwdkmXD+T57V6pJTuGide+5K6JoD3W0RAMjIb8fiy3HBTijXhXy7ph6idGS5RAhkN/DfNhXfZnCWRJUKZfd6jdDrpIc5xfL+rHjtfrDIpjHVAESxrkHyE/Cs5fXbfwxKkSKpW5idRm/v4gJpA4U4Ore/Qiqq6qp4fJ9OoIRz6AnpY8oxquB5NgoxC7I8CYLdMX9Lv3e0wJbk93n3dU2Ajnwi3UGEUzsjrzcnqnqU0RrgIdOqg3cYMIFLNQ0dzhm/g7/NBec3fhl47ZBVNyHIYZ9Jf/RpiJINJI5dtBptosxgTF7EvWzSxdabevYtcmA7hPVuaQM/dcpIhbhgmjogS6iuXxh5hkUDgIsXe1o6OQhzlAn3i7WJ/xw2zAVV9941JwXPcilcnzvrNWLY2X4zx77F7d8MFsnK1S0TIurKGEjwIxPMQ/7Ytlz5wUkUym6LcXn2qqNH/lBcYiH5jP0K+UP20w1jsvh6YY3E7xU9deBKbb1eWB04FwE3tcK65cNm95Tnj/9V1Vr+nGireUZIMAanX4U5q4823ibK+1Akj6UNyarNcOK7lCNAfRja9MTmCOeT+pV8cAzsdCLmgYcol8uMvC5J2XcEVDRRRYrozbO4lWt0uSjDTs6pRh04Vz1UP3mDlEO65Pp2gjC4JGO6JseAbG7+YW4Rnp7/b7zssaN5QN7CDMgunyZ7LWR6NxH1AxGvU2TImHOdIB39tCFjzXOsGmdm6F0b1V9wEum5i7Yo/ZXZajdAovSemJZSqTUUXXkhEAGjsbcHWvWRcXLmRdBSci3jr1+uikwNyj5wlCM6TbPo4yn4QuotoR18NeIQqR1X4Zm7mEx/XhpQE+t68k2rOgBuOmzFtp/qiQEKG4n95As5m/uMbAEehzI9y6ikG6iDkEEge3uUCCe05gS9Q+J+e73jnK4yF83jjuAQSDOqRD04/BHVfsTb3NUHr+/hx4U5HA1z4XNcQwSdauimDFmcM44ACwF54DIPbP4VuFzP4Wygh0nT3DWzv7PlpSHLkzCee3KFjEUv8Lrg5BMun5jzNihnYMPRjN1CcHlfFxJHWIeUqV+d+eErl6xvezpXIc20fqi/DfAy/sR3olZ7GIBJKi3p/sPWx8x3Q0UztZxlMGM1HHp5YoPKyxywSTU7IRR/RxQ8dKKAAAQ900NflCOsMOQObKIocS9M/Sxu3O2EPRJgXrrPw/ElX0p7ACreDnUKI8OVtDWhaa/r2s0o+Tmo93uJojjQYbnf1NFIOiQDg2d6eM5QLwmKdSMgbiKRWQBIby56N1ufv8DXjaisTNvKPxWf49BhvPHeeo7mrrEluVdyihjwrb86ajxPjO0BoKDSQy7B+qUHnzPcBa/29iqx+3TuhMoEvIMgoWyrWMFJkr05fukF0R5Q7slFh7lsDNgikH2MOUTEiNAfaHaI4hbIROc1Kj9olr3H+fCYzONReybxTEPoAAAA;" vertex="1" parent="1">
          <mxGeometry x="1970" y="109.39000000000001" width="410.74" height="245.23" as="geometry" />
        </mxCell>
        <mxCell id="wf13W3H9ViJ32tmybume-7" value="&lt;h1&gt;&lt;font style=&quot;font-size: 47px;&quot;&gt;&lt;i&gt;Architecture cloud&amp;nbsp;&lt;span style=&quot;color: rgb(29, 33, 37); font-family: Roboto; text-align: left; background-color: rgb(255, 255, 255);&quot;&gt;Taylor Shift&#39;s&lt;/span&gt;&lt;/i&gt;&lt;/font&gt;&lt;/h1&gt;" style="text;html=1;align=center;verticalAlign=middle;whiteSpace=wrap;rounded=0;" vertex="1" parent="1">
          <mxGeometry x="424" y="1980" width="1230" height="30" as="geometry" />
        </mxCell>
      </root>
    </mxGraphModel>
  </diagram>
</mxfile>
